font.ufo
<glyph name="ampersand" format="2">
	<unicode hex="0026"/>
	<advance width="609"/>
	<outline>
		<contour>
			<point x="236" y="-12" type="curve" smooth="yes"/>
			<point x="329" y="-12"/>
			<point x="395" y="30"/>
			<point x="449" y="91" type="curve" smooth="yes"/>
			<point x="513" y="166"/>
			<point x="559" y="257"/>
			<point x="586" y="354" type="curve"/>
			<point x="509" y="354" type="line"/>
			<point x="485" y="264"/>
			<point x="445" y="189"/>
			<point x="392" y="131" type="curve" smooth="yes"/>
			<point x="348" y="85"/>
			<point x="296" y="54"/>
			<point x="241" y="54" type="curve" smooth="yes"/>
			<point x="171" y="54"/>
			<point x="112" y="99"/>
			<point x="112" y="175" type="curve" smooth="yes"/>
			<point x="112" y="319"/>
			<point x="399" y="370"/>
			<point x="399" y="538" type="curve" smooth="yes"/>
			<point x="399" y="615"/>
			<point x="351" y="668"/>
			<point x="270" y="668" type="curve" smooth="yes"/>
			<point x="179" y="668"/>
			<point x="118" y="600"/>
			<point x="118" y="513" type="curve" smooth="yes"/>
			<point x="118" y="374"/>
			<point x="257" y="191"/>
			<point x="400" y="79" type="curve" smooth="yes"/>
			<point x="460" y="33"/>
			<point x="520" y="3"/>
			<point x="572" y="-12" type="curve"/>
			<point x="594" y="56" type="line"/>
			<point x="556" y="69"/>
			<point x="502" y="94"/>
			<point x="450" y="134" type="curve" smooth="yes"/>
			<point x="325" y="229"/>
			<point x="189" y="390"/>
			<point x="189" y="514" type="curve" smooth="yes"/>
			<point x="189" y="568"/>
			<point x="221" y="609"/>
			<point x="270" y="609" type="curve" smooth="yes"/>
			<point x="314" y="609"/>
			<point x="332" y="575"/>
			<point x="332" y="537" type="curve" smooth="yes"/>
			<point x="332" y="396"/>
			<point x="32" y="364"/>
			<point x="32" y="170" type="curve" smooth="yes"/>
			<point x="32" y="59"/>
			<point x="118" y="-12"/>
		</contour>
	</outline>
</glyph>
<glyph name="quotesingle" format="2">
	<unicode hex="0027"/>
	<advance width="249"/>
	<outline>
		<contour>
			<point x="99" y="431" type="line"/>
			<point x="149" y="431" type="line"/>
			<point x="165" y="598" type="line"/>
			<point x="168" y="690" type="line"/>
			<point x="80" y="690" type="line"/>
			<point x="83" y="598" type="line"/>
		</contour>
	</outline>
</glyph>
<glyph name="asterisk" format="2">
	<unicode hex="002A"/>
	<advance width="418"/>
	<outline>
		<contour>
			<point x="138" y="420" type="line"/>
			<point x="209" y="506" type="line"/>
			<point x="280" y="420" type="line"/>
			<point x="319" y="449" type="line"/>
			<point x="263" y="543" type="line"/>
			<point x="360" y="583" type="line"/>
			<point x="345" y="629" type="line"/>
			<point x="242" y="605" type="line"/>
			<point x="233" y="712" type="line"/>
			<point x="184" y="712" type="line"/>
			<point x="175" y="604" type="line"/>
			<point x="73" y="629" type="line"/>
			<point x="58" y="583" type="line"/>
			<point x="155" y="543" type="line"/>
			<point x="98" y="449" type="line"/>
		</contour>
	</outline>
</glyph>
<glyph name="zero" format="2">
	<unicode hex="0030"/>
	<advance width="497"/>
	<outline>
		<contour>
			<point x="249" y="-12" type="curve" smooth="yes"/>
			<point x="376" y="-12"/>
			<point x="453" y="107"/>
			<point x="453" y="321" type="curve" smooth="yes"/>
			<point x="453" y="535"/>
			<point x="376" y="650"/>
			<point x="249" y="650" type="curve" smooth="yes"/>
			<point x="121" y="650"/>
			<point x="44" y="535"/>
			<point x="44" y="321" type="curve" smooth="yes"/>
			<point x="44" y="107"/>
			<point x="121" y="-12"/>
		</contour>
		<contour>
			<point x="249" y="54" type="curve" smooth="yes"/>
			<point x="174" y="54"/>
			<point x="124" y="134"/>
			<point x="124" y="321" type="curve" smooth="yes"/>
			<point x="124" y="508"/>
			<point x="174" y="584"/>
			<point x="249" y="584" type="curve" smooth="yes"/>
			<point x="323" y="584"/>
			<point x="373" y="508"/>
			<point x="373" y="321" type="curve" smooth="yes"/>
			<point x="373" y="134"/>
			<point x="323" y="54"/>
		</contour>
	</outline>
</glyph>
<glyph name="one" format="2">
	<unicode hex="0031"/>
	<advance width="497"/>
	<outline>
		<contour>
			<point x="79" y="0" type="line"/>
			<point x="439" y="0" type="line"/>
			<point x="439" y="68" type="line"/>
			<point x="307" y="68" type="line"/>
			<point x="307" y="638" type="line"/>
			<point x="244" y="638" type="line"/>
			<point x="209" y="617"/>
			<point x="167" y="601"/>
			<point x="109" y="591" type="curve"/>
			<point x="109" y="538" type="line"/>
			<point x="225" y="538" type="line"/>
			<point x="225" y="68" type="line"/>
			<point x="79" y="68" type="line"/>
		</contour>
	</outline>
</glyph>
<glyph name="two" format="2">
	<unicode hex="0032"/>
	<advance width="497"/>
	<outline>
		<contour>
			<point x="40" y="0" type="line"/>
			<point x="452" y="0" type="line"/>
			<point x="452" y="71" type="line"/>
			<point x="260" y="71" type="line" smooth="yes"/>
			<point x="227" y="71"/>
			<point x="188" y="68"/>
			<point x="153" y="65" type="curve"/>
			<point x="308" y="224"/>
			<point x="420" y="339"/>
			<point x="420" y="463" type="curve" smooth="yes"/>
			<point x="420" y="575"/>
			<point x="347" y="650"/>
			<point x="229" y="650" type="curve" smooth="yes"/>
			<point x="147" y="650"/>
			<point x="90" y="611"/>
			<point x="37" y="551" type="curve"/>
			<point x="83" y="506" type="line"/>
			<point x="120" y="549"/>
			<point x="166" y="583"/>
			<point x="219" y="583" type="curve" smooth="yes"/>
			<point x="300" y="583"/>
			<point x="340" y="531"/>
			<point x="340" y="458" type="curve" smooth="yes"/>
			<point x="340" y="355"/>
			<point x="231" y="237"/>
			<point x="40" y="50" type="curve"/>
		</contour>
	</outline>
</glyph>
<glyph name="three" format="2">
	<unicode hex="0033"/>
	<advance width="497"/>
	<outline>
		<contour>
			<point x="236" y="-12" type="curve" smooth="yes"/>
			<point x="353" y="-12"/>
			<point x="446" y="57"/>
			<point x="446" y="170" type="curve" smooth="yes"/>
			<point x="446" y="258"/>
			<point x="385" y="314"/>
			<point x="308" y="332" type="curve"/>
			<point x="308" y="336" type="line"/>
			<point x="377" y="362"/>
			<point x="424" y="411"/>
			<point x="424" y="488" type="curve" smooth="yes"/>
			<point x="424" y="591"/>
			<point x="344" y="650"/>
			<point x="233" y="650" type="curve" smooth="yes"/>
			<point x="158" y="650"/>
			<point x="99" y="616"/>
			<point x="50" y="570" type="curve"/>
			<point x="94" y="518" type="line"/>
			<point x="132" y="556"/>
			<point x="177" y="583"/>
			<point x="230" y="583" type="curve" smooth="yes"/>
			<point x="298" y="583"/>
			<point x="340" y="544"/>
			<point x="340" y="482" type="curve" smooth="yes"/>
			<point x="340" y="415"/>
			<point x="295" y="363"/>
			<point x="159" y="363" type="curve"/>
			<point x="159" y="300" type="line"/>
			<point x="311" y="300"/>
			<point x="363" y="249"/>
			<point x="363" y="173" type="curve" smooth="yes"/>
			<point x="363" y="102"/>
			<point x="308" y="56"/>
			<point x="231" y="56" type="curve" smooth="yes"/>
			<point x="156" y="56"/>
			<point x="106" y="92"/>
			<point x="68" y="132" type="curve"/>
			<point x="26" y="78" type="line"/>
			<point x="69" y="31"/>
			<point x="134" y="-12"/>
		</contour>
	</outline>
</glyph>
<glyph name="seven" format="2">
	<unicode hex="0037"/>
	<advance width="497"/>
	<outline>
		<contour>
			<point x="171" y="0" type="curve"/>
			<point x="256" y="0" type="line"/>
			<point x="267" y="249"/>
			<point x="301" y="393"/>
			<point x="455" y="587" type="curve"/>
			<point x="455" y="638" type="line"/>
			<point x="44" y="638" type="line"/>
			<point x="44" y="567" type="line"/>
			<point x="363" y="567" type="line"/>
			<point x="233" y="391"/>
			<point x="182" y="240"/>
		</contour>
	</outline>
</glyph>
<glyph name="eight" format="2">
	<unicode hex="0038"/>
	<advance width="497"/>
	<outline>
		<contour>
			<point x="250" y="-12" type="curve" smooth="yes"/>
			<point x="374" y="-12"/>
			<point x="456" y="63"/>
			<point x="456" y="158" type="curve" smooth="yes"/>
			<point x="456" y="244"/>
			<point x="402" y="289"/>
			<point x="345" y="322" type="curve"/>
			<point x="345" y="326" type="line"/>
			<point x="384" y="356"/>
			<point x="433" y="413"/>
			<point x="433" y="480" type="curve" smooth="yes"/>
			<point x="433" y="579"/>
			<point x="364" y="650"/>
			<point x="253" y="650" type="curve" smooth="yes"/>
			<point x="150" y="650"/>
			<point x="72" y="584"/>
			<point x="72" y="486" type="curve" smooth="yes"/>
			<point x="72" y="419"/>
			<point x="114" y="372"/>
			<point x="161" y="339" type="curve"/>
			<point x="161" y="335" type="line"/>
			<point x="101" y="303"/>
			<point x="41" y="246"/>
			<point x="41" y="163" type="curve" smooth="yes"/>
			<point x="41" y="62"/>
			<point x="130" y="-12"/>
		</contour>
		<contour>
			<point x="295" y="348" type="curve"/>
			<point x="218" y="378"/>
			<point x="148" y="410"/>
			<point x="148" y="486" type="curve" smooth="yes"/>
			<point x="148" y="548"/>
			<point x="192" y="589"/>
			<point x="251" y="589" type="curve" smooth="yes"/>
			<point x="321" y="589"/>
			<point x="362" y="539"/>
			<point x="362" y="476" type="curve" smooth="yes"/>
			<point x="362" y="429"/>
			<point x="338" y="386"/>
		</contour>
		<contour>
			<point x="252" y="49" type="curve" smooth="yes"/>
			<point x="174" y="49"/>
			<point x="115" y="100"/>
			<point x="115" y="171" type="curve" smooth="yes"/>
			<point x="115" y="229"/>
			<point x="153" y="276"/>
			<point x="204" y="310" type="curve"/>
			<point x="296" y="273"/>
			<point x="377" y="243"/>
			<point x="377" y="161" type="curve" smooth="yes"/>
			<point x="377" y="95"/>
			<point x="326" y="49"/>
		</contour>
	</outline>
</glyph>
<glyph name="C" format="2">
	<unicode hex="0043"/>
	<advance width="571"/>
	<outline>
		<contour>
			<point x="339" y="-12" type="curve" smooth="yes"/>
			<point x="424" y="-12"/>
			<point x="485" y="22"/>
			<point x="538" y="82" type="curve"/>
			<point x="495" y="130" type="line"/>
			<point x="453" y="85"/>
			<point x="406" y="61"/>
			<point x="345" y="61" type="curve" smooth="yes"/>
			<point x="218" y="61"/>
			<point x="138" y="165"/>
			<point x="138" y="330" type="curve" smooth="yes"/>
			<point x="138" y="493"/>
			<point x="221" y="595"/>
			<point x="344" y="595" type="curve" smooth="yes"/>
			<point x="398" y="595"/>
			<point x="443" y="573"/>
			<point x="478" y="536" type="curve"/>
			<point x="523" y="587" type="line"/>
			<point x="485" y="632"/>
			<point x="421" y="668"/>
			<point x="343" y="668" type="curve" smooth="yes"/>
			<point x="176" y="668"/>
			<point x="52" y="539"/>
			<point x="52" y="328" type="curve" smooth="yes"/>
			<point x="52" y="114"/>
			<point x="175" y="-12"/>
		</contour>
	</outline>
	<anchor name="aboverightUC" x="475" y="678"/>
	<anchor name="aboveUC" x="331" y="678"/>
	<anchor name="baseLC" x="344" y="0"/>
	<anchor name="belowLC" x="344" y="-22"/>
</glyph>
<glyph name="F" format="2">
	<unicode hex="0046"/>
	<advance width="494"/>
	<outline>
		<contour>
			<point x="90" y="0" type="line"/>
			<point x="173" y="0" type="line"/>
			<point x="173" y="294" type="line"/>
			<point x="423" y="294" type="line"/>
			<point x="423" y="364" type="line"/>
			<point x="173" y="364" type="line"/>
			<point x="173" y="586" type="line"/>
			<point x="468" y="586" type="line"/>
			<point x="468" y="656" type="line"/>
			<point x="90" y="656" type="line"/>
		</contour>
	</outline>
	<anchor name="aboveUC" x="286" y="678"/>
	<anchor name="belowLC" x="135" y="-22"/>
</glyph>
<glyph name="M" format="2">
	<unicode hex="004D"/>
	<advance width="727"/>
	<outline>
		<contour>
			<point x="90" y="0" type="line"/>
			<point x="166" y="0" type="line"/>
			<point x="166" y="361" type="line" smooth="yes"/>
			<point x="166" y="419"/>
			<point x="160" y="504"/>
			<point x="154" y="562" type="curve"/>
			<point x="158" y="562" type="line"/>
			<point x="209" y="404" type="line"/>
			<point x="332" y="65" type="line"/>
			<point x="393" y="65" type="line"/>
			<point x="516" y="404" type="line"/>
			<point x="567" y="562" type="line"/>
			<point x="571" y="562" type="line"/>
			<point x="566" y="504"/>
			<point x="559" y="419"/>
			<point x="559" y="361" type="curve" smooth="yes"/>
			<point x="559" y="0" type="line"/>
			<point x="637" y="0" type="line"/>
			<point x="637" y="656" type="line"/>
			<point x="533" y="656" type="line"/>
			<point x="409" y="305" type="line"/>
			<point x="393" y="260"/>
			<point x="381" y="218"/>
			<point x="367" y="169" type="curve"/>
			<point x="363" y="169" type="line"/>
			<point x="348" y="218"/>
			<point x="334" y="260"/>
			<point x="319" y="305" type="curve"/>
			<point x="195" y="656" type="line"/>
			<point x="90" y="656" type="line"/>
		</contour>
	</outline>
	<anchor name="aboveUC" x="365" y="678"/>
	<anchor name="belowLC" x="365" y="-22"/>
</glyph>
<glyph name="N" format="2">
	<unicode hex="004E"/>
	<advance width="647"/>
	<outline>
		<contour>
			<point x="90" y="0" type="line"/>
			<point x="169" y="0" type="line"/>
			<point x="169" y="343" type="line" smooth="yes"/>
			<point x="169" y="413"/>
			<point x="164" y="483"/>
			<point x="158" y="549" type="curve"/>
			<point x="162" y="549" type="line"/>
			<point x="183" y="501"/>
			<point x="208" y="452"/>
			<point x="233" y="408" type="curve" smooth="yes"/>
			<point x="466" y="0" type="line"/>
			<point x="557" y="0" type="line"/>
			<point x="557" y="656" type="line"/>
			<point x="477" y="656" type="line"/>
			<point x="477" y="315" type="line" smooth="yes"/>
			<point x="477" y="247"/>
			<point x="483" y="175"/>
			<point x="488" y="107" type="curve"/>
			<point x="484" y="107" type="line"/>
			<point x="462" y="155"/>
			<point x="439" y="204"/>
			<point x="414" y="248" type="curve" smooth="yes"/>
			<point x="181" y="656" type="line"/>
			<point x="90" y="656" type="line"/>
		</contour>
	</outline>
	<anchor name="aboveUC" x="334" y="678"/>
	<anchor name="belowLC" x="331" y="-22"/>
</glyph>
<glyph name="P" format="2">
	<unicode hex="0050"/>
	<advance width="566"/>
	<outline>
		<contour>
			<point x="90" y="0" type="line"/>
			<point x="173" y="0" type="line"/>
			<point x="173" y="260" type="line"/>
			<point x="281" y="260" type="line" smooth="yes"/>
			<point x="425" y="260"/>
			<point x="523" y="325"/>
			<point x="523" y="463" type="curve" smooth="yes"/>
			<point x="523" y="607"/>
			<point x="424" y="656"/>
			<point x="277" y="656" type="curve" smooth="yes"/>
			<point x="90" y="656" type="line"/>
		</contour>
		<contour>
			<point x="173" y="328" type="line"/>
			<point x="173" y="589" type="line"/>
			<point x="267" y="589" type="line" smooth="yes"/>
			<point x="382" y="589"/>
			<point x="440" y="558"/>
			<point x="440" y="463" type="curve" smooth="yes"/>
			<point x="440" y="370"/>
			<point x="385" y="328"/>
			<point x="271" y="328" type="curve" smooth="yes"/>
		</contour>
	</outline>
	<anchor name="aboverightUC" x="475" y="678"/>
	<anchor name="aboveUC" x="301" y="678"/>
	<anchor name="belowLC" x="137" y="-22"/>
</glyph>
<glyph name="S" format="2">
	<unicode hex="0053"/>
	<advance width="534"/>
	<outline>
		<contour>
			<point x="272" y="-12" type="curve" smooth="yes"/>
			<point x="411" y="-12"/>
			<point x="495" y="71"/>
			<point x="495" y="175" type="curve" smooth="yes"/>
			<point x="495" y="272"/>
			<point x="438" y="317"/>
			<point x="360" y="350" type="curve" smooth="yes"/>
			<point x="267" y="390" type="line" smooth="yes"/>
			<point x="215" y="412"/>
			<point x="158" y="436"/>
			<point x="158" y="499" type="curve" smooth="yes"/>
			<point x="158" y="558"/>
			<point x="207" y="595"/>
			<point x="280" y="595" type="curve" smooth="yes"/>
			<point x="338" y="595"/>
			<point x="388" y="571"/>
			<point x="429" y="535" type="curve"/>
			<point x="474" y="589" type="line"/>
			<point x="428" y="635"/>
			<point x="360" y="668"/>
			<point x="280" y="668" type="curve" smooth="yes"/>
			<point x="160" y="668"/>
			<point x="74" y="594"/>
			<point x="74" y="494" type="curve" smooth="yes"/>
			<point x="74" y="399"/>
			<point x="144" y="352"/>
			<point x="207" y="325" type="curve" smooth="yes"/>
			<point x="301" y="284" type="line" smooth="yes"/>
			<point x="363" y="256"/>
			<point x="410" y="235"/>
			<point x="410" y="168" type="curve" smooth="yes"/>
			<point x="410" y="104"/>
			<point x="359" y="61"/>
			<point x="273" y="61" type="curve" smooth="yes"/>
			<point x="203" y="61"/>
			<point x="136" y="91"/>
			<point x="89" y="140" type="curve"/>
			<point x="42" y="86" type="line"/>
			<point x="99" y="25"/>
			<point x="178" y="-12"/>
		</contour>
	</outline>
	<anchor name="aboveUC" x="280" y="678"/>
	<anchor name="baseLC" x="273" y="0"/>
	<anchor name="belowLC" x="273" y="-22"/>
</glyph>
<glyph name="backslash" format="2">
	<unicode hex="005C"/>
	<advance width="350"/>
	<outline>
		<contour>
			<point x="281" y="-160" type="line"/>
			<point x="340" y="-160" type="line"/>
			<point x="73" y="710" type="line"/>
			<point x="14" y="710" type="line"/>
		</contour>
	</outline>
</glyph>
<glyph name="r" format="2">
	<unicode hex="0072"/>
	<advance width="347"/>
	<outline>
		<contour>
			<point x="82" y="0" type="line"/>
			<point x="164" y="0" type="line"/>
			<point x="164" y="312" type="line"/>
			<point x="197" y="394"/>
			<point x="246" y="424"/>
			<point x="287" y="424" type="curve" smooth="yes"/>
			<point x="307" y="424"/>
			<point x="317" y="422"/>
			<point x="332" y="418" type="curve"/>
			<point x="350" y="488" type="line"/>
			<point x="334" y="495"/>
			<point x="319" y="498"/>
			<point x="298" y="498" type="curve" smooth="yes"/>
			<point x="242" y="498"/>
			<point x="192" y="459"/>
			<point x="160" y="398" type="curve"/>
			<point x="157" y="398" type="line"/>
			<point x="150" y="486" type="line"/>
			<point x="82" y="486" type="line"/>
		</contour>
	</outline>
	<anchor name="aboveLC" x="222" y="509"/>
	<anchor name="belowLC" x="121" y="-22"/>
	<anchor name="center" x="137" y="216"/>
</glyph>
<glyph name="t" format="2">
	<unicode hex="0074"/>
	<advance width="338"/>
	<outline>
		<contour>
			<point x="235" y="-9" type="curve" smooth="yes"/>
			<point x="268" y="-9"/>
			<point x="300" y="-1"/>
			<point x="326" y="12" type="curve"/>
			<point x="309" y="70" type="line"/>
			<point x="290" y="61"/>
			<point x="271" y="58"/>
			<point x="254" y="58" type="curve" smooth="yes"/>
			<point x="198" y="58"/>
			<point x="179" y="92"/>
			<point x="179" y="151" type="curve" smooth="yes"/>
			<point x="179" y="419" type="line"/>
			<point x="310" y="419" type="line"/>
			<point x="310" y="486" type="line"/>
			<point x="179" y="486" type="line"/>
			<point x="179" y="642" type="line"/>
			<point x="110" y="642" type="line"/>
			<point x="100" y="486" type="line"/>
			<point x="24" y="481" type="line"/>
			<point x="24" y="419" type="line"/>
			<point x="96" y="419" type="line"/>
			<point x="96" y="153" type="line" smooth="yes"/>
			<point x="96" y="56"/>
			<point x="131" y="-9"/>
		</contour>
	</outline>
	<anchor name="aboveLC" x="148" y="643"/>
	<anchor name="aboverightLC" x="304" y="509"/>
	<anchor name="baseLC" x="215" y="0"/>
	<anchor name="belowLC" x="215" y="-22"/>
	<anchor name="center" x="155" y="244"/>
</glyph>
<glyph name="cent" format="2">
	<unicode hex="00A2"/>
	<advance width="497"/>
	<outline>
		<contour>
			<point x="297" y="69" type="curve" smooth="yes"/>
			<point x="355" y="69"/>
			<point x="411" y="94"/>
			<point x="454" y="133" type="curve"/>
			<point x="418" y="185" type="line"/>
			<point x="389" y="159"/>
			<point x="350" y="138"/>
			<point x="304" y="138" type="curve" smooth="yes"/>
			<point x="204" y="138"/>
			<point x="143" y="206"/>
			<point x="143" y="310" type="curve" smooth="yes"/>
			<point x="143" y="414"/>
			<point x="208" y="482"/>
			<point x="306" y="482" type="curve" smooth="yes"/>
			<point x="344" y="482"/>
			<point x="376" y="466"/>
			<point x="405" y="440" type="curve"/>
			<point x="445" y="492" type="line"/>
			<point x="412" y="523"/>
			<point x="366" y="550"/>
			<point x="302" y="550" type="curve" smooth="yes"/>
			<point x="171" y="550"/>
			<point x="61" y="464"/>
			<point x="61" y="310" type="curve" smooth="yes"/>
			<point x="61" y="156"/>
			<point x="159" y="69"/>
		</contour>
		<contour>
			<point x="262" y="-33" type="line"/>
			<point x="314" y="-33" type="line"/>
			<point x="314" y="653" type="line"/>
			<point x="262" y="653" type="line"/>
		</contour>
	</outline>
</glyph>
<glyph name="section" format="2">
	<unicode hex="00A7"/>
	<advance width="497"/>
	<outline>
		<contour>
			<point x="236" y="-64" type="curve" smooth="yes"/>
			<point x="330" y="-64"/>
			<point x="397" y="-6"/>
			<point x="397" y="73" type="curve" smooth="yes"/>
			<point x="397" y="243"/>
			<point x="117" y="214"/>
			<point x="117" y="348" type="curve" smooth="yes"/>
			<point x="117" y="394"/>
			<point x="147" y="421"/>
			<point x="194" y="443" type="curve"/>
			<point x="155" y="484" type="line"/>
			<point x="93" y="457"/>
			<point x="45" y="410"/>
			<point x="45" y="343" type="curve" smooth="yes"/>
			<point x="45" y="158"/>
			<point x="321" y="183"/>
			<point x="321" y="69" type="curve" smooth="yes"/>
			<point x="321" y="31"/>
			<point x="289" y="0"/>
			<point x="236" y="0" type="curve" smooth="yes"/>
			<point x="183" y="0"/>
			<point x="146" y="20"/>
			<point x="113" y="52" type="curve"/>
			<point x="63" y="7" type="line"/>
			<point x="104" y="-37"/>
			<point x="165" y="-64"/>
		</contour>
		<contour>
			<point x="342" y="141" type="line"/>
			<point x="407" y="173"/>
			<point x="452" y="211"/>
			<point x="452" y="284" type="curve" smooth="yes"/>
			<point x="452" y="468"/>
			<point x="175" y="449"/>
			<point x="175" y="557" type="curve" smooth="yes"/>
			<point x="175" y="591"/>
			<point x="198" y="620"/>
			<point x="254" y="620" type="curve" smooth="yes"/>
			<point x="298" y="620"/>
			<point x="333" y="600"/>
			<point x="365" y="574" type="curve"/>
			<point x="405" y="627" type="line"/>
			<point x="367" y="658"/>
			<point x="314" y="684"/>
			<point x="251" y="684" type="curve" smooth="yes"/>
			<point x="151" y="684"/>
			<point x="99" y="623"/>
			<point x="99" y="554" type="curve" smooth="yes"/>
			<point x="99" y="387"/>
			<point x="380" y="416"/>
			<point x="380" y="278" type="curve" smooth="yes"/>
			<point x="380" y="226"/>
			<point x="350" y="204"/>
			<point x="297" y="183" type="curve"/>
		</contour>
	</outline>
</glyph>
<glyph name="copyright" format="2">
	<unicode hex="00A9"/>
	<advance width="744"/>
	<outline>
		<contour>
			<point x="372" y="-11" type="curve" smooth="yes"/>
			<point x="546" y="-11"/>
			<point x="695" y="119"/>
			<point x="695" y="323" type="curve" smooth="yes"/>
			<point x="695" y="526"/>
			<point x="546" y="653"/>
			<point x="372" y="653" type="curve" smooth="yes"/>
			<point x="198" y="653"/>
			<point x="49" y="526"/>
			<point x="49" y="323" type="curve" smooth="yes"/>
			<point x="49" y="119"/>
			<point x="198" y="-11"/>
		</contour>
		<contour>
			<point x="372" y="31" type="curve" smooth="yes"/>
			<point x="221" y="31"/>
			<point x="96" y="148"/>
			<point x="96" y="323" type="curve" smooth="yes"/>
			<point x="96" y="497"/>
			<point x="221" y="612"/>
			<point x="372" y="612" type="curve" smooth="yes"/>
			<point x="523" y="612"/>
			<point x="648" y="497"/>
			<point x="648" y="323" type="curve" smooth="yes"/>
			<point x="648" y="148"/>
			<point x="523" y="31"/>
		</contour>
		<contour>
			<point x="380" y="129" type="curve" smooth="yes"/>
			<point x="440" y="129"/>
			<point x="478" y="152"/>
			<point x="514" y="187" type="curve"/>
			<point x="482" y="227" type="line"/>
			<point x="453" y="200"/>
			<point x="429" y="184"/>
			<point x="383" y="184" type="curve" smooth="yes"/>
			<point x="311" y="184"/>
			<point x="264" y="236"/>
			<point x="264" y="320" type="curve" smooth="yes"/>
			<point x="264" y="403"/>
			<point x="314" y="460"/>
			<point x="386" y="460" type="curve" smooth="yes"/>
			<point x="421" y="460"/>
			<point x="450" y="446"/>
			<point x="473" y="420" type="curve"/>
			<point x="509" y="457" type="line"/>
			<point x="479" y="490"/>
			<point x="439" y="515"/>
			<point x="383" y="515" type="curve" smooth="yes"/>
			<point x="286" y="515"/>
			<point x="198" y="441"/>
			<point x="198" y="320" type="curve" smooth="yes"/>
			<point x="198" y="200"/>
			<point x="278" y="129"/>
		</contour>
	</outline>
</glyph>
<glyph name="Eth" format="2">
	<unicode hex="00D0"/>
	<advance width="639"/>
	<outline>
		<contour>
			<point x="27" y="313" type="line"/>
			<point x="346" y="313" type="line"/>
			<point x="346" y="378" type="line"/>
			<point x="115" y="378" type="line"/>
			<point x="27" y="373" type="line"/>
		</contour>
		<component base="D" xOffset="24"/>
	</outline>
</glyph>
<glyph name="eth" format="2">
	<unicode hex="00F0"/>
	<advance width="544"/>
	<outline>
		<contour>
			<point x="269" y="-12" type="curve" smooth="yes"/>
			<point x="399" y="-12"/>
			<point x="485" y="97"/>
			<point x="485" y="257" type="curve" smooth="yes"/>
			<point x="485" y="526"/>
			<point x="325" y="655"/>
			<point x="141" y="731" type="curve"/>
			<point x="105" y="679" type="line"/>
			<point x="288" y="600"/>
			<point x="406" y="490"/>
			<point x="406" y="254" type="curve" smooth="yes"/>
			<point x="406" y="137"/>
			<point x="361" y="56"/>
			<point x="271" y="56" type="curve" smooth="yes"/>
			<point x="195" y="56"/>
			<point x="131" y="122"/>
			<point x="131" y="222" type="curve" smooth="yes"/>
			<point x="131" y="314"/>
			<point x="182" y="383"/>
			<point x="271" y="383" type="curve" smooth="yes"/>
			<point x="318" y="383"/>
			<point x="364" y="367"/>
			<point x="409" y="302" type="curve"/>
			<point x="408" y="358" type="line"/>
			<point x="374" y="419"/>
			<point x="319" y="447"/>
			<point x="260" y="447" type="curve" smooth="yes"/>
			<point x="143" y="447"/>
			<point x="53" y="358"/>
			<point x="53" y="222" type="curve" smooth="yes"/>
			<point x="53" y="77"/>
			<point x="156" y="-12"/>
		</contour>
		<contour>
			<point x="131" y="493" type="line"/>
			<point x="466" y="665" type="line"/>
			<point x="434" y="720" type="line"/>
			<point x="102" y="548" type="line"/>
		</contour>
	</outline>
	<anchor name="aboveUC" x="287" y="728"/>
	<anchor name="belowLC" x="270" y="-22"/>
</glyph>
<glyph name="divide" format="2">
	<unicode hex="00F7"/>
	<advance width="497"/>
	<outline>
		<contour>
			<point x="34" y="299" type="line"/>
			<point x="463" y="299" type="line"/>
			<point x="463" y="361" type="line"/>
			<point x="34" y="361" type="line"/>
		</contour>
		<contour>
			<point x="249" y="96" type="curve" smooth="yes"/>
			<point x="279" y="96"/>
			<point x="303" y="118"/>
			<point x="303" y="150" type="curve" smooth="yes"/>
			<point x="303" y="181"/>
			<point x="279" y="203"/>
			<point x="249" y="203" type="curve" smooth="yes"/>
			<point x="218" y="203"/>
			<point x="194" y="181"/>
			<point x="194" y="150" type="curve" smooth="yes"/>
			<point x="194" y="118"/>
			<point x="218" y="96"/>
		</contour>
		<contour>
			<point x="249" y="456" type="curve" smooth="yes"/>
			<point x="279" y="456"/>
			<point x="303" y="478"/>
			<point x="303" y="510" type="curve" smooth="yes"/>
			<point x="303" y="541"/>
			<point x="279" y="563"/>
			<point x="249" y="563" type="curve" smooth="yes"/>
			<point x="218" y="563"/>
			<point x="194" y="541"/>
			<point x="194" y="510" type="curve" smooth="yes"/>
			<point x="194" y="478"/>
			<point x="218" y="456"/>
		</contour>
	</outline>
</glyph>
<glyph name="Hbar" format="2">
	<unicode hex="0126"/>
	<advance width="692"/>
	<outline>
		<contour>
			<point x="22" y="484" type="line"/>
			<point x="667" y="484" type="line"/>
			<point x="667" y="549" type="line"/>
			<point x="113" y="549" type="line"/>
			<point x="22" y="543" type="line"/>
		</contour>
		<component base="H" xOffset="20"/>
	</outline>
</glyph>
<glyph name="hbar" format="2">
	<unicode hex="0127"/>
	<advance width="557"/>
	<outline>
		<contour>
			<point x="95" y="0" type="line"/>
			<point x="177" y="0" type="line"/>
			<point x="177" y="313" type="line"/>
			<point x="225" y="362"/>
			<point x="261" y="388"/>
			<point x="310" y="388" type="curve" smooth="yes"/>
			<point x="374" y="388"/>
			<point x="402" y="349"/>
			<point x="402" y="259" type="curve" smooth="yes"/>
			<point x="402" y="0" type="line"/>
			<point x="484" y="0" type="line"/>
			<point x="484" y="270" type="line" smooth="yes"/>
			<point x="484" y="394"/>
			<point x="438" y="459"/>
			<point x="335" y="459" type="curve" smooth="yes"/>
			<point x="269" y="459"/>
			<point x="220" y="424"/>
			<point x="174" y="379" type="curve"/>
			<point x="177" y="480" type="line"/>
			<point x="177" y="712" type="line"/>
			<point x="95" y="712" type="line"/>
		</contour>
		<contour>
			<point x="11" y="557" type="line"/>
			<point x="359" y="557" type="line"/>
			<point x="359" y="622" type="line"/>
			<point x="98" y="622" type="line"/>
			<point x="11" y="617" type="line"/>
		</contour>
	</outline>
</glyph>
<glyph name="lslash" format="2">
	<unicode hex="0142"/>
	<advance width="298"/>
	<outline>
		<contour>
			<point x="23" y="312" type="line"/>
			<point x="115" y="357" type="line"/>
			<point x="177" y="385" type="line"/>
			<point x="299" y="441" type="line"/>
			<point x="267" y="503" type="line"/>
			<point x="172" y="457" type="line"/>
			<point x="110" y="429" type="line"/>
			<point x="-9" y="374" type="line"/>
		</contour>
		<component base="l" xOffset="21"/>
	</outline>
	<anchor name="aboveUC" x="146" y="728"/>
	<anchor name="belowLC" x="166" y="-22"/>
</glyph>
<glyph name="Eng" format="2">
	<unicode hex="014A"/>
	<advance width="635"/>
	<outline>
		<contour>
			<point x="406" y="-12" type="curve" smooth="yes"/>
			<point x="513" y="-12"/>
			<point x="583" y="83"/>
			<point x="583" y="335" type="curve" smooth="yes"/>
			<point x="583" y="580"/>
			<point x="486" y="668"/>
			<point x="356" y="668" type="curve" smooth="yes"/>
			<point x="287" y="668"/>
			<point x="218" y="628"/>
			<point x="171" y="575" type="curve"/>
			<point x="171" y="656" type="line"/>
			<point x="90" y="656" type="line"/>
			<point x="90" y="0" type="line"/>
			<point x="173" y="0" type="line"/>
			<point x="173" y="497" type="line"/>
			<point x="213" y="554"/>
			<point x="283" y="595"/>
			<point x="335" y="595" type="curve" smooth="yes"/>
			<point x="432" y="595"/>
			<point x="497" y="532"/>
			<point x="497" y="335" type="curve" smooth="yes"/>
			<point x="497" y="127"/>
			<point x="452" y="67"/>
			<point x="398" y="67" type="curve" smooth="yes"/>
			<point x="377" y="67"/>
			<point x="362" y="70"/>
			<point x="348" y="77" type="curve"/>
			<point x="328" y="3" type="line"/>
			<point x="346" y="-7"/>
			<point x="381" y="-12"/>
		</contour>
	</outline>
	<anchor name="aboveUC" x="345" y="678"/>
	<anchor name="belowLC" x="317" y="-22"/>
</glyph>
<glyph name="oe" format="2">
	<unicode hex="0153"/>
	<advance width="839"/>
	<outline>
		<contour>
			<point x="263" y="-12" type="curve" smooth="yes"/>
			<point x="344" y="-12"/>
			<point x="406" y="29"/>
			<point x="443" y="109" type="curve"/>
			<point x="480" y="33"/>
			<point x="547" y="-12"/>
			<point x="628" y="-12" type="curve" smooth="yes"/>
			<point x="686" y="-12"/>
			<point x="741" y="9"/>
			<point x="782" y="38" type="curve"/>
			<point x="752" y="92" type="line"/>
			<point x="719" y="70"/>
			<point x="677" y="55"/>
			<point x="631" y="55" type="curve" smooth="yes"/>
			<point x="550" y="55"/>
			<point x="486" y="122"/>
			<point x="481" y="221" type="curve"/>
			<point x="799" y="221" type="line"/>
			<point x="801" y="234"/>
			<point x="802" y="250"/>
			<point x="802" y="269" type="curve" smooth="yes"/>
			<point x="802" y="407"/>
			<point x="733" y="498"/>
			<point x="612" y="498" type="curve"/>
			<point x="539" y="498"/>
			<point x="476" y="453"/>
			<point x="442" y="377" type="curve"/>
			<point x="409" y="455"/>
			<point x="341" y="498"/>
			<point x="263" y="498" type="curve" smooth="yes"/>
			<point x="148" y="498"/>
			<point x="45" y="404"/>
			<point x="45" y="242" type="curve" smooth="yes"/>
			<point x="45" y="81"/>
			<point x="146" y="-12"/>
		</contour>
		<contour>
			<point x="266" y="58" type="curve" smooth="yes"/>
			<point x="185" y="58"/>
			<point x="130" y="132"/>
			<point x="130" y="242" type="curve" smooth="yes"/>
			<point x="130" y="354"/>
			<point x="185" y="429"/>
			<point x="266" y="429" type="curve" smooth="yes"/>
			<point x="347" y="429"/>
			<point x="401" y="354"/>
			<point x="401" y="242" type="curve" smooth="yes"/>
			<point x="401" y="132"/>
			<point x="347" y="58"/>
		</contour>
		<contour>
			<point x="481" y="285" type="line"/>
			<point x="490" y="371"/>
			<point x="545" y="431"/>
			<point x="609" y="431" type="curve" smooth="yes"/>
			<point x="684" y="431"/>
			<point x="728" y="379"/>
			<point x="728" y="285" type="curve"/>
		</contour>
	</outline>
	<anchor name="aboveLC" x="443" y="509"/>
	<anchor name="belowLC" x="443" y="-22"/>
</glyph>
<glyph name="Tbar" format="2">
	<unicode hex="0166"/>
	<advance width="536"/>
	<outline>
		<contour>
			<point x="103" y="303" type="line"/>
			<point x="433" y="303" type="line"/>
			<point x="433" y="368" type="line"/>
			<point x="191" y="368" type="line"/>
			<point x="103" y="364" type="line"/>
		</contour>
		<component base="T"/>
	</outline>
	<anchor name="aboveUC" x="267" y="678"/>
	<anchor name="belowLC" x="267" y="-22"/>
</glyph>
<glyph name="Uogonek" format="2">
	<unicode hex="0172"/>
	<advance width="645"/>
	<outline>
		<contour>
			<point x="336" y="-219" type="curve" smooth="yes"/>
			<point x="370" y="-219"/>
			<point x="405" y="-204"/>
			<point x="426" y="-187" type="curve"/>
			<point x="403" y="-140" type="line"/>
			<point x="388" y="-151"/>
			<point x="372" y="-157"/>
			<point x="352" y="-157" type="curve" smooth="yes"/>
			<point x="324" y="-157"/>
			<point x="299" y="-142"/>
			<point x="299" y="-107" type="curve" smooth="yes"/>
			<point x="299" y="-67"/>
			<point x="332" y="-20"/>
			<point x="378" y="-9" type="curve" smooth="yes"/>
			<point x="494" y="19"/>
			<point x="558" y="99"/>
			<point x="558" y="271" type="curve" smooth="yes"/>
			<point x="558" y="656" type="line"/>
			<point x="478" y="656" type="line"/>
			<point x="478" y="269" type="line" smooth="yes"/>
			<point x="478" y="110"/>
			<point x="410" y="60"/>
			<point x="323" y="60" type="curve" smooth="yes"/>
			<point x="237" y="60"/>
			<point x="170" y="110"/>
			<point x="170" y="269" type="curve" smooth="yes"/>
			<point x="170" y="656" type="line"/>
			<point x="87" y="656" type="line"/>
			<point x="87" y="271" type="line" smooth="yes"/>
			<point x="87" y="60"/>
			<point x="189" y="-12"/>
			<point x="323" y="-12" type="curve"/>
			<point x="308" y="3" type="line"/>
			<point x="270" y="-25"/>
			<point x="231" y="-73"/>
			<point x="231" y="-127" type="curve" smooth="yes"/>
			<point x="231" y="-189"/>
			<point x="278" y="-219"/>
		</contour>
	</outline>
	<anchor name="aboveUC" x="322" y="678"/>
</glyph>
<glyph name="uogonek" format="2">
	<unicode hex="0173"/>
	<advance width="544"/>
	<outline>
		<contour>
			<point x="417" y="-215" type="curve" smooth="yes"/>
			<point x="450" y="-215"/>
			<point x="483" y="-201"/>
			<point x="504" y="-184" type="curve"/>
			<point x="483" y="-139" type="line"/>
			<point x="467" y="-150"/>
			<point x="452" y="-156"/>
			<point x="432" y="-156" type="curve" smooth="yes"/>
			<point x="406" y="-156"/>
			<point x="381" y="-141"/>
			<point x="381" y="-106" type="curve" smooth="yes"/>
			<point x="381" y="-69"/>
			<point x="412" y="-23"/>
			<point x="462" y="0" type="curve"/>
			<point x="462" y="486" type="line"/>
			<point x="380" y="486" type="line"/>
			<point x="380" y="141" type="line"/>
			<point x="334" y="84"/>
			<point x="299" y="59"/>
			<point x="249" y="59" type="curve" smooth="yes"/>
			<point x="184" y="59"/>
			<point x="158" y="98"/>
			<point x="158" y="189" type="curve" smooth="yes"/>
			<point x="158" y="486" type="line"/>
			<point x="75" y="486" type="line"/>
			<point x="75" y="178" type="line" smooth="yes"/>
			<point x="75" y="54"/>
			<point x="121" y="-12"/>
			<point x="224" y="-12" type="curve" smooth="yes"/>
			<point x="291" y="-12"/>
			<point x="339" y="23"/>
			<point x="384" y="76" type="curve"/>
			<point x="387" y="76" type="line"/>
			<point x="395" y="4" type="line"/>
			<point x="357" y="-22"/>
			<point x="317" y="-69"/>
			<point x="317" y="-122" type="curve" smooth="yes"/>
			<point x="317" y="-186"/>
			<point x="361" y="-215"/>
		</contour>
	</outline>
	<anchor name="aboveLC" x="267" y="502"/>
</glyph>
<glyph name="Schwa" format="2">
	<unicode hex="018F"/>
	<advance width="648"/>
	<outline>
		<contour>
			<point x="327" y="-12" type="curve" smooth="yes"/>
			<point x="490" y="-12"/>
			<point x="596" y="104"/>
			<point x="596" y="330" type="curve" smooth="yes"/>
			<point x="596" y="548"/>
			<point x="492" y="668"/>
			<point x="325" y="668" type="curve" smooth="yes"/>
			<point x="225" y="668"/>
			<point x="152" y="630"/>
			<point x="97" y="578" type="curve"/>
			<point x="141" y="528" type="line"/>
			<point x="187" y="570"/>
			<point x="245" y="599"/>
			<point x="322" y="599" type="curve" smooth="yes"/>
			<point x="443" y="599"/>
			<point x="514" y="504"/>
			<point x="514" y="330" type="curve" smooth="yes"/>
			<point x="514" y="148"/>
			<point x="443" y="57"/>
			<point x="327" y="57" type="curve" smooth="yes"/>
			<point x="220" y="57"/>
			<point x="144" y="137"/>
			<point x="142" y="287" type="curve"/>
			<point x="532" y="287" type="line"/>
			<point x="532" y="350" type="line"/>
			<point x="60" y="350" type="line"/>
			<point x="59" y="340"/>
			<point x="58" y="328"/>
			<point x="58" y="318" type="curve" smooth="yes"/>
			<point x="58" y="103"/>
			<point x="163" y="-12"/>
		</contour>
	</outline>
	<anchor name="aboveUC" x="331" y="678"/>
	<anchor name="belowLC" x="327" y="-22"/>
</glyph>
<glyph name="Eopen" format="2">
	<unicode hex="0190"/>
	<advance width="543"/>
	<outline>
		<contour>
			<point x="291" y="-12" type="curve" smooth="yes"/>
			<point x="390" y="-12"/>
			<point x="452" y="15"/>
			<point x="512" y="79" type="curve"/>
			<point x="469" y="129" type="line"/>
			<point x="417" y="79"/>
			<point x="368" y="61"/>
			<point x="297" y="61" type="curve" smooth="yes"/>
			<point x="201" y="61"/>
			<point x="124" y="108"/>
			<point x="124" y="190" type="curve" smooth="yes"/>
			<point x="124" y="275"/>
			<point x="189" y="313"/>
			<point x="301" y="313" type="curve" smooth="yes"/>
			<point x="375" y="313" type="line"/>
			<point x="375" y="377" type="line"/>
			<point x="316" y="377" type="line" smooth="yes"/>
			<point x="206" y="377"/>
			<point x="159" y="416"/>
			<point x="159" y="490" type="curve" smooth="yes"/>
			<point x="159" y="559"/>
			<point x="216" y="595"/>
			<point x="295" y="595" type="curve" smooth="yes"/>
			<point x="353" y="595"/>
			<point x="404" y="573"/>
			<point x="442" y="537" type="curve"/>
			<point x="482" y="590" type="line"/>
			<point x="437" y="635"/>
			<point x="368" y="668"/>
			<point x="293" y="668" type="curve" smooth="yes"/>
			<point x="173" y="668"/>
			<point x="77" y="609"/>
			<point x="77" y="502" type="curve" smooth="yes"/>
			<point x="77" y="429"/>
			<point x="116" y="377"/>
			<point x="178" y="352" type="curve"/>
			<point x="178" y="348" type="line"/>
			<point x="103" y="332"/>
			<point x="42" y="277"/>
			<point x="42" y="186" type="curve" smooth="yes"/>
			<point x="42" y="59"/>
			<point x="149" y="-12"/>
		</contour>
	</outline>
	<anchor name="aboveUC" x="284" y="678"/>
	<anchor name="baseLC" x="284" y="0"/>
	<anchor name="belowLC" x="284" y="-22"/>
	<anchor name="ogonekUC" x="290" y="0"/>
</glyph>
<glyph name="Ezh" format="2">
	<unicode hex="01B7"/>
	<advance width="550"/>
	<outline>
		<contour>
			<point x="281" y="-12" type="curve" smooth="yes"/>
			<point x="405" y="-12"/>
			<point x="510" y="62"/>
			<point x="510" y="195" type="curve" smooth="yes"/>
			<point x="510" y="309"/>
			<point x="424" y="383"/>
			<point x="284" y="373" type="curve"/>
			<point x="497" y="604" type="line"/>
			<point x="497" y="656" type="line"/>
			<point x="79" y="656" type="line"/>
			<point x="79" y="586" type="line"/>
			<point x="389" y="586" type="line"/>
			<point x="169" y="353" type="line"/>
			<point x="202" y="303" type="line"/>
			<point x="229" y="314"/>
			<point x="246" y="317"/>
			<point x="285" y="317" type="curve" smooth="yes"/>
			<point x="368" y="317"/>
			<point x="428" y="272"/>
			<point x="428" y="192" type="curve" smooth="yes"/>
			<point x="428" y="107"/>
			<point x="359" y="61"/>
			<point x="273" y="61" type="curve" smooth="yes"/>
			<point x="201" y="61"/>
			<point x="140" y="79"/>
			<point x="84" y="137" type="curve"/>
			<point x="38" y="85" type="line"/>
			<point x="104" y="13"/>
			<point x="179" y="-12"/>
		</contour>
	</outline>
	<anchor name="aboveUC" x="286" y="678"/>
	<anchor name="belowLC" x="280" y="-22"/>
</glyph>
<glyph name="Gstroke" format="2">
	<unicode hex="01E4"/>
	<advance width="660"/>
	<outline>
		<contour>
			<point x="348" y="-12" type="curve" smooth="yes"/>
			<point x="436" y="-12"/>
			<point x="508" y="20"/>
			<point x="551" y="64" type="curve"/>
			<point x="551" y="340" type="line"/>
			<point x="474" y="340" type="line"/>
			<point x="474" y="100" type="line"/>
			<point x="448" y="75"/>
			<point x="403" y="62"/>
			<point x="356" y="62" type="curve" smooth="yes"/>
			<point x="216" y="62"/>
			<point x="138" y="165"/>
			<point x="138" y="330" type="curve" smooth="yes"/>
			<point x="138" y="493"/>
			<point x="223" y="595"/>
			<point x="355" y="595" type="curve" smooth="yes"/>
			<point x="421" y="595"/>
			<point x="463" y="570"/>
			<point x="496" y="535" type="curve"/>
			<point x="542" y="587" type="line"/>
			<point x="504" y="628"/>
			<point x="444" y="668"/>
			<point x="353" y="668" type="curve" smooth="yes"/>
			<point x="179" y="668"/>
			<point x="52" y="539"/>
			<point x="52" y="328" type="curve" smooth="yes"/>
			<point x="52" y="114"/>
			<point x="175" y="-12"/>
		</contour>
		<contour>
			<point x="335" y="192" type="line"/>
			<point x="635" y="192" type="line"/>
			<point x="635" y="257" type="line"/>
			<point x="478" y="257" type="line"/>
			<point x="335" y="252" type="line"/>
		</contour>
	</outline>
	<anchor name="aboveUC" x="351" y="678"/>
	<anchor name="belowLC" x="351" y="-22"/>
	<guideline x="335" y="248" angle="90" identifier="LLk1mopjqD"/>
</glyph>
<glyph name="Wynn" format="2">
	<unicode hex="01F7"/>
	<advance width="566"/>
	<outline>
		<contour>
			<point x="90" y="-153" type="line"/>
			<point x="173" y="-153" type="line"/>
			<point x="173" y="-2" type="line"/>
			<point x="435" y="144"/>
			<point x="523" y="304"/>
			<point x="523" y="458" type="curve" smooth="yes"/>
			<point x="523" y="609"/>
			<point x="452" y="668"/>
			<point x="349" y="668" type="curve" smooth="yes"/>
			<point x="280" y="668"/>
			<point x="218" y="626"/>
			<point x="171" y="575" type="curve"/>
			<point x="171" y="656" type="line"/>
			<point x="90" y="656" type="line"/>
		</contour>
		<contour>
			<point x="173" y="74" type="curve"/>
			<point x="173" y="497" type="line"/>
			<point x="213" y="552"/>
			<point x="277" y="595"/>
			<point x="328" y="595" type="curve" smooth="yes"/>
			<point x="393" y="595"/>
			<point x="440" y="559"/>
			<point x="440" y="452" type="curve" smooth="yes"/>
			<point x="440" y="333"/>
			<point x="380" y="206"/>
		</contour>
	</outline>
	<anchor name="aboveUC" x="315" y="678"/>
	<anchor name="belowLC" x="138" y="-157"/>
</glyph>
<glyph name="Yogh" format="2">
	<unicode hex="021C"/>
	<advance width="497"/>
	<outline>
		<contour>
			<point x="108" y="-165" type="line"/>
			<point x="350" y="-65"/>
			<point x="456" y="37"/>
			<point x="456" y="175" type="curve" smooth="yes"/>
			<point x="456" y="276"/>
			<point x="385" y="332"/>
			<point x="281" y="327" type="curve"/>
			<point x="372" y="387"/>
			<point x="416" y="443"/>
			<point x="416" y="523" type="curve" smooth="yes"/>
			<point x="416" y="611"/>
			<point x="352" y="668"/>
			<point x="254" y="668" type="curve" smooth="yes"/>
			<point x="159" y="668"/>
			<point x="98" y="631"/>
			<point x="25" y="555" type="curve"/>
			<point x="67" y="507" type="line"/>
			<point x="129" y="566"/>
			<point x="173" y="595"/>
			<point x="239" y="595" type="curve" smooth="yes"/>
			<point x="295" y="595"/>
			<point x="332" y="560"/>
			<point x="332" y="502" type="curve" smooth="yes"/>
			<point x="332" y="437"/>
			<point x="296" y="388"/>
			<point x="118" y="287" type="curve"/>
			<point x="148" y="236" type="line"/>
			<point x="194" y="262"/>
			<point x="227" y="268"/>
			<point x="264" y="268" type="curve" smooth="yes"/>
			<point x="329" y="268"/>
			<point x="372" y="230"/>
			<point x="372" y="165" type="curve" smooth="yes"/>
			<point x="372" y="83"/>
			<point x="295" y="-9"/>
			<point x="76" y="-104" type="curve"/>
		</contour>
	</outline>
	<anchor name="aboveUC" x="247" y="678"/>
	<anchor name="belowLC" x="258" y="-157"/>
</glyph>
<glyph name="OU" format="2">
	<unicode hex="0222"/>
	<advance width="664"/>
	<outline>
		<contour>
			<point x="332" y="-12" type="curve" smooth="yes"/>
			<point x="496" y="-12"/>
			<point x="613" y="65"/>
			<point x="613" y="201" type="curve" smooth="yes"/>
			<point x="613" y="315"/>
			<point x="526" y="380"/>
			<point x="413" y="398" type="curve"/>
			<point x="413" y="375" type="line"/>
			<point x="527" y="402"/>
			<point x="568" y="472"/>
			<point x="568" y="581" type="curve" smooth="yes"/>
			<point x="568" y="656" type="line"/>
			<point x="488" y="656" type="line"/>
			<point x="488" y="590" type="line" smooth="yes"/>
			<point x="488" y="460"/>
			<point x="419" y="418"/>
			<point x="332" y="418" type="curve" smooth="yes"/>
			<point x="246" y="418"/>
			<point x="180" y="460"/>
			<point x="180" y="590" type="curve" smooth="yes"/>
			<point x="180" y="656" type="line"/>
			<point x="96" y="656" type="line"/>
			<point x="96" y="581" type="line" smooth="yes"/>
			<point x="96" y="472"/>
			<point x="137" y="402"/>
			<point x="251" y="375" type="curve"/>
			<point x="251" y="398" type="line"/>
			<point x="138" y="380"/>
			<point x="52" y="315"/>
			<point x="52" y="201" type="curve" smooth="yes"/>
			<point x="52" y="65"/>
			<point x="169" y="-12"/>
		</contour>
		<contour>
			<point x="332" y="61" type="curve" smooth="yes"/>
			<point x="220" y="61"/>
			<point x="138" y="110"/>
			<point x="138" y="206" type="curve" smooth="yes"/>
			<point x="138" y="301"/>
			<point x="220" y="349"/>
			<point x="332" y="349" type="curve" smooth="yes"/>
			<point x="444" y="349"/>
			<point x="526" y="301"/>
			<point x="526" y="206" type="curve" smooth="yes"/>
			<point x="526" y="110"/>
			<point x="444" y="61"/>
		</contour>
	</outline>
	<anchor name="aboveUC" x="332" y="678"/>
	<anchor name="belowLC" x="332" y="-22"/>
</glyph>
<glyph name="ou" format="2">
	<unicode hex="0223"/>
	<advance width="536"/>
	<outline>
		<contour>
			<point x="272" y="56" type="curve" smooth="yes"/>
			<point x="188" y="56"/>
			<point x="125" y="114"/>
			<point x="125" y="197" type="curve" smooth="yes"/>
			<point x="125" y="270"/>
			<point x="163" y="329"/>
			<point x="240" y="369" type="curve"/>
			<point x="345" y="330"/>
			<point x="408" y="284"/>
			<point x="408" y="187" type="curve" smooth="yes"/>
			<point x="408" y="111"/>
			<point x="353" y="56"/>
		</contour>
		<contour>
			<point x="270" y="-12" type="curve" smooth="yes"/>
			<point x="404" y="-12"/>
			<point x="493" y="71"/>
			<point x="493" y="190" type="curve" smooth="yes"/>
			<point x="493" y="300"/>
			<point x="427" y="363"/>
			<point x="356" y="399" type="curve"/>
			<point x="356" y="403" type="line"/>
			<point x="415" y="441"/>
			<point x="467" y="505"/>
			<point x="467" y="591" type="curve" smooth="yes"/>
			<point x="467" y="637"/>
			<point x="457" y="672"/>
			<point x="430" y="715" type="curve"/>
			<point x="365" y="690" type="line"/>
			<point x="384" y="659"/>
			<point x="392" y="624"/>
			<point x="392" y="588" type="curve" smooth="yes"/>
			<point x="392" y="525"/>
			<point x="362" y="470"/>
			<point x="300" y="426" type="curve"/>
			<point x="217" y="461"/>
			<point x="151" y="503"/>
			<point x="151" y="594" type="curve" smooth="yes"/>
			<point x="151" y="637"/>
			<point x="159" y="669"/>
			<point x="178" y="702" type="curve"/>
			<point x="108" y="724" type="line"/>
			<point x="82" y="685"/>
			<point x="70" y="647"/>
			<point x="70" y="589" type="curve" smooth="yes"/>
			<point x="70" y="505"/>
			<point x="117" y="445"/>
			<point x="189" y="401" type="curve"/>
			<point x="189" y="397" type="line"/>
			<point x="104" y="365"/>
			<point x="43" y="291"/>
			<point x="43" y="192" type="curve" smooth="yes"/>
			<point x="43" y="72"/>
			<point x="140" y="-12"/>
		</contour>
	</outline>
	<anchor name="aboveUC" x="267" y="728"/>
	<anchor name="belowLC" x="267" y="-22"/>
</glyph>
<glyph name="Astroke" format="2">
	<unicode hex="023A"/>
	<advance width="543"/>
	<outline>
		<contour>
			<point x="179" y="-51" type="line"/>
			<point x="401" y="696" type="line"/>
			<point x="363" y="706" type="line"/>
			<point x="141" y="-41" type="line"/>
		</contour>
		<component base="A"/>
	</outline>
	<anchor name="aboveUC" x="271" y="678"/>
	<anchor name="belowLC" x="271" y="-22"/>
</glyph>
<glyph name="cstroke" format="2">
	<unicode hex="023C"/>
	<advance width="456"/>
	<outline>
		<contour>
			<point x="168" y="-51" type="line"/>
			<point x="405" y="528" type="line"/>
			<point x="366" y="540" type="line"/>
			<point x="130" y="-39" type="line"/>
		</contour>
		<component base="c"/>
	</outline>
	<anchor name="aboveLC" x="274" y="509"/>
	<anchor name="belowLC" x="266" y="-22"/>
</glyph>
<glyph name="Bstroke" format="2">
	<unicode hex="0243"/>
	<advance width="605"/>
	<outline>
		<contour>
			<point x="110" y="0" type="line"/>
			<point x="319" y="0" type="line" smooth="yes"/>
			<point x="465" y="0"/>
			<point x="568" y="64"/>
			<point x="568" y="196" type="curve" smooth="yes"/>
			<point x="568" y="288"/>
			<point x="512" y="340"/>
			<point x="416" y="356" type="curve"/>
			<point x="416" y="360" type="line"/>
			<point x="493" y="380"/>
			<point x="531" y="434"/>
			<point x="531" y="498" type="curve" smooth="yes"/>
			<point x="531" y="610"/>
			<point x="439" y="656"/>
			<point x="304" y="656" type="curve" smooth="yes"/>
			<point x="110" y="656" type="line"/>
		</contour>
		<contour>
			<point x="193" y="383" type="line"/>
			<point x="193" y="590" type="line"/>
			<point x="294" y="590" type="line" smooth="yes"/>
			<point x="395" y="590"/>
			<point x="449" y="563"/>
			<point x="449" y="492" type="curve" smooth="yes"/>
			<point x="449" y="419"/>
			<point x="401" y="383"/>
			<point x="290" y="383" type="curve" smooth="yes"/>
		</contour>
		<contour>
			<point x="193" y="66" type="line"/>
			<point x="193" y="321" type="line"/>
			<point x="307" y="321" type="line" smooth="yes"/>
			<point x="422" y="321"/>
			<point x="487" y="285"/>
			<point x="487" y="200" type="curve" smooth="yes"/>
			<point x="487" y="107"/>
			<point x="419" y="66"/>
			<point x="307" y="66" type="curve" smooth="yes"/>
		</contour>
		<contour>
			<point x="22" y="168" type="line"/>
			<point x="345" y="168" type="line"/>
			<point x="345" y="232" type="line"/>
			<point x="111" y="232" type="line"/>
			<point x="22" y="227" type="line"/>
		</contour>
	</outline>
</glyph>
<glyph name="Jstroke" format="2">
	<unicode hex="0248"/>
	<advance width="499"/>
	<outline>
		<contour>
			<point x="172" y="328" type="line"/>
			<point x="476" y="328" type="line"/>
			<point x="476" y="393" type="line"/>
			<point x="267" y="393" type="line"/>
			<point x="172" y="388" type="line"/>
		</contour>
		<component base="J"/>
	</outline>
	<anchor name="aboveUC" x="346" y="678"/>
	<anchor name="belowLC" x="251" y="-22"/>
</glyph>
<glyph name="aturned" format="2">
	<unicode hex="0250"/>
	<advance width="504"/>
	<outline>
		<contour>
			<point x="268" y="-12" type="curve" smooth="yes"/>
			<point x="336" y="-12"/>
			<point x="403" y="21"/>
			<point x="448" y="51" type="curve"/>
			<point x="416" y="106" type="line"/>
			<point x="378" y="82"/>
			<point x="328" y="56"/>
			<point x="278" y="56" type="curve" smooth="yes"/>
			<point x="181" y="56"/>
			<point x="155" y="119"/>
			<point x="154" y="178" type="curve"/>
			<point x="362" y="202"/>
			<point x="453" y="260"/>
			<point x="453" y="372" type="curve" smooth="yes"/>
			<point x="453" y="453"/>
			<point x="398" y="498"/>
			<point x="321" y="498" type="curve" smooth="yes"/>
			<point x="256" y="498"/>
			<point x="197" y="467"/>
			<point x="150" y="418" type="curve"/>
			<point x="147" y="418" type="line"/>
			<point x="140" y="486" type="line"/>
			<point x="72" y="486" type="line"/>
			<point x="72" y="196" type="line" smooth="yes"/>
			<point x="72" y="71"/>
			<point x="129" y="-12"/>
		</contour>
		<contour>
			<point x="154" y="237" type="curve"/>
			<point x="154" y="355" type="line"/>
			<point x="205" y="408"/>
			<point x="250" y="431"/>
			<point x="295" y="431" type="curve" smooth="yes"/>
			<point x="338" y="431"/>
			<point x="372" y="411"/>
			<point x="372" y="360" type="curve" smooth="yes"/>
			<point x="372" y="297"/>
			<point x="317" y="258"/>
		</contour>
	</outline>
	<anchor name="aboveLC" x="277" y="509"/>
	<anchor name="belowLC" x="267" y="-22"/>
	<anchor name="ogonekLC" x="267" y="0"/>
</glyph>
<glyph name="alphalatin" format="2">
	<unicode hex="0251"/>
	<advance width="560"/>
	<outline>
		<contour>
			<point x="248" y="-12" type="curve" smooth="yes"/>
			<point x="308" y="-12"/>
			<point x="360" y="22"/>
			<point x="397" y="60" type="curve"/>
			<point x="400" y="60" type="line"/>
			<point x="408" y="11"/>
			<point x="434" y="-9"/>
			<point x="477" y="-9" type="curve" smooth="yes"/>
			<point x="496" y="-9"/>
			<point x="512" y="-4"/>
			<point x="521" y="-1" type="curve"/>
			<point x="510" y="61" type="line"/>
			<point x="503" y="59"/>
			<point x="499" y="59"/>
			<point x="495" y="59" type="curve" smooth="yes"/>
			<point x="483" y="59"/>
			<point x="473" y="69"/>
			<point x="473" y="94" type="curve" smooth="yes"/>
			<point x="473" y="486" type="line"/>
			<point x="406" y="486" type="line"/>
			<point x="399" y="439" type="line"/>
			<point x="397" y="439" type="line"/>
			<point x="353" y="478"/>
			<point x="313" y="498"/>
			<point x="259" y="498" type="curve" smooth="yes"/>
			<point x="147" y="498"/>
			<point x="47" y="400"/>
			<point x="47" y="242" type="curve" smooth="yes"/>
			<point x="47" y="80"/>
			<point x="126" y="-12"/>
		</contour>
		<contour>
			<point x="266" y="57" type="curve" smooth="yes"/>
			<point x="181" y="57"/>
			<point x="132" y="127"/>
			<point x="132" y="243" type="curve" smooth="yes"/>
			<point x="132" y="354"/>
			<point x="194" y="429"/>
			<point x="272" y="429" type="curve" smooth="yes"/>
			<point x="312" y="429"/>
			<point x="349" y="415"/>
			<point x="390" y="378" type="curve"/>
			<point x="390" y="124" type="line"/>
			<point x="350" y="79"/>
			<point x="311" y="57"/>
		</contour>
	</outline>
	<anchor name="aboveLC" x="277" y="509"/>
	<anchor name="belowLC" x="281" y="-22"/>
</glyph>
<glyph name="ereversed" format="2">
	<unicode hex="0258"/>
	<advance width="496"/>
	<outline>
		<contour>
			<point x="226" y="-12" type="curve" smooth="yes"/>
			<point x="351" y="-12"/>
			<point x="450" y="82"/>
			<point x="450" y="243" type="curve" smooth="yes"/>
			<point x="450" y="401"/>
			<point x="351" y="498"/>
			<point x="242" y="498" type="curve" smooth="yes"/>
			<point x="111" y="498"/>
			<point x="37" y="408"/>
			<point x="37" y="270" type="curve" smooth="yes"/>
			<point x="37" y="253"/>
			<point x="38" y="237"/>
			<point x="41" y="221" type="curve"/>
			<point x="391" y="221" type="line"/>
			<point x="391" y="286" type="line"/>
			<point x="111" y="286" type="line"/>
			<point x="111" y="380"/>
			<point x="159" y="431"/>
			<point x="241" y="431" type="curve" smooth="yes"/>
			<point x="304" y="431"/>
			<point x="367" y="379"/>
			<point x="367" y="244" type="curve" smooth="yes"/>
			<point x="367" y="120"/>
			<point x="299" y="55"/>
			<point x="216" y="55" type="curve" smooth="yes"/>
			<point x="166" y="55"/>
			<point x="121" y="67"/>
			<point x="85" y="92" type="curve"/>
			<point x="56" y="38" type="line"/>
			<point x="100" y="7"/>
			<point x="156" y="-12"/>
		</contour>
	</outline>
	<anchor name="aboveLC" x="245" y="509"/>
	<anchor name="belowLC" x="245" y="-22"/>
	<anchor name="ogonekLC" x="244" y="0"/>
</glyph>
<glyph name="schwa" format="2">
	<unicode hex="0259"/>
	<advance width="496"/>
	<outline>
		<contour>
			<point x="240" y="-12" type="curve" smooth="yes"/>
			<point x="351" y="-12"/>
			<point x="450" y="84"/>
			<point x="450" y="243" type="curve" smooth="yes"/>
			<point x="450" y="405"/>
			<point x="356" y="498"/>
			<point x="231" y="498" type="curve" smooth="yes"/>
			<point x="164" y="498"/>
			<point x="111" y="478"/>
			<point x="68" y="448" type="curve"/>
			<point x="98" y="394" type="line"/>
			<point x="133" y="417"/>
			<point x="173" y="430"/>
			<point x="221" y="430" type="curve" smooth="yes"/>
			<point x="304" y="430"/>
			<point x="367" y="367"/>
			<point x="367" y="242" type="curve" smooth="yes"/>
			<point x="367" y="107"/>
			<point x="305" y="55"/>
			<point x="239" y="55" type="curve" smooth="yes"/>
			<point x="159" y="55"/>
			<point x="111" y="113"/>
			<point x="111" y="208" type="curve"/>
			<point x="391" y="208" type="line"/>
			<point x="391" y="273" type="line"/>
			<point x="41" y="273" type="line"/>
			<point x="38" y="257"/>
			<point x="37" y="241"/>
			<point x="37" y="224" type="curve" smooth="yes"/>
			<point x="37" y="84"/>
			<point x="110" y="-12"/>
		</contour>
	</outline>
	<anchor name="aboveLC" x="247" y="509"/>
	<anchor name="belowLC" x="234" y="-22"/>
	<anchor name="ogonekLC" x="234" y="0"/>
</glyph>
<glyph name="eopen" format="2">
	<unicode hex="025B"/>
	<advance width="432"/>
	<outline>
		<contour>
			<point x="241" y="-12" type="curve" smooth="yes"/>
			<point x="311" y="-12"/>
			<point x="363" y="4"/>
			<point x="412" y="45" type="curve"/>
			<point x="382" y="95" type="line"/>
			<point x="338" y="65"/>
			<point x="299" y="54"/>
			<point x="254" y="54" type="curve" smooth="yes"/>
			<point x="179" y="54"/>
			<point x="129" y="87"/>
			<point x="129" y="139" type="curve" smooth="yes"/>
			<point x="129" y="190"/>
			<point x="172" y="221"/>
			<point x="252" y="221" type="curve" smooth="yes"/>
			<point x="318" y="221" type="line"/>
			<point x="318" y="284" type="line"/>
			<point x="267" y="284" type="line" smooth="yes"/>
			<point x="190" y="284"/>
			<point x="154" y="315"/>
			<point x="154" y="360" type="curve" smooth="yes"/>
			<point x="154" y="407"/>
			<point x="197" y="433"/>
			<point x="250" y="433" type="curve" smooth="yes"/>
			<point x="294" y="433"/>
			<point x="327" y="422"/>
			<point x="364" y="397" type="curve"/>
			<point x="396" y="449" type="line"/>
			<point x="354" y="480"/>
			<point x="305" y="498"/>
			<point x="245" y="498" type="curve" smooth="yes"/>
			<point x="152" y="498"/>
			<point x="72" y="455"/>
			<point x="72" y="368" type="curve" smooth="yes"/>
			<point x="72" y="322"/>
			<point x="102" y="278"/>
			<point x="154" y="260" type="curve"/>
			<point x="154" y="256" type="line"/>
			<point x="97" y="242"/>
			<point x="47" y="202"/>
			<point x="47" y="130" type="curve" smooth="yes"/>
			<point x="47" y="42"/>
			<point x="132" y="-12"/>
		</contour>
	</outline>
	<anchor name="aboveLC" x="244" y="509"/>
	<anchor name="baseLC" x="237" y="0"/>
	<anchor name="belowLC" x="237" y="-22"/>
	<anchor name="ogonekLC" x="244" y="0"/>
</glyph>
<glyph name="eopenreversedrhotic" format="2">
	<unicode hex="025D"/>
	<advance width="578"/>
	<outline>
		<contour>
			<point x="203" y="-12" type="curve" smooth="yes"/>
			<point x="311" y="-12"/>
			<point x="397" y="44"/>
			<point x="397" y="133" type="curve" smooth="yes"/>
			<point x="397" y="203"/>
			<point x="346" y="241"/>
			<point x="290" y="256" type="curve"/>
			<point x="290" y="260" type="line"/>
			<point x="432" y="326" type="line"/>
			<point x="432" y="308" type="line" smooth="yes"/>
			<point x="432" y="224"/>
			<point x="474" y="194"/>
			<point x="523" y="194" type="curve" smooth="yes"/>
			<point x="555" y="194"/>
			<point x="577" y="206"/>
			<point x="594" y="217" type="curve"/>
			<point x="571" y="261" type="line"/>
			<point x="562" y="254"/>
			<point x="549" y="247"/>
			<point x="532" y="247" type="curve" smooth="yes"/>
			<point x="499" y="247"/>
			<point x="480" y="269"/>
			<point x="480" y="344" type="curve" smooth="yes"/>
			<point x="480" y="359"/>
			<point x="480" y="372"/>
			<point x="482" y="394" type="curve"/>
			<point x="472" y="402" type="line"/>
			<point x="333" y="339" type="line"/>
			<point x="339" y="292" type="line"/>
			<point x="360" y="315"/>
			<point x="369" y="341"/>
			<point x="369" y="369" type="curve" smooth="yes"/>
			<point x="369" y="455"/>
			<point x="294" y="498"/>
			<point x="202" y="498" type="curve" smooth="yes"/>
			<point x="141" y="498"/>
			<point x="90" y="481"/>
			<point x="48" y="449" type="curve"/>
			<point x="80" y="397" type="line"/>
			<point x="118" y="424"/>
			<point x="153" y="433"/>
			<point x="197" y="433" type="curve" smooth="yes"/>
			<point x="250" y="433"/>
			<point x="289" y="407"/>
			<point x="289" y="360" type="curve" smooth="yes"/>
			<point x="289" y="315"/>
			<point x="253" y="282"/>
			<point x="177" y="282" type="curve" smooth="yes"/>
			<point x="126" y="282" type="line"/>
			<point x="126" y="223" type="line"/>
			<point x="191" y="223" type="line" smooth="yes"/>
			<point x="271" y="223"/>
			<point x="315" y="194"/>
			<point x="315" y="143" type="curve" smooth="yes"/>
			<point x="315" y="88"/>
			<point x="265" y="54"/>
			<point x="189" y="54" type="curve" smooth="yes"/>
			<point x="145" y="54"/>
			<point x="105" y="64"/>
			<point x="62" y="95" type="curve"/>
			<point x="31" y="45" type="line"/>
			<point x="82" y="3"/>
			<point x="133" y="-12"/>
		</contour>
	</outline>
	<anchor name="aboveLC" x="211" y="509"/>
	<anchor name="belowLC" x="214" y="-22"/>
</glyph>
<glyph name="eopenreversedclosed" format="2">
	<unicode hex="025E"/>
	<advance width="546"/>
	<outline>
		<contour>
			<point x="285" y="-12" type="curve" smooth="yes"/>
			<point x="414" y="-12"/>
			<point x="497" y="44"/>
			<point x="497" y="134" type="curve" smooth="yes"/>
			<point x="497" y="204"/>
			<point x="445" y="242"/>
			<point x="389" y="256" type="curve"/>
			<point x="389" y="260" type="line"/>
			<point x="442" y="278"/>
			<point x="471" y="322"/>
			<point x="471" y="368" type="curve" smooth="yes"/>
			<point x="471" y="455"/>
			<point x="391" y="498"/>
			<point x="293" y="498" type="curve" smooth="yes"/>
			<point x="161" y="498"/>
			<point x="45" y="403"/>
			<point x="45" y="222" type="curve" smooth="yes"/>
			<point x="45" y="65"/>
			<point x="148" y="-12"/>
		</contour>
		<contour>
			<point x="287" y="54" type="curve" smooth="yes"/>
			<point x="196" y="54"/>
			<point x="130" y="107"/>
			<point x="130" y="226" type="curve" smooth="yes"/>
			<point x="130" y="361"/>
			<point x="201" y="433"/>
			<point x="293" y="433" type="curve" smooth="yes"/>
			<point x="347" y="433"/>
			<point x="389" y="407"/>
			<point x="389" y="359" type="curve" smooth="yes"/>
			<point x="389" y="315"/>
			<point x="354" y="284"/>
			<point x="279" y="284" type="curve" smooth="yes"/>
			<point x="253" y="284" type="line"/>
			<point x="253" y="221" type="line"/>
			<point x="294" y="221" type="line" smooth="yes"/>
			<point x="372" y="221"/>
			<point x="415" y="193"/>
			<point x="415" y="139" type="curve" smooth="yes"/>
			<point x="415" y="89"/>
			<point x="373" y="54"/>
		</contour>
	</outline>
	<anchor name="aboveLC" x="297" y="509"/>
	<anchor name="belowLC" x="277" y="-22"/>
</glyph>
<glyph name="dotlessjstroke" format="2">
	<unicode hex="025F"/>
	<advance width="295"/>
	<outline>
		<contour>
			<point x="22" y="221" type="line"/>
			<point x="270" y="221" type="line"/>
			<point x="270" y="286" type="line"/>
			<point x="106" y="286" type="line"/>
			<point x="22" y="280" type="line"/>
		</contour>
		<component base="dotlessj" xOffset="24"/>
	</outline>
	<anchor name="aboveLC" x="147" y="509"/>
	<anchor name="belowLC" x="88" y="-207"/>
</glyph>
<glyph name="iotalatin" format="2">
	<unicode hex="0269"/>
	<advance width="255"/>
	<outline>
		<contour>
			<point x="169" y="-9" type="curve" smooth="yes"/>
			<point x="189" y="-9"/>
			<point x="207" y="-5"/>
			<point x="216" y="-1" type="curve"/>
			<point x="205" y="61" type="line"/>
			<point x="197" y="59"/>
			<point x="193" y="59"/>
			<point x="188" y="59" type="curve" smooth="yes"/>
			<point x="175" y="59"/>
			<point x="164" y="69"/>
			<point x="164" y="94" type="curve" smooth="yes"/>
			<point x="164" y="486" type="line"/>
			<point x="82" y="486" type="line"/>
			<point x="82" y="100" type="line" smooth="yes"/>
			<point x="82" y="30"/>
			<point x="107" y="-9"/>
		</contour>
	</outline>
	<anchor name="aboveLC" x="125" y="509"/>
	<anchor name="belowLC" x="145" y="-22"/>
</glyph>
<glyph name="lbelt" format="2">
	<unicode hex="026C"/>
	<advance width="335"/>
	<outline>
		<contour>
			<point x="126" y="316" type="curve" smooth="yes"/>
			<point x="329" y="316" type="line"/>
			<point x="329" y="381" type="line"/>
			<point x="117" y="381" type="line" smooth="yes"/>
			<point x="74" y="381"/>
			<point x="55" y="398"/>
			<point x="55" y="419" type="curve" smooth="yes"/>
			<point x="55" y="437"/>
			<point x="65" y="451"/>
			<point x="88" y="451" type="curve" smooth="yes"/>
			<point x="119" y="451"/>
			<point x="138" y="426"/>
			<point x="138" y="388" type="curve"/>
			<point x="177" y="376" type="line"/>
			<point x="177" y="439"/>
			<point x="146" y="499"/>
			<point x="80" y="499" type="curve" smooth="yes"/>
			<point x="31" y="499"/>
			<point x="-3" y="464"/>
			<point x="-3" y="416" type="curve" smooth="yes"/>
			<point x="-3" y="360"/>
			<point x="37" y="316"/>
		</contour>
		<component base="l.a" xOffset="56"/>
	</outline>
	<anchor name="aboveUC" x="184" y="728"/>
	<anchor name="belowLC" x="184" y="-22"/>
</glyph>
<glyph name="lretroflex" format="2">
	<unicode hex="026D"/>
	<advance width="255"/>
	<outline>
		<contour>
			<point x="205" y="-217" type="curve" smooth="yes"/>
			<point x="231" y="-217"/>
			<point x="253" y="-211"/>
			<point x="267" y="-204" type="curve"/>
			<point x="250" y="-143" type="line"/>
			<point x="240" y="-147"/>
			<point x="228" y="-150"/>
			<point x="214" y="-150" type="curve" smooth="yes"/>
			<point x="176" y="-150"/>
			<point x="164" y="-117"/>
			<point x="164" y="-62" type="curve" smooth="yes"/>
			<point x="164" y="712" type="line"/>
			<point x="82" y="712" type="line"/>
			<point x="82" y="-62" type="line" smooth="yes"/>
			<point x="82" y="-159"/>
			<point x="115" y="-217"/>
		</contour>
	</outline>
	<anchor name="aboveUC" x="125" y="728"/>
	<anchor name="belowLC" x="174" y="-207"/>
</glyph>
<glyph name="mturned" format="2">
	<unicode hex="026F"/>
	<advance width="829"/>
	<outline>
		<contour>
			<point x="225" y="-12" type="curve" smooth="yes"/>
			<point x="284" y="-12"/>
			<point x="335" y="26"/>
			<point x="385" y="81" type="curve"/>
			<point x="405" y="24"/>
			<point x="445" y="-12"/>
			<point x="519" y="-12" type="curve" smooth="yes"/>
			<point x="577" y="-12"/>
			<point x="628" y="25"/>
			<point x="671" y="70" type="curve"/>
			<point x="673" y="70" type="line"/>
			<point x="680" y="0" type="line"/>
			<point x="748" y="0" type="line"/>
			<point x="748" y="486" type="line"/>
			<point x="666" y="486" type="line"/>
			<point x="666" y="134" type="line"/>
			<point x="621" y="84"/>
			<point x="581" y="59"/>
			<point x="544" y="59" type="curve" smooth="yes"/>
			<point x="482" y="59"/>
			<point x="454" y="98"/>
			<point x="454" y="189" type="curve" smooth="yes"/>
			<point x="454" y="486" type="line"/>
			<point x="371" y="486" type="line"/>
			<point x="371" y="134" type="line"/>
			<point x="327" y="84"/>
			<point x="287" y="59"/>
			<point x="250" y="59" type="curve" smooth="yes"/>
			<point x="188" y="59"/>
			<point x="159" y="98"/>
			<point x="159" y="189" type="curve" smooth="yes"/>
			<point x="159" y="486" type="line"/>
			<point x="77" y="486" type="line"/>
			<point x="77" y="178" type="line" smooth="yes"/>
			<point x="77" y="54"/>
			<point x="125" y="-12"/>
		</contour>
	</outline>
	<anchor name="aboveLC" x="419" y="509"/>
	<anchor name="belowLC" x="425" y="-22"/>
</glyph>
<glyph name="rfishhook" format="2">
	<unicode hex="027E"/>
	<advance width="332"/>
	<outline>
		<contour>
			<point x="81" y="0" type="line"/>
			<point x="163" y="0" type="line"/>
			<point x="163" y="297" type="line" smooth="yes"/>
			<point x="163" y="383"/>
			<point x="208" y="426"/>
			<point x="258" y="426" type="curve" smooth="yes"/>
			<point x="284" y="426"/>
			<point x="298" y="424"/>
			<point x="320" y="415" type="curve"/>
			<point x="335" y="484" type="line"/>
			<point x="314" y="493"/>
			<point x="286" y="498"/>
			<point x="249" y="498" type="curve" smooth="yes"/>
			<point x="143" y="498"/>
			<point x="81" y="428"/>
			<point x="81" y="314" type="curve" smooth="yes"/>
		</contour>
	</outline>
	<anchor name="aboveLC" x="218" y="509"/>
	<anchor name="belowLC" x="121" y="-22"/>
	<anchor name="center" x="137" y="216"/>
</glyph>
<glyph name="ubar" format="2">
	<unicode hex="0289"/>
	<advance width="583"/>
	<outline>
		<contour>
			<point x="14" y="254" type="line"/>
			<point x="569" y="254" type="line"/>
			<point x="569" y="319" type="line"/>
			<point x="100" y="319" type="line"/>
			<point x="14" y="314" type="line"/>
		</contour>
		<component base="u" xOffset="24"/>
	</outline>
	<anchor name="aboveLC" x="295" y="509"/>
	<anchor name="baseLC" x="280" y="0"/>
	<anchor name="belowLC" x="297" y="-22"/>
	<anchor name="ogonekLC" x="418" y="0"/>
</glyph>
<glyph name="zcurl" format="2">
	<unicode hex="0291"/>
	<advance width="459"/>
	<outline>
		<contour>
			<point x="248" y="-81" type="line"/>
			<point x="282" y="87"/>
			<point x="330" y="157"/>
			<point x="375" y="157" type="curve" smooth="yes"/>
			<point x="399" y="157"/>
			<point x="410" y="143"/>
			<point x="410" y="124" type="curve" smooth="yes"/>
			<point x="410" y="94"/>
			<point x="381" y="65"/>
			<point x="329" y="65" type="curve" smooth="yes"/>
			<point x="263" y="65"/>
			<point x="198" y="66"/>
			<point x="132" y="68" type="curve"/>
			<point x="386" y="441" type="line"/>
			<point x="386" y="486" type="line"/>
			<point x="59" y="486" type="line"/>
			<point x="59" y="419" type="line"/>
			<point x="287" y="419" type="line"/>
			<point x="31" y="44" type="line"/>
			<point x="31" y="0" type="line"/>
			<point x="110" y="-2"/>
			<point x="230" y="-4"/>
			<point x="308" y="-4" type="curve" smooth="yes"/>
			<point x="417" y="-4"/>
			<point x="469" y="55"/>
			<point x="469" y="124" type="curve" smooth="yes"/>
			<point x="469" y="179"/>
			<point x="434" y="214"/>
			<point x="378" y="214" type="curve" smooth="yes"/>
			<point x="283" y="214"/>
			<point x="228" y="108"/>
			<point x="190" y="-72" type="curve"/>
		</contour>
	</outline>
	<anchor name="aboveLC" x="232" y="509"/>
	<anchor name="belowLC" x="229" y="-115"/>
</glyph>
<glyph name="gsmallhook" format="2">
	<unicode hex="029B"/>
	<advance width="497"/>
	<outline>
		<contour>
			<point x="280" y="-12" type="curve" smooth="yes"/>
			<point x="352" y="-12"/>
			<point x="412" y="15"/>
			<point x="448" y="49" type="curve"/>
			<point x="448" y="262" type="line"/>
			<point x="267" y="262" type="line"/>
			<point x="267" y="203" type="line"/>
			<point x="375" y="203" type="line"/>
			<point x="375" y="84" type="line"/>
			<point x="355" y="66"/>
			<point x="323" y="54"/>
			<point x="287" y="54" type="curve" smooth="yes"/>
			<point x="192" y="54"/>
			<point x="129" y="125"/>
			<point x="129" y="244" type="curve" smooth="yes"/>
			<point x="129" y="364"/>
			<point x="200" y="433"/>
			<point x="289" y="433" type="curve" smooth="yes"/>
			<point x="338" y="433"/>
			<point x="371" y="415"/>
			<point x="401" y="389" type="curve"/>
			<point x="440" y="438" type="line"/>
			<point x="387" y="506"/>
			<point x="366" y="553"/>
			<point x="366" y="599" type="curve" smooth="yes"/>
			<point x="366" y="635"/>
			<point x="384" y="659"/>
			<point x="418" y="659" type="curve" smooth="yes"/>
			<point x="433" y="659"/>
			<point x="442" y="656"/>
			<point x="454" y="650" type="curve"/>
			<point x="471" y="708" type="line"/>
			<point x="454" y="718"/>
			<point x="433" y="724"/>
			<point x="405" y="724" type="curve" smooth="yes"/>
			<point x="342" y="724"/>
			<point x="298" y="687"/>
			<point x="298" y="625" type="curve" smooth="yes"/>
			<point x="298" y="571"/>
			<point x="322" y="517"/>
			<point x="360" y="460" type="curve"/>
			<point x="381" y="473" type="line"/>
			<point x="353" y="490"/>
			<point x="319" y="498"/>
			<point x="285" y="498" type="curve" smooth="yes"/>
			<point x="152" y="498"/>
			<point x="46" y="402"/>
			<point x="46" y="244" type="curve" smooth="yes"/>
			<point x="46" y="78"/>
			<point x="149" y="-12"/>
		</contour>
	</outline>
	<anchor name="aboveLC" x="281" y="728"/>
	<anchor name="belowLC" x="274" y="-22"/>
</glyph>
<glyph name="dzcurl" format="2">
	<unicode hex="02A5"/>
	<advance width="891"/>
	<outline>
		<contour>
			<point x="238" y="-12" type="curve" smooth="yes"/>
			<point x="292" y="-12"/>
			<point x="338" y="21"/>
			<point x="375" y="57" type="curve"/>
			<point x="378" y="57" type="line"/>
			<point x="385" y="0" type="line"/>
			<point x="453" y="0" type="line"/>
			<point x="453" y="712" type="line"/>
			<point x="371" y="712" type="line"/>
			<point x="371" y="525" type="line"/>
			<point x="374" y="442" type="line"/>
			<point x="333" y="475"/>
			<point x="300" y="498"/>
			<point x="248" y="498" type="curve" smooth="yes"/>
			<point x="142" y="498"/>
			<point x="47" y="400"/>
			<point x="47" y="242" type="curve" smooth="yes"/>
			<point x="47" y="80"/>
			<point x="122" y="-12"/>
		</contour>
		<contour>
			<point x="256" y="57" type="curve" smooth="yes"/>
			<point x="177" y="57"/>
			<point x="133" y="127"/>
			<point x="133" y="243" type="curve" smooth="yes"/>
			<point x="133" y="354"/>
			<point x="189" y="429"/>
			<point x="262" y="429" type="curve" smooth="yes"/>
			<point x="299" y="429"/>
			<point x="331" y="414"/>
			<point x="371" y="378" type="curve"/>
			<point x="371" y="123" type="line"/>
			<point x="332" y="81"/>
			<point x="298" y="57"/>
		</contour>
		<contour>
			<point x="682" y="-81" type="line"/>
			<point x="713" y="85"/>
			<point x="761" y="157"/>
			<point x="806" y="157" type="curve" smooth="yes"/>
			<point x="830" y="157"/>
			<point x="841" y="143"/>
			<point x="841" y="122" type="curve" smooth="yes"/>
			<point x="841" y="93"/>
			<point x="812" y="65"/>
			<point x="760" y="65" type="curve" smooth="yes"/>
			<point x="705" y="65"/>
			<point x="652" y="65"/>
			<point x="596" y="67" type="curve"/>
			<point x="807" y="442" type="line"/>
			<point x="807" y="486" type="line"/>
			<point x="444" y="486" type="line"/>
			<point x="444" y="419" type="line"/>
			<point x="712" y="419" type="line"/>
			<point x="502" y="44" type="line"/>
			<point x="502" y="0" type="line"/>
			<point x="567" y="-1"/>
			<point x="669" y="-2"/>
			<point x="735" y="-2" type="curve" smooth="yes"/>
			<point x="848" y="-2"/>
			<point x="900" y="54"/>
			<point x="900" y="122" type="curve" smooth="yes"/>
			<point x="900" y="179"/>
			<point x="865" y="214"/>
			<point x="809" y="214" type="curve" smooth="yes"/>
			<point x="716" y="214"/>
			<point x="659" y="107"/>
			<point x="621" y="-72" type="curve"/>
		</contour>
	</outline>
	<anchor name="aboveUC" x="414" y="728"/>
	<anchor name="belowLC" x="454" y="-85"/>
</glyph>
<glyph name="ts" format="2">
	<unicode hex="02A6"/>
	<advance width="650"/>
	<outline>
		<contour>
			<point x="353" y="-12" type="curve" smooth="yes"/>
			<point x="570" y="-12"/>
			<point x="617" y="54"/>
			<point x="617" y="133" type="curve" smooth="yes"/>
			<point x="617" y="225"/>
			<point x="542" y="254"/>
			<point x="473" y="280" type="curve" smooth="yes"/>
			<point x="419" y="300"/>
			<point x="371" y="318"/>
			<point x="371" y="364" type="curve" smooth="yes"/>
			<point x="371" y="401"/>
			<point x="398" y="434"/>
			<point x="456" y="434" type="curve" smooth="yes"/>
			<point x="499" y="434"/>
			<point x="533" y="420"/>
			<point x="566" y="396" type="curve"/>
			<point x="604" y="443" type="line"/>
			<point x="567" y="475"/>
			<point x="515" y="498"/>
			<point x="456" y="498" type="curve" smooth="yes"/>
			<point x="353" y="498"/>
			<point x="292" y="438"/>
			<point x="292" y="360" type="curve" smooth="yes"/>
			<point x="292" y="278"/>
			<point x="364" y="244"/>
			<point x="431" y="220" type="curve" smooth="yes"/>
			<point x="483" y="200"/>
			<point x="538" y="178"/>
			<point x="538" y="128" type="curve" smooth="yes"/>
			<point x="538" y="86"/>
			<point x="513" y="52"/>
			<point x="355" y="52" type="curve" smooth="yes"/>
			<point x="225" y="52"/>
			<point x="179" y="107"/>
			<point x="179" y="182" type="curve" smooth="yes"/>
			<point x="179" y="419" type="line"/>
			<point x="342" y="419" type="line"/>
			<point x="399" y="486" type="line"/>
			<point x="179" y="486" type="line"/>
			<point x="179" y="642" type="line"/>
			<point x="110" y="642" type="line"/>
			<point x="100" y="486" type="line"/>
			<point x="24" y="481" type="line"/>
			<point x="24" y="419" type="line"/>
			<point x="96" y="419" type="line"/>
			<point x="96" y="183" type="line" smooth="yes"/>
			<point x="96" y="74"/>
			<point x="153" y="-12"/>
		</contour>
	</outline>
	<anchor name="aboveLC" x="363" y="643"/>
	<anchor name="belowLC" x="348" y="-22"/>
</glyph>
<glyph name="tesh" format="2">
	<unicode hex="02A7"/>
	<advance width="552"/>
	<outline>
		<contour>
			<point x="235" y="-9" type="curve" smooth="yes"/>
			<point x="264" y="-9"/>
			<point x="292" y="-1"/>
			<point x="315" y="10" type="curve"/>
			<point x="298" y="69" type="line"/>
			<point x="280" y="61"/>
			<point x="264" y="58"/>
			<point x="250" y="58" type="curve" smooth="yes"/>
			<point x="196" y="58"/>
			<point x="179" y="92"/>
			<point x="179" y="151" type="curve" smooth="yes"/>
			<point x="179" y="419" type="line"/>
			<point x="432" y="419" type="line"/>
			<point x="432" y="486" type="line"/>
			<point x="179" y="486" type="line"/>
			<point x="179" y="642" type="line"/>
			<point x="110" y="642" type="line"/>
			<point x="100" y="486" type="line"/>
			<point x="24" y="481" type="line"/>
			<point x="24" y="419" type="line"/>
			<point x="96" y="419" type="line"/>
			<point x="96" y="153" type="line" smooth="yes"/>
			<point x="96" y="56"/>
			<point x="131" y="-9"/>
		</contour>
		<component base="esh" xOffset="305"/>
	</outline>
	<anchor name="aboveUC" x="306" y="728"/>
	<anchor name="belowLC" x="261" y="-207"/>
</glyph>
<glyph name="rturned.sups" format="2">
	<unicode hex="02B4"/>
	<advance width="240"/>
	<outline>
		<contour>
			<point x="36" y="387" type="curve" smooth="yes"/>
			<point x="72" y="387"/>
			<point x="103" y="409"/>
			<point x="128" y="451" type="curve"/>
			<point x="131" y="451" type="line"/>
			<point x="138" y="395" type="line"/>
			<point x="188" y="395" type="line"/>
			<point x="188" y="716" type="line"/>
			<point x="125" y="716" type="line"/>
			<point x="125" y="513" type="line"/>
			<point x="102" y="462"/>
			<point x="71" y="444"/>
			<point x="43" y="444" type="curve" smooth="yes"/>
			<point x="31" y="444"/>
			<point x="19" y="447"/>
			<point x="11" y="449" type="curve"/>
			<point x="-1" y="393" type="line"/>
			<point x="7" y="389"/>
			<point x="21" y="387"/>
		</contour>
	</outline>
</glyph>
<glyph name="commaturnedmod" format="2">
	<unicode hex="02BB"/>
	<advance width="257"/>
	<outline>
		<contour>
			<point x="140" y="441" type="curve" smooth="yes"/>
			<point x="177" y="441"/>
			<point x="206" y="465"/>
			<point x="206" y="500" type="curve" smooth="yes"/>
			<point x="206" y="536"/>
			<point x="177" y="553"/>
			<point x="151" y="553" type="curve" smooth="yes"/>
			<point x="132" y="553"/>
			<point x="114" y="545"/>
			<point x="105" y="530" type="curve"/>
			<point x="117" y="530" type="line"/>
			<point x="108" y="539"/>
			<point x="104" y="551"/>
			<point x="104" y="567" type="curve" smooth="yes"/>
			<point x="104" y="610"/>
			<point x="126" y="655"/>
			<point x="194" y="688" type="curve"/>
			<point x="170" y="730" type="line"/>
			<point x="76" y="693"/>
			<point x="44" y="625"/>
			<point x="44" y="550" type="curve" smooth="yes"/>
			<point x="44" y="480"/>
			<point x="89" y="441"/>
		</contour>
	</outline>
</glyph>
<glyph name="apostrophemod" format="2">
	<unicode hex="02BC"/>
	<advance width="257"/>
	<outline>
		<contour>
			<point x="87" y="435" type="line"/>
			<point x="181" y="472"/>
			<point x="213" y="540"/>
			<point x="213" y="616" type="curve" smooth="yes"/>
			<point x="213" y="686"/>
			<point x="168" y="724"/>
			<point x="116" y="724" type="curve" smooth="yes"/>
			<point x="80" y="724"/>
			<point x="51" y="700"/>
			<point x="51" y="665" type="curve" smooth="yes"/>
			<point x="51" y="630"/>
			<point x="80" y="612"/>
			<point x="106" y="612" type="curve" smooth="yes"/>
			<point x="125" y="612"/>
			<point x="143" y="620"/>
			<point x="152" y="636" type="curve"/>
			<point x="140" y="636" type="line"/>
			<point x="149" y="626"/>
			<point x="153" y="614"/>
			<point x="153" y="598" type="curve" smooth="yes"/>
			<point x="153" y="556"/>
			<point x="130" y="510"/>
			<point x="63" y="478" type="curve"/>
		</contour>
	</outline>
</glyph>
<glyph name="ringhalfrightmod" format="2">
	<unicode hex="02BE"/>
	<advance width="242"/>
	<outline>
		<contour>
			<point x="45" y="453" type="line"/>
			<point x="151" y="449"/>
			<point x="208" y="498"/>
			<point x="208" y="586" type="curve" smooth="yes"/>
			<point x="208" y="675"/>
			<point x="151" y="723"/>
			<point x="45" y="718" type="curve"/>
			<point x="45" y="668" type="line"/>
			<point x="113" y="668"/>
			<point x="144" y="639"/>
			<point x="144" y="586" type="curve" smooth="yes"/>
			<point x="144" y="532"/>
			<point x="113" y="503"/>
			<point x="45" y="503" type="curve"/>
		</contour>
	</outline>
</glyph>
<glyph name="ringhalfleftmod" format="2">
	<unicode hex="02BF"/>
	<advance width="242"/>
	<outline>
		<contour>
			<point x="197" y="453" type="curve"/>
			<point x="197" y="503" type="line"/>
			<point x="129" y="503"/>
			<point x="98" y="532"/>
			<point x="98" y="586" type="curve" smooth="yes"/>
			<point x="98" y="639"/>
			<point x="129" y="668"/>
			<point x="197" y="668" type="curve"/>
			<point x="197" y="718" type="line"/>
			<point x="91" y="723"/>
			<point x="34" y="675"/>
			<point x="34" y="586" type="curve" smooth="yes"/>
			<point x="34" y="498"/>
			<point x="91" y="449"/>
		</contour>
	</outline>
</glyph>
<glyph name="glottalstopreversedmod" format="2">
	<unicode hex="02C1"/>
	<advance width="309"/>
	<outline>
		<contour>
			<point x="141" y="395" type="line"/>
			<point x="203" y="395" type="line"/>
			<point x="203" y="497" type="line"/>
			<point x="122" y="528"/>
			<point x="93" y="557"/>
			<point x="93" y="604" type="curve" smooth="yes"/>
			<point x="93" y="646"/>
			<point x="124" y="673"/>
			<point x="173" y="673" type="curve" smooth="yes"/>
			<point x="214" y="673"/>
			<point x="241" y="655"/>
			<point x="265" y="630" type="curve"/>
			<point x="298" y="664" type="line"/>
			<point x="272" y="696"/>
			<point x="229" y="724"/>
			<point x="169" y="724" type="curve" smooth="yes"/>
			<point x="89" y="724"/>
			<point x="29" y="682"/>
			<point x="29" y="603" type="curve" smooth="yes"/>
			<point x="29" y="540"/>
			<point x="75" y="500"/>
			<point x="141" y="471" type="curve"/>
		</contour>
	</outline>
</glyph>
<glyph name="verticallinemod" format="2">
	<unicode hex="02C8"/>
	<advance width="187"/>
	<outline>
		<contour>
			<point x="64" y="445" type="line"/>
			<point x="123" y="445" type="line"/>
			<point x="129" y="712" type="line"/>
			<point x="58" y="712" type="line"/>
		</contour>
	</outline>
</glyph>
<glyph name="colontriangularhalfmod" format="2">
	<unicode hex="02D1"/>
	<advance width="249"/>
	<outline>
		<contour>
			<point x="119" y="346" type="line"/>
			<point x="130" y="346" type="line"/>
			<point x="199" y="486" type="line"/>
			<point x="50" y="486" type="line"/>
		</contour>
	</outline>
</glyph>
<glyph name="uptackmod" format="2">
	<unicode hex="02D4"/>
	<advance width="367"/>
	<outline>
		<contour>
			<point x="30" y="104" type="line"/>
			<point x="337" y="104" type="line"/>
			<point x="337" y="158" type="line"/>
			<point x="211" y="158" type="line"/>
			<point x="211" y="431" type="line"/>
			<point x="155" y="431" type="line"/>
			<point x="155" y="158" type="line"/>
			<point x="30" y="158" type="line"/>
		</contour>
	</outline>
</glyph>
<glyph name="downtackmod" format="2">
	<unicode hex="02D5"/>
	<advance width="367"/>
	<outline>
		<contour>
			<point x="155" y="104" type="line"/>
			<point x="211" y="104" type="line"/>
			<point x="211" y="378" type="line"/>
			<point x="337" y="378" type="line"/>
			<point x="337" y="431" type="line"/>
			<point x="30" y="431" type="line"/>
			<point x="30" y="378" type="line"/>
			<point x="155" y="378" type="line"/>
		</contour>
	</outline>
</glyph>
<glyph name="hookrhoticmod" format="2">
	<unicode hex="02DE"/>
	<advance width="172"/>
	<outline>
		<contour>
			<point x="117" y="194" type="curve" smooth="yes"/>
			<point x="149" y="194"/>
			<point x="171" y="206"/>
			<point x="188" y="217" type="curve"/>
			<point x="165" y="261" type="line"/>
			<point x="157" y="254"/>
			<point x="143" y="247"/>
			<point x="127" y="247" type="curve" smooth="yes"/>
			<point x="93" y="247"/>
			<point x="75" y="269"/>
			<point x="75" y="344" type="curve" smooth="yes"/>
			<point x="75" y="359"/>
			<point x="75" y="372"/>
			<point x="77" y="394" type="curve"/>
			<point x="66" y="402" type="line"/>
			<point x="-100" y="336" type="line"/>
			<point x="-100" y="275" type="line"/>
			<point x="26" y="326" type="line"/>
			<point x="26" y="308" type="line" smooth="yes"/>
			<point x="26" y="224"/>
			<point x="68" y="194"/>
		</contour>
	</outline>
</glyph>
<glyph name="gammalatin.sups" format="2">
	<unicode hex="02E0"/>
	<advance width="318"/>
	<outline>
		<contour>
			<point x="125" y="421" type="line"/>
			<point x="196" y="421" type="line"/>
			<point x="310" y="716" type="line"/>
			<point x="250" y="716" type="line"/>
			<point x="192" y="550" type="line"/>
			<point x="182" y="521"/>
			<point x="171" y="498"/>
			<point x="162" y="469" type="curve"/>
			<point x="159" y="469" type="line"/>
			<point x="150" y="498"/>
			<point x="139" y="521"/>
			<point x="130" y="550" type="curve"/>
			<point x="71" y="716" type="line"/>
			<point x="8" y="716" type="line"/>
		</contour>
		<contour>
			<point x="160" y="248" type="curve" smooth="yes"/>
			<point x="212" y="248"/>
			<point x="242" y="280"/>
			<point x="242" y="327" type="curve" smooth="yes"/>
			<point x="242" y="362"/>
			<point x="223" y="393"/>
			<point x="191" y="450" type="curve"/>
			<point x="129" y="450" type="line"/>
			<point x="97" y="393"/>
			<point x="79" y="362"/>
			<point x="79" y="327" type="curve" smooth="yes"/>
			<point x="79" y="280"/>
			<point x="109" y="248"/>
		</contour>
		<contour>
			<point x="160" y="289" type="curve" smooth="yes"/>
			<point x="141" y="289"/>
			<point x="132" y="303"/>
			<point x="132" y="323" type="curve" smooth="yes"/>
			<point x="132" y="344"/>
			<point x="143" y="372"/>
			<point x="159" y="403" type="curve"/>
			<point x="162" y="403" type="line"/>
			<point x="180" y="372"/>
			<point x="189" y="345"/>
			<point x="189" y="323" type="curve" smooth="yes"/>
			<point x="189" y="303"/>
			<point x="180" y="289"/>
		</contour>
	</outline>
</glyph>
<glyph name="gravecmb" format="2">
	<unicode hex="0300"/>
	<outline>
		<contour>
			<point x="11" y="570" type="line"/>
			<point x="77" y="570" type="line"/>
			<point x="-52" y="735" type="line"/>
			<point x="-142" y="735" type="line"/>
			<point x="-147" y="726" type="line"/>
		</contour>
	</outline>
	<anchor name="_aboveLC" x="0" y="509"/>
</glyph>
<glyph name="brevecmb" format="2">
	<unicode hex="0306"/>
	<outline>
		<contour>
			<point x="0" y="569" type="curve" smooth="yes"/>
			<point x="107" y="569"/>
			<point x="151" y="647"/>
			<point x="156" y="720" type="curve"/>
			<point x="105" y="729" type="line"/>
			<point x="97" y="677"/>
			<point x="65" y="625"/>
			<point x="0" y="625" type="curve" smooth="yes"/>
			<point x="-65" y="625"/>
			<point x="-97" y="677"/>
			<point x="-105" y="729" type="curve"/>
			<point x="-156" y="720" type="line"/>
			<point x="-151" y="647"/>
			<point x="-107" y="569"/>
		</contour>
	</outline>
	<anchor name="_aboveLC" x="0" y="509"/>
</glyph>
<glyph name="dotaccentcmb" format="2">
	<unicode hex="0307"/>
	<outline>
		<contour>
			<point x="0" y="586" type="curve" smooth="yes"/>
			<point x="32" y="586"/>
			<point x="55" y="607"/>
			<point x="55" y="640" type="curve" smooth="yes"/>
			<point x="55" y="672"/>
			<point x="32" y="694"/>
			<point x="0" y="694" type="curve" smooth="yes"/>
			<point x="-32" y="694"/>
			<point x="-55" y="672"/>
			<point x="-55" y="640" type="curve" smooth="yes"/>
			<point x="-55" y="607"/>
			<point x="-32" y="586"/>
		</contour>
	</outline>
	<anchor name="_aboveLC" x="0" y="509"/>
	<anchor name="aboveLC" x="0" y="700"/>
</glyph>
<glyph name="hungarumlautcmb" format="2">
	<unicode hex="030B"/>
	<outline>
		<contour>
			<point x="-112" y="570" type="line"/>
			<point x="-63" y="570" type="line"/>
			<point x="47" y="726" type="line"/>
			<point x="42" y="735" type="line"/>
			<point x="-26" y="735" type="line"/>
		</contour>
		<contour>
			<point x="49" y="570" type="line"/>
			<point x="99" y="570" type="line"/>
			<point x="208" y="726" type="line"/>
			<point x="203" y="735" type="line"/>
			<point x="135" y="735" type="line"/>
		</contour>
	</outline>
	<anchor name="_aboveLC" x="0" y="509"/>
</glyph>
<glyph name="verticallineabovecmb" format="2">
	<unicode hex="030D"/>
	<outline>
		<contour>
			<point x="-29" y="566" type="line"/>
			<point x="29" y="566" type="line"/>
			<point x="35" y="748" type="line"/>
			<point x="-35" y="748" type="line"/>
		</contour>
	</outline>
	<anchor name="_aboveLC" x="0" y="509"/>
	<anchor name="aboveLC" x="0" y="723"/>
</glyph>
<glyph name="dblgravecmb" format="2">
	<unicode hex="030F"/>
	<outline>
		<contour>
			<point x="-99" y="571" type="line"/>
			<point x="-49" y="571" type="line"/>
			<point x="-135" y="737" type="line"/>
			<point x="-203" y="737" type="line"/>
			<point x="-208" y="728" type="line"/>
		</contour>
		<contour>
			<point x="63" y="571" type="line"/>
			<point x="112" y="571" type="line"/>
			<point x="26" y="737" type="line"/>
			<point x="-42" y="737" type="line"/>
			<point x="-47" y="728" type="line"/>
		</contour>
	</outline>
	<anchor name="_aboveLC" x="0" y="509"/>
</glyph>
<glyph name="candrabinducmb" format="2">
	<unicode hex="0310"/>
	<outline>
		<contour>
			<point x="0" y="571" type="curve" smooth="yes"/>
			<point x="109" y="571"/>
			<point x="155" y="648"/>
			<point x="161" y="722" type="curve"/>
			<point x="113" y="730" type="line"/>
			<point x="106" y="677"/>
			<point x="68" y="622"/>
			<point x="0" y="622" type="curve" smooth="yes"/>
			<point x="-69" y="622"/>
			<point x="-106" y="677"/>
			<point x="-113" y="730" type="curve"/>
			<point x="-161" y="722" type="line"/>
			<point x="-155" y="648"/>
			<point x="-109" y="571"/>
		</contour>
		<contour>
			<point x="0" y="721" type="curve" smooth="yes"/>
			<point x="28" y="721"/>
			<point x="50" y="742"/>
			<point x="50" y="771" type="curve" smooth="yes"/>
			<point x="50" y="800"/>
			<point x="28" y="821"/>
			<point x="0" y="821" type="curve" smooth="yes"/>
			<point x="-28" y="821"/>
			<point x="-50" y="800"/>
			<point x="-50" y="771" type="curve" smooth="yes"/>
			<point x="-50" y="742"/>
			<point x="-28" y="721"/>
		</contour>
	</outline>
	<anchor name="_aboveLC" x="0" y="508"/>
</glyph>
<glyph name="commaabovecmb" format="2">
	<unicode hex="0313"/>
	<outline>
		<contour>
			<point x="-30" y="559" type="line"/>
			<point x="35" y="586"/>
			<point x="64" y="630"/>
			<point x="64" y="686" type="curve" smooth="yes"/>
			<point x="64" y="732"/>
			<point x="36" y="762"/>
			<point x="-5" y="762" type="curve" smooth="yes"/>
			<point x="-36" y="762"/>
			<point x="-61" y="744"/>
			<point x="-61" y="713" type="curve" smooth="yes"/>
			<point x="-61" y="685"/>
			<point x="-38" y="669"/>
			<point x="-16" y="669" type="curve" smooth="yes"/>
			<point x="-2" y="669"/>
			<point x="9" y="673"/>
			<point x="16" y="680" type="curve"/>
			<point x="16" y="641"/>
			<point x="-2" y="615"/>
			<point x="-49" y="595" type="curve"/>
		</contour>
	</outline>
	<anchor name="_aboveLC" x="0" y="509"/>
</glyph>
<glyph name="leftangleabovecmb" format="2">
	<unicode hex="031A"/>
	<outline>
		<contour>
			<point x="35" y="573" type="line"/>
			<point x="85" y="573" type="line"/>
			<point x="85" y="714" type="line"/>
			<point x="-76" y="714" type="line"/>
			<point x="-76" y="667" type="line"/>
			<point x="35" y="667" type="line"/>
		</contour>
	</outline>
	<anchor name="_aboverightLC" x="0" y="509"/>
</glyph>
<glyph name="downtackbelowcmb" format="2">
	<unicode hex="031E"/>
	<outline>
		<contour>
			<point x="-25" y="-249" type="line"/>
			<point x="25" y="-249" type="line"/>
			<point x="25" y="-143" type="line"/>
			<point x="96" y="-143" type="line"/>
			<point x="96" y="-96" type="line"/>
			<point x="-96" y="-96" type="line"/>
			<point x="-96" y="-143" type="line"/>
			<point x="-25" y="-143" type="line"/>
		</contour>
	</outline>
	<anchor name="_belowLC" x="0" y="-22"/>
</glyph>
<glyph name="plusbelowcmb" format="2">
	<unicode hex="031F"/>
	<outline>
		<contour>
			<point x="-25" y="-249" type="line"/>
			<point x="25" y="-249" type="line"/>
			<point x="25" y="-177" type="line"/>
			<point x="96" y="-177" type="line"/>
			<point x="96" y="-130" type="line"/>
			<point x="25" y="-130" type="line"/>
			<point x="25" y="-58" type="line"/>
			<point x="-25" y="-58" type="line"/>
			<point x="-25" y="-130" type="line"/>
			<point x="-96" y="-130" type="line"/>
			<point x="-96" y="-177" type="line"/>
			<point x="-25" y="-177" type="line"/>
		</contour>
	</outline>
	<anchor name="_belowLC" x="0" y="-22"/>
</glyph>
<glyph name="ogonekcmb" format="2">
	<unicode hex="0328"/>
	<outline>
		<contour>
			<point x="13" y="-215" type="curve" smooth="yes"/>
			<point x="46" y="-215"/>
			<point x="79" y="-201"/>
			<point x="100" y="-184" type="curve"/>
			<point x="79" y="-139" type="line"/>
			<point x="63" y="-150"/>
			<point x="48" y="-156"/>
			<point x="28" y="-156" type="curve" smooth="yes"/>
			<point x="2" y="-156"/>
			<point x="-23" y="-141"/>
			<point x="-23" y="-106" type="curve" smooth="yes"/>
			<point x="-23" y="-68"/>
			<point x="5" y="-30"/>
			<point x="44" y="3" type="curve"/>
			<point x="-16" y="3" type="line"/>
			<point x="-49" y="-24"/>
			<point x="-87" y="-69"/>
			<point x="-87" y="-122" type="curve" smooth="yes"/>
			<point x="-87" y="-186"/>
			<point x="-43" y="-215"/>
		</contour>
	</outline>
	<anchor name="_ogonekLC" x="0" y="0"/>
</glyph>
<glyph name="bridgeinvertedbelowcmb" format="2">
	<unicode hex="033A"/>
	<outline>
		<contour>
			<point x="-121" y="-225" type="line"/>
			<point x="121" y="-225" type="line"/>
			<point x="121" y="-82" type="line"/>
			<point x="75" y="-82" type="line"/>
			<point x="75" y="-178" type="line"/>
			<point x="-75" y="-178" type="line"/>
			<point x="-75" y="-82" type="line"/>
			<point x="-121" y="-82" type="line"/>
		</contour>
	</outline>
	<anchor name="_belowLC" x="0" y="-22"/>
</glyph>
<glyph name="variacmb" format="2">
	<unicode hex="0340"/>
	<outline>
		<contour>
			<point x="-15" y="566" type="line"/>
			<point x="45" y="566" type="line"/>
			<point x="6" y="752" type="line"/>
			<point x="-78" y="752" type="line"/>
			<point x="-83" y="743" type="line"/>
		</contour>
	</outline>
	<anchor name="_aboveLC" x="0" y="509"/>
</glyph>
<glyph name="Gamma" format="2">
	<unicode hex="0393"/>
	<advance width="498"/>
	<outline>
		<contour>
			<point x="90" y="0" type="line"/>
			<point x="173" y="0" type="line"/>
			<point x="173" y="586" type="line"/>
			<point x="468" y="586" type="line"/>
			<point x="468" y="656" type="line"/>
			<point x="90" y="656" type="line"/>
		</contour>
	</outline>
	<anchor name="aboveUC" x="294" y="678"/>
</glyph>
<glyph name="pi" format="2">
	<unicode hex="03C0"/>
	<advance width="586"/>
	<outline>
		<contour>
			<point x="488" y="-9" type="curve" smooth="yes"/>
			<point x="514" y="-9"/>
			<point x="536" y="-4"/>
			<point x="552" y="1" type="curve"/>
			<point x="541" y="64" type="line"/>
			<point x="526" y="61"/>
			<point x="513" y="59"/>
			<point x="505" y="59" type="curve" smooth="yes"/>
			<point x="473" y="59"/>
			<point x="457" y="73"/>
			<point x="457" y="107" type="curve" smooth="yes"/>
			<point x="457" y="154"/>
			<point x="458" y="308"/>
			<point x="463" y="418" type="curve"/>
			<point x="561" y="418" type="line"/>
			<point x="561" y="486" type="line"/>
			<point x="92" y="486" type="line"/>
			<point x="22" y="481" type="line"/>
			<point x="22" y="418" type="line"/>
			<point x="135" y="418" type="line"/>
			<point x="135" y="287"/>
			<point x="122" y="137"/>
			<point x="100" y="0" type="curve"/>
			<point x="183" y="-5" type="line"/>
			<point x="197" y="131"/>
			<point x="212" y="282"/>
			<point x="212" y="418" type="curve"/>
			<point x="384" y="418" type="line"/>
			<point x="382" y="312"/>
			<point x="380" y="163"/>
			<point x="380" y="113" type="curve" smooth="yes"/>
			<point x="380" y="34"/>
			<point x="411" y="-9"/>
		</contour>
	</outline>
	<anchor name="aboveLC" x="298" y="509"/>
	<anchor name="belowLC" x="308" y="-22"/>
</glyph>
<glyph name="sigma" format="2">
	<unicode hex="03C3"/>
	<advance width="546"/>
	<outline>
		<contour>
			<point x="264" y="-12" type="curve" smooth="yes"/>
			<point x="383" y="-12"/>
			<point x="476" y="76"/>
			<point x="476" y="227" type="curve" smooth="yes"/>
			<point x="476" y="318"/>
			<point x="440" y="386"/>
			<point x="380" y="420" type="curve"/>
			<point x="380" y="424" type="line"/>
			<point x="435" y="423"/>
			<point x="479" y="420"/>
			<point x="534" y="416" type="curve"/>
			<point x="534" y="486" type="line"/>
			<point x="268" y="486" type="line" smooth="yes"/>
			<point x="153" y="486"/>
			<point x="46" y="408"/>
			<point x="46" y="238" type="curve" smooth="yes"/>
			<point x="46" y="77"/>
			<point x="146" y="-12"/>
		</contour>
		<contour>
			<point x="265" y="56" type="curve" smooth="yes"/>
			<point x="188" y="56"/>
			<point x="131" y="126"/>
			<point x="131" y="238" type="curve" smooth="yes"/>
			<point x="131" y="359"/>
			<point x="189" y="418"/>
			<point x="266" y="418" type="curve" smooth="yes"/>
			<point x="349" y="418"/>
			<point x="396" y="331"/>
			<point x="396" y="234" type="curve" smooth="yes"/>
			<point x="396" y="125"/>
			<point x="341" y="56"/>
		</contour>
	</outline>
	<anchor name="aboveLC" x="281" y="509"/>
	<anchor name="belowLC" x="267" y="-22"/>
</glyph>
<glyph name="Kai" format="2">
	<unicode hex="03CF"/>
	<advance width="585"/>
	<outline>
		<contour>
			<point x="90" y="0" type="line"/>
			<point x="173" y="0" type="line"/>
			<point x="173" y="208" type="line"/>
			<point x="314" y="378" type="line"/>
			<point x="543" y="656" type="line"/>
			<point x="449" y="656" type="line"/>
			<point x="176" y="327" type="line"/>
			<point x="173" y="327" type="line"/>
			<point x="173" y="656" type="line"/>
			<point x="90" y="656" type="line"/>
		</contour>
		<contour>
			<point x="255" y="-165" type="curve" smooth="yes"/>
			<point x="431" y="-165"/>
			<point x="557" y="-63"/>
			<point x="557" y="114" type="curve" smooth="yes"/>
			<point x="557" y="310"/>
			<point x="431" y="390"/>
			<point x="265" y="390" type="curve"/>
			<point x="244" y="323" type="line"/>
			<point x="391" y="323"/>
			<point x="473" y="259"/>
			<point x="473" y="114" type="curve" smooth="yes"/>
			<point x="473" y="-12"/>
			<point x="383" y="-96"/>
			<point x="250" y="-96" type="curve" smooth="yes"/>
			<point x="191" y="-96"/>
			<point x="131" y="-83"/>
			<point x="92" y="-59" type="curve"/>
			<point x="63" y="-119" type="line"/>
			<point x="110" y="-150"/>
			<point x="173" y="-165"/>
		</contour>
	</outline>
</glyph>
<glyph name="beta.a" format="2">
	<unicode hex="03D0"/>
	<advance width="556"/>
	<outline>
		<contour>
			<point x="300" y="-12" type="curve" smooth="yes"/>
			<point x="420" y="-12"/>
			<point x="515" y="65"/>
			<point x="515" y="192" type="curve" smooth="yes"/>
			<point x="515" y="295"/>
			<point x="451" y="371"/>
			<point x="344" y="381" type="curve"/>
			<point x="344" y="385" type="line"/>
			<point x="418" y="421"/>
			<point x="455" y="480"/>
			<point x="455" y="552" type="curve" smooth="yes"/>
			<point x="455" y="665"/>
			<point x="373" y="723"/>
			<point x="280" y="723" type="curve" smooth="yes"/>
			<point x="143" y="723"/>
			<point x="77" y="622"/>
			<point x="77" y="480" type="curve" smooth="yes"/>
			<point x="77" y="219" type="line" smooth="yes"/>
			<point x="77" y="47"/>
			<point x="195" y="-12"/>
		</contour>
		<contour>
			<point x="302" y="58" type="curve" smooth="yes"/>
			<point x="244" y="58"/>
			<point x="155" y="93"/>
			<point x="155" y="235" type="curve" smooth="yes"/>
			<point x="155" y="314"/>
			<point x="155" y="368"/>
			<point x="157" y="476" type="curve" smooth="yes"/>
			<point x="159" y="596"/>
			<point x="203" y="654"/>
			<point x="277" y="654" type="curve" smooth="yes"/>
			<point x="330" y="654"/>
			<point x="373" y="621"/>
			<point x="373" y="546" type="curve" smooth="yes"/>
			<point x="373" y="460"/>
			<point x="311" y="398"/>
			<point x="121" y="367" type="curve"/>
			<point x="134" y="298" type="line"/>
			<point x="226" y="325"/>
			<point x="269" y="332"/>
			<point x="293" y="332" type="curve" smooth="yes"/>
			<point x="391" y="332"/>
			<point x="433" y="267"/>
			<point x="433" y="193" type="curve" smooth="yes"/>
			<point x="433" y="110"/>
			<point x="377" y="58"/>
		</contour>
	</outline>
</glyph>
<glyph name="Sho" format="2">
	<unicode hex="03F7"/>
	<advance width="555"/>
	<outline>
		<contour>
			<point x="90" y="-14" type="line"/>
			<point x="173" y="-14" type="line"/>
			<point x="173" y="89" type="line"/>
			<point x="212" y="89" type="line" smooth="yes"/>
			<point x="389" y="89"/>
			<point x="507" y="175"/>
			<point x="507" y="331" type="curve" smooth="yes"/>
			<point x="507" y="486"/>
			<point x="389" y="568"/>
			<point x="212" y="568" type="curve" smooth="yes"/>
			<point x="173" y="568" type="line"/>
			<point x="173" y="670" type="line"/>
			<point x="90" y="670" type="line"/>
		</contour>
		<contour>
			<point x="173" y="154" type="line"/>
			<point x="173" y="503" type="line"/>
			<point x="216" y="503" type="line" smooth="yes"/>
			<point x="344" y="503"/>
			<point x="426" y="441"/>
			<point x="426" y="331" type="curve" smooth="yes"/>
			<point x="426" y="221"/>
			<point x="344" y="154"/>
			<point x="216" y="154" type="curve" smooth="yes"/>
		</contour>
	</outline>
</glyph>
<glyph name="sho" format="2">
	<unicode hex="03F8"/>
	<advance width="528"/>
	<outline>
		<contour>
			<point x="82" y="-179" type="line"/>
			<point x="165" y="-179" type="line"/>
			<point x="164" y="-93"/>
			<point x="162" y="-30"/>
			<point x="159" y="57" type="curve"/>
			<point x="204" y="5"/>
			<point x="253" y="-12"/>
			<point x="306" y="-12" type="curve" smooth="yes"/>
			<point x="411" y="-12"/>
			<point x="506" y="85"/>
			<point x="506" y="250" type="curve" smooth="yes"/>
			<point x="506" y="401"/>
			<point x="442" y="498"/>
			<point x="328" y="498" type="curve" smooth="yes"/>
			<point x="257" y="498"/>
			<point x="209" y="464"/>
			<point x="161" y="392" type="curve"/>
			<point x="162" y="464"/>
			<point x="164" y="559"/>
			<point x="164" y="642" type="curve"/>
			<point x="82" y="642" type="line"/>
		</contour>
		<contour>
			<point x="291" y="57" type="curve" smooth="yes"/>
			<point x="249" y="57"/>
			<point x="206" y="68"/>
			<point x="161" y="123" type="curve"/>
			<point x="161" y="247" type="line" smooth="yes"/>
			<point x="161" y="366"/>
			<point x="239" y="429"/>
			<point x="301" y="429" type="curve" smooth="yes"/>
			<point x="386" y="429"/>
			<point x="421" y="357"/>
			<point x="421" y="250" type="curve" smooth="yes"/>
			<point x="421" y="130"/>
			<point x="363" y="57"/>
		</contour>
	</outline>
	<anchor name="aboveLC" x="315" y="643"/>
	<anchor name="belowLC" x="238" y="-182"/>
</glyph>
<glyph name="Nje" format="2">
	<unicode hex="040A"/>
	<advance width="929"/>
	<outline>
		<contour>
			<point x="90" y="0" type="line"/>
			<point x="173" y="0" type="line"/>
			<point x="173" y="309" type="line"/>
			<point x="468" y="309" type="line"/>
			<point x="468" y="0" type="line"/>
			<point x="644" y="0" type="line" smooth="yes"/>
			<point x="790" y="0"/>
			<point x="885" y="62"/>
			<point x="885" y="202" type="curve" smooth="yes"/>
			<point x="885" y="333"/>
			<point x="787" y="387"/>
			<point x="643" y="387" type="curve" smooth="yes"/>
			<point x="552" y="387" type="line"/>
			<point x="552" y="656" type="line"/>
			<point x="468" y="656" type="line"/>
			<point x="468" y="381" type="line"/>
			<point x="173" y="381" type="line"/>
			<point x="173" y="656" type="line"/>
			<point x="90" y="656" type="line"/>
		</contour>
		<contour>
			<point x="552" y="68" type="line"/>
			<point x="552" y="320" type="line"/>
			<point x="631" y="320" type="line" smooth="yes"/>
			<point x="745" y="320"/>
			<point x="803" y="283"/>
			<point x="803" y="200" type="curve" smooth="yes"/>
			<point x="803" y="107"/>
			<point x="744" y="68"/>
			<point x="633" y="68" type="curve" smooth="yes"/>
		</contour>
	</outline>
</glyph>
<glyph name="Tshe" format="2">
	<unicode hex="040B"/>
	<advance width="696"/>
	<outline>
		<contour>
			<point x="206" y="0" type="line"/>
			<point x="290" y="0" type="line"/>
			<point x="290" y="322" type="line"/>
			<point x="319" y="328"/>
			<point x="362" y="332"/>
			<point x="399" y="332" type="curve" smooth="yes"/>
			<point x="498" y="332"/>
			<point x="547" y="293"/>
			<point x="547" y="195" type="curve" smooth="yes"/>
			<point x="547" y="0" type="line"/>
			<point x="629" y="0" type="line"/>
			<point x="629" y="195" type="line" smooth="yes"/>
			<point x="629" y="341"/>
			<point x="551" y="401"/>
			<point x="407" y="401" type="curve" smooth="yes"/>
			<point x="367" y="401"/>
			<point x="324" y="397"/>
			<point x="290" y="391" type="curve"/>
			<point x="290" y="586" type="line"/>
			<point x="519" y="586" type="line"/>
			<point x="519" y="656" type="line"/>
			<point x="28" y="656" type="line"/>
			<point x="28" y="586" type="line"/>
			<point x="206" y="586" type="line"/>
		</contour>
	</outline>
</glyph>
<glyph name="Be" format="2">
	<unicode hex="0411"/>
	<advance width="580"/>
	<outline>
		<contour>
			<point x="90" y="0" type="line"/>
			<point x="303" y="0" type="line" smooth="yes"/>
			<point x="447" y="0"/>
			<point x="539" y="62"/>
			<point x="539" y="199" type="curve" smooth="yes"/>
			<point x="539" y="330"/>
			<point x="438" y="380"/>
			<point x="299" y="380" type="curve" smooth="yes"/>
			<point x="173" y="380" type="line"/>
			<point x="173" y="586" type="line"/>
			<point x="495" y="586" type="line"/>
			<point x="495" y="656" type="line"/>
			<point x="90" y="656" type="line"/>
		</contour>
		<contour>
			<point x="173" y="66" type="line"/>
			<point x="173" y="316" type="line"/>
			<point x="287" y="316" type="line" smooth="yes"/>
			<point x="399" y="316"/>
			<point x="457" y="281"/>
			<point x="457" y="197" type="curve" smooth="yes"/>
			<point x="457" y="107"/>
			<point x="401" y="66"/>
			<point x="289" y="66" type="curve" smooth="yes"/>
		</contour>
	</outline>
</glyph>
<glyph name="Ze" format="2">
	<unicode hex="0417"/>
	<advance width="550"/>
	<outline>
		<contour>
			<point x="281" y="-12" type="curve" smooth="yes"/>
			<point x="405" y="-12"/>
			<point x="510" y="59"/>
			<point x="510" y="186" type="curve" smooth="yes"/>
			<point x="510" y="277"/>
			<point x="450" y="333"/>
			<point x="379" y="348" type="curve"/>
			<point x="379" y="352" type="line"/>
			<point x="438" y="376"/>
			<point x="477" y="428"/>
			<point x="477" y="500" type="curve" smooth="yes"/>
			<point x="477" y="607"/>
			<point x="391" y="668"/>
			<point x="268" y="668" type="curve" smooth="yes"/>
			<point x="186" y="668"/>
			<point x="113" y="634"/>
			<point x="68" y="587" type="curve"/>
			<point x="112" y="535" type="line"/>
			<point x="152" y="571"/>
			<point x="205" y="595"/>
			<point x="266" y="595" type="curve" smooth="yes"/>
			<point x="340" y="595"/>
			<point x="394" y="557"/>
			<point x="394" y="489" type="curve" smooth="yes"/>
			<point x="394" y="415"/>
			<point x="346" y="377"/>
			<point x="236" y="377" type="curve" smooth="yes"/>
			<point x="177" y="377" type="line"/>
			<point x="177" y="313" type="line"/>
			<point x="251" y="313" type="line" smooth="yes"/>
			<point x="364" y="313"/>
			<point x="428" y="275"/>
			<point x="428" y="190" type="curve" smooth="yes"/>
			<point x="428" y="108"/>
			<point x="359" y="61"/>
			<point x="273" y="61" type="curve" smooth="yes"/>
			<point x="201" y="61"/>
			<point x="140" y="79"/>
			<point x="84" y="137" type="curve"/>
			<point x="38" y="85" type="line"/>
			<point x="104" y="13"/>
			<point x="179" y="-12"/>
		</contour>
	</outline>
</glyph>
<glyph name="Icyr" format="2">
	<unicode hex="0418"/>
	<advance width="658"/>
	<outline>
		<contour>
			<point x="90" y="0" type="line"/>
			<point x="181" y="0" type="line"/>
			<point x="421" y="414" type="line"/>
			<point x="491" y="549" type="line"/>
			<point x="495" y="549" type="line"/>
			<point x="490" y="483"/>
			<point x="483" y="413"/>
			<point x="483" y="343" type="curve" smooth="yes"/>
			<point x="483" y="0" type="line"/>
			<point x="566" y="0" type="line"/>
			<point x="566" y="656" type="line"/>
			<point x="475" y="656" type="line"/>
			<point x="235" y="243" type="line"/>
			<point x="165" y="107" type="line"/>
			<point x="161" y="107" type="line"/>
			<point x="167" y="173"/>
			<point x="172" y="247"/>
			<point x="172" y="317" type="curve" smooth="yes"/>
			<point x="172" y="656" type="line"/>
			<point x="90" y="656" type="line"/>
		</contour>
	</outline>
	<anchor name="aboveUC" x="332" y="682"/>
</glyph>
<glyph name="El" format="2">
	<unicode hex="041B"/>
	<advance width="630"/>
	<outline>
		<contour>
			<point x="56" y="-9" type="curve" smooth="yes"/>
			<point x="136" y="-9"/>
			<point x="174" y="36"/>
			<point x="218" y="235" type="curve" smooth="yes"/>
			<point x="244" y="352"/>
			<point x="266" y="466"/>
			<point x="282" y="586" type="curve"/>
			<point x="457" y="586" type="line"/>
			<point x="457" y="0" type="line"/>
			<point x="540" y="0" type="line"/>
			<point x="540" y="656" type="line"/>
			<point x="217" y="656" type="line"/>
			<point x="197" y="512"/>
			<point x="173" y="382"/>
			<point x="141" y="244" type="curve" smooth="yes"/>
			<point x="104" y="91"/>
			<point x="81" y="71"/>
			<point x="45" y="71" type="curve" smooth="yes"/>
			<point x="35" y="71"/>
			<point x="27" y="73"/>
			<point x="17" y="76" type="curve"/>
			<point x="0" y="-1" type="line"/>
			<point x="18" y="-7"/>
			<point x="35" y="-9"/>
		</contour>
	</outline>
</glyph>
<glyph name="Sha" format="2">
	<unicode hex="0428"/>
	<advance width="877"/>
	<outline>
		<contour>
			<point x="90" y="0" type="line"/>
			<point x="788" y="0" type="line"/>
			<point x="788" y="656" type="line"/>
			<point x="706" y="656" type="line"/>
			<point x="706" y="71" type="line"/>
			<point x="479" y="71" type="line"/>
			<point x="479" y="656" type="line"/>
			<point x="398" y="656" type="line"/>
			<point x="398" y="71" type="line"/>
			<point x="172" y="71" type="line"/>
			<point x="172" y="656" type="line"/>
			<point x="90" y="656" type="line"/>
		</contour>
	</outline>
</glyph>
<glyph name="ve" format="2">
	<unicode hex="0432"/>
	<advance width="508"/>
	<outline>
		<contour>
			<point x="82" y="0" type="line"/>
			<point x="277" y="0" type="line" smooth="yes"/>
			<point x="389" y="0"/>
			<point x="469" y="43"/>
			<point x="469" y="140" type="curve" smooth="yes"/>
			<point x="469" y="209"/>
			<point x="422" y="243"/>
			<point x="367" y="255" type="curve"/>
			<point x="367" y="259" type="line"/>
			<point x="417" y="274"/>
			<point x="448" y="309"/>
			<point x="448" y="363" type="curve" smooth="yes"/>
			<point x="448" y="451"/>
			<point x="375" y="486"/>
			<point x="269" y="486" type="curve" smooth="yes"/>
			<point x="82" y="486" type="line"/>
		</contour>
		<contour>
			<point x="163" y="284" type="line"/>
			<point x="163" y="427" type="line"/>
			<point x="261" y="427" type="line" smooth="yes"/>
			<point x="335" y="427"/>
			<point x="367" y="400"/>
			<point x="367" y="355" type="curve" smooth="yes"/>
			<point x="367" y="312"/>
			<point x="335" y="284"/>
			<point x="255" y="284" type="curve" smooth="yes"/>
		</contour>
		<contour>
			<point x="163" y="59" type="line"/>
			<point x="163" y="221" type="line"/>
			<point x="262" y="221" type="line" smooth="yes"/>
			<point x="344" y="221"/>
			<point x="387" y="192"/>
			<point x="387" y="144" type="curve" smooth="yes"/>
			<point x="387" y="90"/>
			<point x="349" y="59"/>
			<point x="268" y="59" type="curve" smooth="yes"/>
		</contour>
	</outline>
</glyph>
<glyph name="ze" format="2">
	<unicode hex="0437"/>
	<advance width="456"/>
	<outline>
		<contour>
			<point x="220" y="-12" type="curve" smooth="yes"/>
			<point x="325" y="-12"/>
			<point x="417" y="44"/>
			<point x="417" y="134" type="curve" smooth="yes"/>
			<point x="417" y="204"/>
			<point x="373" y="240"/>
			<point x="315" y="254" type="curve"/>
			<point x="315" y="258" type="line"/>
			<point x="367" y="278"/>
			<point x="396" y="319"/>
			<point x="396" y="368" type="curve" smooth="yes"/>
			<point x="396" y="455"/>
			<point x="314" y="498"/>
			<point x="219" y="498" type="curve" smooth="yes"/>
			<point x="148" y="498"/>
			<point x="95" y="477"/>
			<point x="48" y="444" type="curve"/>
			<point x="83" y="390" type="line"/>
			<point x="122" y="417"/>
			<point x="159" y="433"/>
			<point x="215" y="433" type="curve" smooth="yes"/>
			<point x="273" y="433"/>
			<point x="315" y="409"/>
			<point x="315" y="359" type="curve" smooth="yes"/>
			<point x="315" y="313"/>
			<point x="277" y="284"/>
			<point x="199" y="284" type="curve" smooth="yes"/>
			<point x="143" y="284" type="line"/>
			<point x="143" y="221" type="line"/>
			<point x="211" y="221" type="line" smooth="yes"/>
			<point x="291" y="221"/>
			<point x="335" y="194"/>
			<point x="335" y="141" type="curve" smooth="yes"/>
			<point x="335" y="88"/>
			<point x="280" y="54"/>
			<point x="214" y="54" type="curve" smooth="yes"/>
			<point x="165" y="54"/>
			<point x="117" y="67"/>
			<point x="73" y="103" type="curve"/>
			<point x="37" y="50" type="line"/>
			<point x="93" y="2"/>
			<point x="154" y="-12"/>
		</contour>
	</outline>
</glyph>
<glyph name="icyr" format="2">
	<unicode hex="0438"/>
	<advance width="565"/>
	<outline>
		<contour>
			<point x="82" y="0" type="line"/>
			<point x="171" y="0" type="line"/>
			<point x="344" y="273" type="line" smooth="yes"/>
			<point x="363" y="303"/>
			<point x="388" y="348"/>
			<point x="407" y="384" type="curve"/>
			<point x="411" y="384" type="line"/>
			<point x="405" y="314"/>
			<point x="403" y="254"/>
			<point x="403" y="202" type="curve" smooth="yes"/>
			<point x="403" y="0" type="line"/>
			<point x="483" y="0" type="line"/>
			<point x="483" y="486" type="line"/>
			<point x="393" y="486" type="line"/>
			<point x="221" y="212" type="line" smooth="yes"/>
			<point x="202" y="182"/>
			<point x="177" y="137"/>
			<point x="158" y="102" type="curve"/>
			<point x="154" y="102" type="line"/>
			<point x="158" y="171"/>
			<point x="162" y="230"/>
			<point x="162" y="284" type="curve" smooth="yes"/>
			<point x="162" y="486" type="line"/>
			<point x="82" y="486" type="line"/>
		</contour>
	</outline>
	<anchor name="aboveLC" x="285" y="509"/>
</glyph>
<glyph name="shcha" format="2">
	<unicode hex="0449"/>
	<advance width="761"/>
	<outline>
		<contour>
			<point x="659" y="-172" type="line"/>
			<point x="730" y="-172" type="line"/>
			<point x="738" y="15" type="line"/>
			<point x="738" y="67" type="line"/>
			<point x="621" y="67" type="line"/>
			<point x="621" y="0" type="line"/>
			<point x="659" y="0" type="line"/>
		</contour>
		<component base="sha"/>
	</outline>
</glyph>
<glyph name="ecyr" format="2">
	<unicode hex="044D"/>
	<advance width="456"/>
	<outline>
		<contour>
			<point x="184" y="-12" type="curve" smooth="yes"/>
			<point x="314" y="-12"/>
			<point x="410" y="74"/>
			<point x="410" y="242" type="curve" smooth="yes"/>
			<point x="410" y="416"/>
			<point x="310" y="498"/>
			<point x="188" y="498" type="curve" smooth="yes"/>
			<point x="117" y="498"/>
			<point x="69" y="471"/>
			<point x="34" y="439" type="curve"/>
			<point x="73" y="390" type="line"/>
			<point x="102" y="415"/>
			<point x="135" y="433"/>
			<point x="183" y="433" type="curve" smooth="yes"/>
			<point x="269" y="433"/>
			<point x="328" y="370"/>
			<point x="328" y="242" type="curve" smooth="yes"/>
			<point x="328" y="118"/>
			<point x="269" y="54"/>
			<point x="176" y="54" type="curve" smooth="yes"/>
			<point x="128" y="54"/>
			<point x="89" y="73"/>
			<point x="59" y="101" type="curve"/>
			<point x="24" y="51" type="line"/>
			<point x="64" y="11"/>
			<point x="120" y="-12"/>
		</contour>
		<contour>
			<point x="116" y="221" type="line"/>
			<point x="371" y="221" type="line"/>
			<point x="371" y="286" type="line"/>
			<point x="116" y="286" type="line"/>
		</contour>
	</outline>
	<anchor name="aboveLC" x="204" y="509"/>
</glyph>
<glyph name="dje" format="2">
	<unicode hex="0452"/>
	<advance width="560"/>
	<outline>
		<contour>
			<point x="311" y="-217" type="curve" smooth="yes"/>
			<point x="435" y="-217"/>
			<point x="512" y="-114"/>
			<point x="512" y="171" type="curve" smooth="yes"/>
			<point x="512" y="371"/>
			<point x="448" y="459"/>
			<point x="332" y="459" type="curve" smooth="yes"/>
			<point x="270" y="459"/>
			<point x="219" y="423"/>
			<point x="174" y="379" type="curve"/>
			<point x="177" y="480" type="line"/>
			<point x="177" y="712" type="line"/>
			<point x="95" y="712" type="line"/>
			<point x="95" y="0" type="line"/>
			<point x="177" y="0" type="line"/>
			<point x="177" y="313" type="line"/>
			<point x="224" y="362"/>
			<point x="261" y="388"/>
			<point x="306" y="388" type="curve" smooth="yes"/>
			<point x="385" y="388"/>
			<point x="426" y="333"/>
			<point x="426" y="162" type="curve" smooth="yes"/>
			<point x="426" y="-70"/>
			<point x="374" y="-150"/>
			<point x="306" y="-150" type="curve" smooth="yes"/>
			<point x="291" y="-150"/>
			<point x="278" y="-146"/>
			<point x="266" y="-142" type="curve"/>
			<point x="250" y="-205" type="line"/>
			<point x="263" y="-211"/>
			<point x="287" y="-217"/>
		</contour>
		<contour>
			<point x="11" y="557" type="line"/>
			<point x="359" y="557" type="line"/>
			<point x="359" y="622" type="line"/>
			<point x="98" y="622" type="line"/>
			<point x="11" y="617" type="line"/>
		</contour>
	</outline>
</glyph>
<glyph name="lje" format="2">
	<unicode hex="0459"/>
	<advance width="735"/>
	<outline>
		<contour>
			<point x="54" y="-9" type="curve" smooth="yes"/>
			<point x="126" y="-9"/>
			<point x="167" y="40"/>
			<point x="183" y="138" type="curve" smooth="yes"/>
			<point x="198" y="231"/>
			<point x="207" y="324"/>
			<point x="217" y="419" type="curve"/>
			<point x="353" y="419" type="line"/>
			<point x="353" y="0" type="line"/>
			<point x="500" y="0" type="line" smooth="yes"/>
			<point x="615" y="0"/>
			<point x="693" y="47"/>
			<point x="693" y="155" type="curve" smooth="yes"/>
			<point x="693" y="261"/>
			<point x="615" y="307"/>
			<point x="500" y="307" type="curve" smooth="yes"/>
			<point x="436" y="307" type="line"/>
			<point x="436" y="486" type="line"/>
			<point x="148" y="486" type="line"/>
			<point x="137" y="377"/>
			<point x="127" y="272"/>
			<point x="113" y="171" type="curve" smooth="yes"/>
			<point x="102" y="99"/>
			<point x="79" y="70"/>
			<point x="48" y="70" type="curve" smooth="yes"/>
			<point x="39" y="70"/>
			<point x="32" y="72"/>
			<point x="26" y="74" type="curve"/>
			<point x="10" y="-1" type="line"/>
			<point x="24" y="-7"/>
			<point x="36" y="-9"/>
		</contour>
		<contour>
			<point x="436" y="66" type="line"/>
			<point x="436" y="243" type="line"/>
			<point x="491" y="243" type="line" smooth="yes"/>
			<point x="573" y="243"/>
			<point x="613" y="216"/>
			<point x="613" y="155" type="curve" smooth="yes"/>
			<point x="613" y="94"/>
			<point x="573" y="66"/>
			<point x="491" y="66" type="curve" smooth="yes"/>
		</contour>
	</outline>
</glyph>
<glyph name="dzhe" format="2">
	<unicode hex="045F"/>
	<advance width="558"/>
	<outline>
		<contour>
			<point x="243" y="-172" type="line"/>
			<point x="313" y="-172" type="line"/>
			<point x="322" y="0" type="line"/>
			<point x="476" y="0" type="line"/>
			<point x="476" y="486" type="line"/>
			<point x="394" y="486" type="line"/>
			<point x="394" y="67" type="line"/>
			<point x="164" y="67" type="line"/>
			<point x="164" y="486" type="line"/>
			<point x="82" y="486" type="line"/>
			<point x="82" y="0" type="line"/>
			<point x="240" y="0" type="line"/>
		</contour>
	</outline>
</glyph>
<glyph name="zhedescender" format="2">
	<unicode hex="0497"/>
	<advance width="727"/>
	<outline>
		<contour>
			<point x="629" y="-172" type="line"/>
			<point x="700" y="-172" type="line"/>
			<point x="708" y="15" type="line"/>
			<point x="708" y="67" type="line"/>
			<point x="603" y="67" type="line"/>
			<point x="603" y="0" type="line"/>
			<point x="629" y="0" type="line"/>
		</contour>
		<component base="zhe"/>
	</outline>
</glyph>
<glyph name="kadescender" format="2">
	<unicode hex="049B"/>
	<advance width="536"/>
	<outline>
		<contour>
			<point x="438" y="-172" type="line"/>
			<point x="508" y="-172" type="line"/>
			<point x="517" y="15" type="line"/>
			<point x="517" y="67" type="line"/>
			<point x="412" y="67" type="line"/>
			<point x="412" y="0" type="line"/>
			<point x="438" y="0" type="line"/>
		</contour>
		<component base="ka"/>
	</outline>
</glyph>
<glyph name="Kabashkir" format="2">
	<unicode hex="04A0"/>
	<advance width="715"/>
	<outline>
		<contour>
			<point x="310" y="656" type="line"/>
			<point x="28" y="656" type="line"/>
			<point x="28" y="586" type="line"/>
			<point x="226" y="586" type="line"/>
		</contour>
		<component base="Ka" xOffset="137"/>
	</outline>
</glyph>
<glyph name="Ustraightstroke" format="2">
	<unicode hex="04B0"/>
	<advance width="476"/>
	<outline>
		<contour>
			<point x="57" y="237" type="line"/>
			<point x="420" y="237" type="line"/>
			<point x="420" y="301" type="line"/>
			<point x="146" y="301" type="line"/>
			<point x="57" y="298" type="line"/>
		</contour>
		<component base="Y"/>
	</outline>
	<anchor name="aboveUC" x="237" y="678"/>
</glyph>
<glyph name="ustraightstroke" format="2">
	<unicode hex="04B1"/>
	<advance width="467"/>
	<outline>
		<contour>
			<point x="47" y="0" type="line"/>
			<point x="419" y="0" type="line"/>
			<point x="419" y="65" type="line"/>
			<point x="125" y="65" type="line"/>
			<point x="47" y="60" type="line"/>
		</contour>
		<component base="ustraight"/>
	</outline>
	<anchor name="aboveLC" x="235" y="509"/>
</glyph>
<glyph name="Hadescender" format="2">
	<unicode hex="04B2"/>
	<advance width="551"/>
	<outline>
		<contour>
			<point x="445" y="-188" type="line"/>
			<point x="517" y="-188" type="line"/>
			<point x="526" y="21" type="line"/>
			<point x="526" y="71" type="line"/>
			<point x="417" y="71" type="line"/>
			<point x="417" y="0" type="line"/>
			<point x="445" y="0" type="line"/>
		</contour>
		<component base="X"/>
	</outline>
</glyph>
<glyph name="Chedescender" format="2">
	<unicode hex="04B6"/>
	<advance width="607"/>
	<outline>
		<contour>
			<point x="501" y="-188" type="line"/>
			<point x="572" y="-188" type="line"/>
			<point x="581" y="21" type="line"/>
			<point x="581" y="71" type="line"/>
			<point x="461" y="71" type="line"/>
			<point x="461" y="0" type="line"/>
			<point x="501" y="0" type="line"/>
		</contour>
		<component base="Che"/>
	</outline>
</glyph>
<glyph name="kahook" format="2">
	<unicode hex="04C4"/>
	<advance width="505"/>
	<outline>
		<contour>
			<point x="278" y="-217" type="curve" smooth="yes"/>
			<point x="400" y="-217"/>
			<point x="478" y="-127"/>
			<point x="478" y="37" type="curve" smooth="yes"/>
			<point x="478" y="200"/>
			<point x="387" y="285"/>
			<point x="247" y="285" type="curve"/>
			<point x="329" y="256" type="line"/>
			<point x="371" y="352" type="line" smooth="yes"/>
			<point x="395" y="408"/>
			<point x="415" y="416"/>
			<point x="441" y="416" type="curve" smooth="yes"/>
			<point x="448" y="416"/>
			<point x="451" y="415"/>
			<point x="457" y="413" type="curve"/>
			<point x="472" y="490" type="line"/>
			<point x="464" y="494"/>
			<point x="453" y="496"/>
			<point x="443" y="496" type="curve" smooth="yes"/>
			<point x="390" y="496"/>
			<point x="353" y="480"/>
			<point x="314" y="394" type="curve" smooth="yes"/>
			<point x="266" y="286" type="line"/>
			<point x="164" y="286" type="line"/>
			<point x="164" y="486" type="line"/>
			<point x="82" y="486" type="line"/>
			<point x="82" y="0" type="line"/>
			<point x="164" y="0" type="line"/>
			<point x="164" y="219" type="line"/>
			<point x="239" y="219" type="line" smooth="yes"/>
			<point x="332" y="219"/>
			<point x="396" y="154"/>
			<point x="396" y="37" type="curve" smooth="yes"/>
			<point x="396" y="-77"/>
			<point x="347" y="-150"/>
			<point x="267" y="-150" type="curve" smooth="yes"/>
			<point x="253" y="-150"/>
			<point x="244" y="-148"/>
			<point x="228" y="-143" type="curve"/>
			<point x="212" y="-204" type="line"/>
			<point x="231" y="-214"/>
			<point x="255" y="-217"/>
		</contour>
	</outline>
</glyph>
<glyph name="Enhook" format="2">
	<unicode hex="04C7"/>
	<advance width="652"/>
	<outline>
		<contour>
			<point x="427" y="-165" type="curve" smooth="yes"/>
			<point x="524" y="-165"/>
			<point x="562" y="-102"/>
			<point x="562" y="-3" type="curve" smooth="yes"/>
			<point x="562" y="656" type="line"/>
			<point x="478" y="656" type="line"/>
			<point x="478" y="381" type="line"/>
			<point x="173" y="381" type="line"/>
			<point x="173" y="656" type="line"/>
			<point x="90" y="656" type="line"/>
			<point x="90" y="0" type="line"/>
			<point x="173" y="0" type="line"/>
			<point x="173" y="309" type="line"/>
			<point x="478" y="309" type="line"/>
			<point x="478" y="0" type="line" smooth="yes"/>
			<point x="478" y="-59"/>
			<point x="467" y="-96"/>
			<point x="418" y="-96" type="curve" smooth="yes"/>
			<point x="401" y="-96"/>
			<point x="385" y="-91"/>
			<point x="372" y="-87" type="curve"/>
			<point x="356" y="-153" type="line"/>
			<point x="373" y="-159"/>
			<point x="398" y="-165"/>
		</contour>
	</outline>
</glyph>
<glyph name="enhook" format="2">
	<unicode hex="04C8"/>
	<advance width="562"/>
	<outline>
		<contour>
			<point x="355" y="-156" type="curve" smooth="yes"/>
			<point x="446" y="-156"/>
			<point x="480" y="-95"/>
			<point x="480" y="2" type="curve" smooth="yes"/>
			<point x="480" y="486" type="line"/>
			<point x="398" y="486" type="line"/>
			<point x="398" y="289" type="line"/>
			<point x="164" y="289" type="line"/>
			<point x="164" y="486" type="line"/>
			<point x="82" y="486" type="line"/>
			<point x="82" y="0" type="line"/>
			<point x="164" y="0" type="line"/>
			<point x="164" y="216" type="line"/>
			<point x="398" y="216" type="line"/>
			<point x="398" y="7" type="line" smooth="yes"/>
			<point x="398" y="-55"/>
			<point x="388" y="-89"/>
			<point x="345" y="-89" type="curve" smooth="yes"/>
			<point x="330" y="-89"/>
			<point x="316" y="-85"/>
			<point x="304" y="-81" type="curve"/>
			<point x="289" y="-145" type="line"/>
			<point x="305" y="-151"/>
			<point x="327" y="-156"/>
		</contour>
	</outline>
</glyph>
<glyph name="Ghedescender" format="2">
	<unicode hex="04F6"/>
	<advance width="498"/>
	<outline>
		<contour>
			<point x="164" y="-188" type="line"/>
			<point x="237" y="-188" type="line"/>
			<point x="246" y="21" type="line"/>
			<point x="246" y="71" type="line"/>
			<point x="126" y="71" type="line"/>
			<point x="126" y="0" type="line"/>
			<point x="164" y="0" type="line"/>
		</contour>
		<component base="Ghe"/>
	</outline>
</glyph>
<glyph name="ghedescender" format="2">
	<unicode hex="04F7"/>
	<advance width="411"/>
	<outline>
		<contour>
			<point x="155" y="-172" type="line"/>
			<point x="226" y="-172" type="line"/>
			<point x="234" y="15" type="line"/>
			<point x="234" y="67" type="line"/>
			<point x="117" y="67" type="line"/>
			<point x="117" y="0" type="line"/>
			<point x="155" y="0" type="line"/>
		</contour>
		<component base="ghe"/>
	</outline>
</glyph>
<glyph name="ain" format="2">
	<unicode hex="1D25"/>
	<advance width="511"/>
	<outline>
		<contour>
			<point x="93" y="-12" type="curve" smooth="yes"/>
			<point x="145" y="-12"/>
			<point x="200" y="20"/>
			<point x="256" y="75" type="curve"/>
			<point x="310" y="20"/>
			<point x="366" y="-12"/>
			<point x="419" y="-12" type="curve" smooth="yes"/>
			<point x="447" y="-12"/>
			<point x="476" y="-5"/>
			<point x="495" y="10" type="curve"/>
			<point x="470" y="68" type="line"/>
			<point x="455" y="59"/>
			<point x="440" y="56"/>
			<point x="422" y="56" type="curve" smooth="yes"/>
			<point x="382" y="56"/>
			<point x="346" y="82"/>
			<point x="308" y="123" type="curve"/>
			<point x="378" y="188"/>
			<point x="429" y="265"/>
			<point x="429" y="335" type="curve" smooth="yes"/>
			<point x="429" y="433"/>
			<point x="368" y="498"/>
			<point x="256" y="498" type="curve" smooth="yes"/>
			<point x="143" y="498"/>
			<point x="82" y="433"/>
			<point x="82" y="335" type="curve" smooth="yes"/>
			<point x="82" y="265"/>
			<point x="131" y="188"/>
			<point x="203" y="123" type="curve"/>
			<point x="165" y="82"/>
			<point x="128" y="56"/>
			<point x="89" y="56" type="curve" smooth="yes"/>
			<point x="71" y="56"/>
			<point x="56" y="59"/>
			<point x="41" y="68" type="curve"/>
			<point x="16" y="10" type="line"/>
			<point x="35" y="-5"/>
			<point x="64" y="-12"/>
		</contour>
	</outline>
	<anchor name="aboveLC" x="256" y="509"/>
	<anchor name="belowLC" x="256" y="-22"/>
</glyph>
<glyph name="a.sups" format="2">
	<unicode hex="1D43"/>
	<advance width="345"/>
	<outline>
		<contour>
			<point x="136" y="386" type="curve" smooth="yes"/>
			<point x="177" y="386"/>
			<point x="210" y="408"/>
			<point x="237" y="432" type="curve"/>
			<point x="241" y="432" type="line"/>
			<point x="248" y="395" type="line"/>
			<point x="298" y="395" type="line"/>
			<point x="298" y="591" type="line" smooth="yes"/>
			<point x="298" y="675"/>
			<point x="263" y="724"/>
			<point x="183" y="724" type="curve" smooth="yes"/>
			<point x="131" y="724"/>
			<point x="82" y="702"/>
			<point x="49" y="681" type="curve"/>
			<point x="73" y="638" type="line"/>
			<point x="100" y="655"/>
			<point x="139" y="672"/>
			<point x="174" y="672" type="curve" smooth="yes"/>
			<point x="221" y="672"/>
			<point x="235" y="643"/>
			<point x="236" y="601" type="curve"/>
			<point x="98" y="589"/>
			<point x="38" y="552"/>
			<point x="38" y="481" type="curve" smooth="yes"/>
			<point x="38" y="424"/>
			<point x="77" y="386"/>
		</contour>
		<contour>
			<point x="155" y="437" type="curve" smooth="yes"/>
			<point x="120" y="437"/>
			<point x="100" y="452"/>
			<point x="100" y="485" type="curve" smooth="yes"/>
			<point x="100" y="521"/>
			<point x="135" y="547"/>
			<point x="236" y="559" type="curve"/>
			<point x="236" y="476" type="line"/>
			<point x="207" y="449"/>
			<point x="182" y="437"/>
		</contour>
	</outline>
</glyph>
<glyph name="eng.sups" format="2">
	<unicode hex="1D51"/>
	<advance width="369"/>
	<outline>
		<contour>
			<point x="228" y="250" type="curve" smooth="yes"/>
			<point x="294" y="250"/>
			<point x="321" y="293"/>
			<point x="321" y="365" type="curve" smooth="yes"/>
			<point x="321" y="598" type="line" smooth="yes"/>
			<point x="321" y="673"/>
			<point x="294" y="724"/>
			<point x="219" y="724" type="curve" smooth="yes"/>
			<point x="176" y="724"/>
			<point x="139" y="700"/>
			<point x="111" y="671" type="curve"/>
			<point x="107" y="671" type="line"/>
			<point x="101" y="716" type="line"/>
			<point x="52" y="716" type="line"/>
			<point x="52" y="395" type="line"/>
			<point x="114" y="395" type="line"/>
			<point x="114" y="624" type="line"/>
			<point x="146" y="656"/>
			<point x="172" y="671"/>
			<point x="199" y="671" type="curve" smooth="yes"/>
			<point x="248" y="671"/>
			<point x="259" y="640"/>
			<point x="259" y="589" type="curve" smooth="yes"/>
			<point x="259" y="361" type="line" smooth="yes"/>
			<point x="259" y="322"/>
			<point x="251" y="301"/>
			<point x="220" y="301" type="curve" smooth="yes"/>
			<point x="207" y="301"/>
			<point x="200" y="303"/>
			<point x="191" y="307" type="curve"/>
			<point x="179" y="258" type="line"/>
			<point x="194" y="253"/>
			<point x="206" y="250"/>
		</contour>
	</outline>
	<anchor name="aboveLC" x="191" y="731"/>
</glyph>
<glyph name="o.sups" format="2">
	<unicode hex="1D52"/>
	<advance width="365"/>
	<outline>
		<contour>
			<point x="182" y="387" type="curve" smooth="yes"/>
			<point x="264" y="387"/>
			<point x="334" y="449"/>
			<point x="334" y="555" type="curve" smooth="yes"/>
			<point x="334" y="663"/>
			<point x="264" y="724"/>
			<point x="182" y="724" type="curve" smooth="yes"/>
			<point x="99" y="724"/>
			<point x="30" y="663"/>
			<point x="30" y="555" type="curve" smooth="yes"/>
			<point x="30" y="449"/>
			<point x="99" y="387"/>
		</contour>
		<contour>
			<point x="182" y="438" type="curve" smooth="yes"/>
			<point x="127" y="438"/>
			<point x="93" y="486"/>
			<point x="93" y="555" type="curve" smooth="yes"/>
			<point x="93" y="626"/>
			<point x="127" y="673"/>
			<point x="182" y="673" type="curve" smooth="yes"/>
			<point x="237" y="673"/>
			<point x="270" y="626"/>
			<point x="270" y="555" type="curve" smooth="yes"/>
			<point x="270" y="486"/>
			<point x="237" y="438"/>
		</contour>
	</outline>
</glyph>
<glyph name="p.sups" format="2">
	<unicode hex="1D56"/>
	<advance width="374"/>
	<outline>
		<contour>
			<point x="52" y="257" type="line"/>
			<point x="114" y="257" type="line"/>
			<point x="114" y="361" type="line"/>
			<point x="110" y="424" type="line"/>
			<point x="137" y="400"/>
			<point x="172" y="387"/>
			<point x="201" y="387" type="curve" smooth="yes"/>
			<point x="275" y="387"/>
			<point x="341" y="451"/>
			<point x="341" y="561" type="curve" smooth="yes"/>
			<point x="341" y="660"/>
			<point x="295" y="724"/>
			<point x="211" y="724" type="curve" smooth="yes"/>
			<point x="172" y="724"/>
			<point x="137" y="703"/>
			<point x="111" y="679" type="curve"/>
			<point x="108" y="679" type="line"/>
			<point x="101" y="716" type="line"/>
			<point x="52" y="716" type="line"/>
		</contour>
		<contour>
			<point x="192" y="438" type="curve" smooth="yes"/>
			<point x="169" y="438"/>
			<point x="140" y="447"/>
			<point x="114" y="469" type="curve"/>
			<point x="114" y="630" type="line"/>
			<point x="142" y="658"/>
			<point x="170" y="673"/>
			<point x="196" y="673" type="curve" smooth="yes"/>
			<point x="252" y="673"/>
			<point x="277" y="630"/>
			<point x="277" y="561" type="curve" smooth="yes"/>
			<point x="277" y="482"/>
			<point x="240" y="438"/>
		</contour>
	</outline>
</glyph>
<glyph name="nhookleft.sups" format="2">
	<unicode hex="1DAE"/>
	<advance width="371"/>
	<outline>
		<contour>
			<point x="50" y="250" type="curve" smooth="yes"/>
			<point x="99" y="250"/>
			<point x="116" y="280"/>
			<point x="116" y="331" type="curve" smooth="yes"/>
			<point x="116" y="624" type="line"/>
			<point x="148" y="656"/>
			<point x="174" y="671"/>
			<point x="201" y="671" type="curve" smooth="yes"/>
			<point x="250" y="671"/>
			<point x="261" y="640"/>
			<point x="261" y="589" type="curve" smooth="yes"/>
			<point x="261" y="395" type="line"/>
			<point x="323" y="395" type="line"/>
			<point x="323" y="598" type="line" smooth="yes"/>
			<point x="323" y="673"/>
			<point x="296" y="724"/>
			<point x="221" y="724" type="curve" smooth="yes"/>
			<point x="178" y="724"/>
			<point x="141" y="700"/>
			<point x="113" y="671" type="curve"/>
			<point x="109" y="671" type="line"/>
			<point x="103" y="716" type="line"/>
			<point x="54" y="716" type="line"/>
			<point x="54" y="326" type="line" smooth="yes"/>
			<point x="54" y="308"/>
			<point x="47" y="301"/>
			<point x="37" y="301" type="curve" smooth="yes"/>
			<point x="33" y="301"/>
			<point x="30" y="301"/>
			<point x="24" y="303" type="curve"/>
			<point x="15" y="256" type="line"/>
			<point x="24" y="253"/>
			<point x="34" y="250"/>
		</contour>
	</outline>
</glyph>
<glyph name="theta.sups" format="2">
	<unicode hex="1DBF"/>
	<advance width="365"/>
	<outline>
		<contour>
			<point x="182" y="387" type="curve" smooth="yes"/>
			<point x="260" y="387"/>
			<point x="327" y="447"/>
			<point x="327" y="632" type="curve" smooth="yes"/>
			<point x="327" y="817"/>
			<point x="260" y="874"/>
			<point x="182" y="874" type="curve" smooth="yes"/>
			<point x="103" y="874"/>
			<point x="36" y="817"/>
			<point x="36" y="632" type="curve" smooth="yes"/>
			<point x="36" y="447"/>
			<point x="103" y="387"/>
		</contour>
		<contour>
			<point x="182" y="438" type="curve" smooth="yes"/>
			<point x="130" y="438"/>
			<point x="100" y="490"/>
			<point x="100" y="632" type="curve" smooth="yes"/>
			<point x="100" y="774"/>
			<point x="130" y="823"/>
			<point x="182" y="823" type="curve" smooth="yes"/>
			<point x="233" y="823"/>
			<point x="264" y="774"/>
			<point x="264" y="632" type="curve" smooth="yes"/>
			<point x="264" y="490"/>
			<point x="233" y="438"/>
		</contour>
		<contour>
			<point x="61" y="609" type="line"/>
			<point x="299" y="609" type="line"/>
			<point x="299" y="658" type="line"/>
			<point x="61" y="658" type="line"/>
		</contour>
	</outline>
</glyph>
<glyph name="hyphen" format="2">
	<unicode hex="2011"/>
	<unicode hex="002D"/>
	<unicode hex="00AD"/>
	<unicode hex="2010"/>
	<advance width="311"/>
	<outline>
		<contour>
			<point x="41" y="219" type="line"/>
			<point x="271" y="219" type="line"/>
			<point x="271" y="282" type="line"/>
			<point x="41" y="282" type="line"/>
		</contour>
	</outline>
</glyph>
<glyph name="quoteleft" format="2">
	<unicode hex="2018"/>
	<advance width="249"/>
	<outline>
		<contour>
			<point x="120" y="435" type="curve" smooth="yes"/>
			<point x="151" y="435"/>
			<point x="173" y="456"/>
			<point x="173" y="491" type="curve" smooth="yes"/>
			<point x="173" y="523"/>
			<point x="147" y="541"/>
			<point x="120" y="541" type="curve" smooth="yes"/>
			<point x="104" y="541"/>
			<point x="93" y="536"/>
			<point x="81" y="524" type="curve"/>
			<point x="123" y="473" type="line"/>
			<point x="111" y="539" type="line"/>
			<point x="111" y="596"/>
			<point x="136" y="631"/>
			<point x="187" y="664" type="curve"/>
			<point x="163" y="703" type="line"/>
			<point x="94" y="663"/>
			<point x="57" y="605"/>
			<point x="57" y="526" type="curve" smooth="yes"/>
			<point x="57" y="468"/>
			<point x="80" y="435"/>
		</contour>
	</outline>
</glyph>
<glyph name="daggerdbl" format="2">
	<unicode hex="2021"/>
	<advance width="454"/>
	<outline>
		<contour>
			<point x="192" y="-80" type="line"/>
			<point x="262" y="-80" type="line"/>
			<point x="257" y="88" type="line"/>
			<point x="400" y="83" type="line"/>
			<point x="400" y="153" type="line"/>
			<point x="257" y="147" type="line"/>
			<point x="262" y="316" type="line"/>
			<point x="257" y="485" type="line"/>
			<point x="400" y="479" type="line"/>
			<point x="400" y="549" type="line"/>
			<point x="257" y="544" type="line"/>
			<point x="262" y="712" type="line"/>
			<point x="192" y="712" type="line"/>
			<point x="197" y="544" type="line"/>
			<point x="54" y="549" type="line"/>
			<point x="54" y="479" type="line"/>
			<point x="197" y="485" type="line"/>
			<point x="192" y="316" type="line"/>
			<point x="197" y="147" type="line"/>
			<point x="54" y="153" type="line"/>
			<point x="54" y="83" type="line"/>
			<point x="197" y="88" type="line"/>
		</contour>
	</outline>
</glyph>
<glyph name="interrobang" format="2">
	<unicode hex="203D"/>
	<advance width="432"/>
	<outline>
		<contour>
			<point x="171" y="198" type="line"/>
			<point x="225" y="198" type="line"/>
			<point x="225" y="345"/>
			<point x="385" y="374"/>
			<point x="385" y="525" type="curve" smooth="yes"/>
			<point x="385" y="616"/>
			<point x="314" y="682"/>
			<point x="206" y="682" type="curve" smooth="yes"/>
			<point x="134" y="682"/>
			<point x="73" y="650"/>
			<point x="27" y="596" type="curve"/>
			<point x="74" y="553" type="line"/>
			<point x="110" y="597"/>
			<point x="152" y="617"/>
			<point x="200" y="617" type="curve" smooth="yes"/>
			<point x="270" y="617"/>
			<point x="308" y="570"/>
			<point x="308" y="512" type="curve" smooth="yes"/>
			<point x="308" y="428"/>
			<point x="242" y="389"/>
			<point x="209" y="303" type="curve"/>
			<point x="219" y="300" type="line"/>
			<point x="226" y="467" type="line"/>
			<point x="226" y="532" type="line"/>
			<point x="156" y="532" type="line"/>
			<point x="161" y="449" type="line"/>
		</contour>
		<contour>
			<point x="198" y="-12" type="curve" smooth="yes"/>
			<point x="231" y="-12"/>
			<point x="258" y="14"/>
			<point x="258" y="50" type="curve" smooth="yes"/>
			<point x="258" y="88"/>
			<point x="231" y="114"/>
			<point x="198" y="114" type="curve" smooth="yes"/>
			<point x="165" y="114"/>
			<point x="139" y="88"/>
			<point x="139" y="50" type="curve" smooth="yes"/>
			<point x="139" y="14"/>
			<point x="165" y="-12"/>
		</contour>
	</outline>
</glyph>
<glyph name="ettironian" format="2">
	<unicode hex="204A"/>
	<advance width="444"/>
	<outline>
		<contour>
			<point x="152" y="-176" type="line"/>
			<point x="235" y="-176" type="line"/>
			<point x="401" y="442" type="line"/>
			<point x="401" y="486" type="line"/>
			<point x="53" y="486" type="line"/>
			<point x="53" y="419" type="line"/>
			<point x="327" y="419" type="line"/>
		</contour>
	</outline>
</glyph>
<glyph name="franc" format="2">
	<unicode hex="20A3"/>
	<advance width="497"/>
	<outline>
		<contour>
			<point x="131" y="0" type="line"/>
			<point x="210" y="0" type="line"/>
			<point x="210" y="300" type="line"/>
			<point x="418" y="300" type="line"/>
			<point x="418" y="370" type="line"/>
			<point x="210" y="370" type="line"/>
			<point x="210" y="567" type="line"/>
			<point x="467" y="567" type="line"/>
			<point x="467" y="638" type="line"/>
			<point x="131" y="638" type="line"/>
		</contour>
		<contour>
			<point x="52" y="124" type="line"/>
			<point x="358" y="124" type="line"/>
			<point x="358" y="180" type="line"/>
			<point x="133" y="180" type="line"/>
			<point x="52" y="176" type="line"/>
		</contour>
	</outline>
</glyph>
<glyph name="cedi" format="2">
	<unicode hex="20B5"/>
	<advance width="497"/>
	<outline>
		<contour>
			<point x="306" y="-12" type="curve" smooth="yes"/>
			<point x="378" y="-12"/>
			<point x="433" y="21"/>
			<point x="476" y="81" type="curve"/>
			<point x="428" y="121" type="line"/>
			<point x="398" y="76"/>
			<point x="361" y="54"/>
			<point x="311" y="54" type="curve" smooth="yes"/>
			<point x="205" y="54"/>
			<point x="146" y="157"/>
			<point x="146" y="321" type="curve" smooth="yes"/>
			<point x="146" y="482"/>
			<point x="207" y="584"/>
			<point x="318" y="584" type="curve" smooth="yes"/>
			<point x="363" y="584"/>
			<point x="395" y="565"/>
			<point x="422" y="529" type="curve"/>
			<point x="469" y="572" type="line"/>
			<point x="436" y="620"/>
			<point x="381" y="650"/>
			<point x="320" y="650" type="curve" smooth="yes"/>
			<point x="164" y="650"/>
			<point x="61" y="524"/>
			<point x="61" y="318" type="curve" smooth="yes"/>
			<point x="61" y="112"/>
			<point x="160" y="-12"/>
		</contour>
		<contour>
			<point x="279" y="-110" type="line"/>
			<point x="331" y="-110" type="line"/>
			<point x="331" y="745" type="line"/>
			<point x="279" y="745" type="line"/>
		</contour>
	</outline>
</glyph>
<glyph name="tenge" format="2">
	<unicode hex="20B8"/>
	<advance width="497"/>
	<outline>
		<contour>
			<point x="207" y="0" type="line"/>
			<point x="289" y="0" type="line"/>
			<point x="289" y="465" type="line"/>
			<point x="461" y="465" type="line"/>
			<point x="461" y="517" type="line"/>
			<point x="104" y="517" type="line"/>
			<point x="34" y="513" type="line"/>
			<point x="34" y="465" type="line"/>
			<point x="207" y="465" type="line"/>
		</contour>
		<contour>
			<point x="34" y="585" type="line"/>
			<point x="461" y="585" type="line"/>
			<point x="461" y="638" type="line"/>
			<point x="34" y="638" type="line"/>
		</contour>
	</outline>
</glyph>
<glyph name="soundcopyright" format="2">
	<unicode hex="2117"/>
	<advance width="743"/>
	<outline>
		<contour>
			<point x="372" y="-11" type="curve" smooth="yes"/>
			<point x="546" y="-11"/>
			<point x="695" y="119"/>
			<point x="695" y="323" type="curve" smooth="yes"/>
			<point x="695" y="526"/>
			<point x="546" y="653"/>
			<point x="372" y="653" type="curve" smooth="yes"/>
			<point x="198" y="653"/>
			<point x="49" y="526"/>
			<point x="49" y="323" type="curve" smooth="yes"/>
			<point x="49" y="119"/>
			<point x="198" y="-11"/>
		</contour>
		<contour>
			<point x="372" y="31" type="curve" smooth="yes"/>
			<point x="221" y="31"/>
			<point x="96" y="148"/>
			<point x="96" y="323" type="curve" smooth="yes"/>
			<point x="96" y="497"/>
			<point x="221" y="612"/>
			<point x="372" y="612" type="curve" smooth="yes"/>
			<point x="523" y="612"/>
			<point x="648" y="497"/>
			<point x="648" y="323" type="curve" smooth="yes"/>
			<point x="648" y="148"/>
			<point x="523" y="31"/>
		</contour>
		<contour>
			<point x="253" y="140" type="line"/>
			<point x="318" y="140" type="line"/>
			<point x="318" y="255" type="line"/>
			<point x="391" y="255" type="line" smooth="yes"/>
			<point x="473" y="255"/>
			<point x="539" y="298"/>
			<point x="539" y="385" type="curve" smooth="yes"/>
			<point x="539" y="467"/>
			<point x="474" y="502"/>
			<point x="391" y="502" type="curve" smooth="yes"/>
			<point x="253" y="502" type="line"/>
		</contour>
		<contour>
			<point x="318" y="304" type="line"/>
			<point x="318" y="451" type="line"/>
			<point x="380" y="451" type="line" smooth="yes"/>
			<point x="439" y="451"/>
			<point x="474" y="431"/>
			<point x="474" y="384" type="curve" smooth="yes"/>
			<point x="474" y="329"/>
			<point x="440" y="304"/>
			<point x="380" y="304" type="curve" smooth="yes"/>
		</contour>
	</outline>
</glyph>
<glyph name="arrowdbldown" format="2">
	<unicode hex="21D3"/>
	<advance width="619"/>
	<outline>
		<contour>
			<point x="307" y="-25" type="line"/>
			<point x="311" y="-25" type="line"/>
			<point x="577" y="248" type="line"/>
			<point x="530" y="290" type="line"/>
			<point x="311" y="53" type="line"/>
			<point x="307" y="53" type="line"/>
			<point x="88" y="290" type="line"/>
			<point x="42" y="248" type="line"/>
		</contour>
		<contour>
			<point x="192" y="104" type="line"/>
			<point x="245" y="104" type="line"/>
			<point x="245" y="527" type="line"/>
			<point x="192" y="527" type="line"/>
		</contour>
		<contour>
			<point x="373" y="104" type="line"/>
			<point x="427" y="104" type="line"/>
			<point x="427" y="527" type="line"/>
			<point x="373" y="527" type="line"/>
		</contour>
	</outline>
</glyph>
<glyph name="universal" format="2">
	<unicode hex="2200"/>
	<advance width="544"/>
	<outline>
		<contour>
			<point x="225" y="0" type="line"/>
			<point x="319" y="0" type="line"/>
			<point x="541" y="656" type="line"/>
			<point x="456" y="656" type="line"/>
			<point x="340" y="290" type="line" smooth="yes"/>
			<point x="317" y="216"/>
			<point x="296" y="145"/>
			<point x="275" y="69" type="curve"/>
			<point x="271" y="69" type="line"/>
			<point x="250" y="144"/>
			<point x="229" y="216"/>
			<point x="206" y="290" type="curve" smooth="yes"/>
			<point x="91" y="656" type="line"/>
			<point x="3" y="656" type="line"/>
		</contour>
		<contour>
			<point x="122" y="390" type="line"/>
			<point x="424" y="390" type="line"/>
			<point x="424" y="456" type="line"/>
			<point x="122" y="456" type="line"/>
		</contour>
	</outline>
</glyph>
<glyph name="Delta" format="2">
	<unicode hex="2206"/>
	<unicode hex="0394"/>
	<advance width="588"/>
	<outline>
		<contour>
			<point x="30" y="0" type="line"/>
			<point x="558" y="0" type="line"/>
			<point x="558" y="50" type="line"/>
			<point x="342" y="656" type="line"/>
			<point x="246" y="656" type="line"/>
			<point x="30" y="50" type="line"/>
		</contour>
		<contour>
			<point x="120" y="71" type="line"/>
			<point x="222" y="371" type="line"/>
			<point x="291" y="581" type="line"/>
			<point x="295" y="581" type="line"/>
			<point x="364" y="371" type="line"/>
			<point x="466" y="71" type="line"/>
		</contour>
	</outline>
	<anchor name="aboveUC" x="292" y="678"/>
</glyph>
<glyph name="summation" format="2">
	<unicode hex="2211"/>
	<advance width="504"/>
	<outline>
		<contour>
			<point x="22" y="-120" type="line"/>
			<point x="501" y="-120" type="line"/>
			<point x="501" y="-49" type="line"/>
			<point x="126" y="-49" type="line"/>
			<point x="126" y="-45" type="line"/>
			<point x="348" y="260" type="line"/>
			<point x="136" y="563" type="line"/>
			<point x="136" y="567" type="line"/>
			<point x="473" y="567" type="line"/>
			<point x="473" y="638" type="line"/>
			<point x="33" y="638" type="line"/>
			<point x="33" y="585" type="line"/>
			<point x="260" y="259" type="line"/>
			<point x="22" y="-67" type="line"/>
		</contour>
	</outline>
</glyph>
<glyph name="integral" format="2">
	<unicode hex="222B"/>
	<advance width="332"/>
	<outline>
		<contour>
			<point x="100" y="-158" type="curve" smooth="yes"/>
			<point x="214" y="-158"/>
			<point x="238" y="-60"/>
			<point x="238" y="71" type="curve" smooth="yes"/>
			<point x="238" y="219"/>
			<point x="197" y="418"/>
			<point x="197" y="563" type="curve" smooth="yes"/>
			<point x="197" y="666"/>
			<point x="207" y="725"/>
			<point x="262" y="725" type="curve" smooth="yes"/>
			<point x="276" y="725"/>
			<point x="288" y="723"/>
			<point x="297" y="721" type="curve"/>
			<point x="307" y="783" type="line"/>
			<point x="299" y="786"/>
			<point x="280" y="789"/>
			<point x="260" y="789" type="curve" smooth="yes"/>
			<point x="145" y="789"/>
			<point x="121" y="690"/>
			<point x="121" y="561" type="curve" smooth="yes"/>
			<point x="121" y="413"/>
			<point x="163" y="213"/>
			<point x="163" y="67" type="curve" smooth="yes"/>
			<point x="163" y="-37"/>
			<point x="153" y="-93"/>
			<point x="96" y="-93" type="curve" smooth="yes"/>
			<point x="82" y="-93"/>
			<point x="70" y="-92"/>
			<point x="62" y="-89" type="curve"/>
			<point x="52" y="-151" type="line"/>
			<point x="61" y="-155"/>
			<point x="79" y="-158"/>
		</contour>
	</outline>
</glyph>
<glyph name="control" format="2">
	<unicode hex="2303"/>
	<advance width="800"/>
	<outline>
		<contour>
			<point x="142" y="391" type="line"/>
			<point x="400" y="634" type="line"/>
			<point x="658" y="391" type="line"/>
			<point x="706" y="441" type="line"/>
			<point x="400" y="723" type="line"/>
			<point x="94" y="441" type="line"/>
		</contour>
	</outline>
</glyph>
<glyph name="floorleft" format="2">
	<unicode hex="231E"/>
	<advance width="303"/>
	<outline>
		<contour>
			<point x="94" y="-52" type="line"/>
			<point x="273" y="-52" type="line"/>
			<point x="273" y="-5" type="line"/>
			<point x="156" y="-5" type="line"/>
			<point x="156" y="638" type="line"/>
			<point x="94" y="638" type="line"/>
		</contour>
	</outline>
</glyph>
<glyph name="bulletsquare" format="2">
	<unicode hex="25AA"/>
	<advance width="304"/>
	<outline>
		<contour>
			<point x="35" y="146" type="line"/>
			<point x="270" y="146" type="line"/>
			<point x="270" y="378" type="line"/>
			<point x="35" y="378" type="line"/>
		</contour>
	</outline>
</glyph>
<glyph name="bulletsquarewhite" format="2">
	<unicode hex="25AB"/>
	<advance width="304"/>
	<outline>
		<contour>
			<point x="22" y="133" type="line"/>
			<point x="282" y="133" type="line"/>
			<point x="282" y="391" type="line"/>
			<point x="22" y="391" type="line"/>
		</contour>
		<contour>
			<point x="72" y="178" type="line"/>
			<point x="72" y="346" type="line"/>
			<point x="233" y="346" type="line"/>
			<point x="233" y="178" type="line"/>
		</contour>
	</outline>
</glyph>
<glyph name="trianglesmalldownwhite" format="2">
	<unicode hex="25BF"/>
	<advance width="304"/>
	<outline>
		<contour>
			<point x="151" y="94" type="line"/>
			<point x="154" y="94" type="line"/>
			<point x="319" y="388" type="line"/>
			<point x="319" y="391" type="line"/>
			<point x="-15" y="391" type="line"/>
			<point x="-15" y="388" type="line"/>
		</contour>
		<contour>
			<point x="152" y="179" type="line"/>
			<point x="60" y="347" type="line"/>
			<point x="244" y="347" type="line"/>
		</contour>
	</outline>
</glyph>
<glyph name="trianglesmallleftwhite" format="2">
	<unicode hex="25C3"/>
	<advance width="304"/>
	<outline>
		<contour>
			<point x="284" y="96" type="line"/>
			<point x="287" y="96" type="line"/>
			<point x="287" y="430" type="line"/>
			<point x="284" y="430" type="line"/>
			<point x="-10" y="264" type="line"/>
			<point x="-10" y="261" type="line"/>
		</contour>
		<contour>
			<point x="243" y="170" type="line"/>
			<point x="75" y="263" type="line"/>
			<point x="243" y="355" type="line"/>
		</contour>
	</outline>
</glyph>
<glyph name="circledotted" format="2">
	<unicode hex="25CC"/>
	<advance width="585"/>
	<outline>
		<contour>
			<point x="108" y="97" type="curve" smooth="yes"/>
			<point x="130" y="97"/>
			<point x="144" y="111"/>
			<point x="144" y="133" type="curve" smooth="yes"/>
			<point x="144" y="157"/>
			<point x="129" y="171"/>
			<point x="108" y="171" type="curve" smooth="yes"/>
			<point x="90" y="171"/>
			<point x="74" y="157"/>
			<point x="74" y="133" type="curve" smooth="yes"/>
			<point x="74" y="111"/>
			<point x="90" y="97"/>
		</contour>
		<contour>
			<point x="80" y="206" type="curve" smooth="yes"/>
			<point x="102" y="206"/>
			<point x="117" y="220"/>
			<point x="117" y="243" type="curve" smooth="yes"/>
			<point x="117" y="267"/>
			<point x="101" y="279"/>
			<point x="80" y="279" type="curve" smooth="yes"/>
			<point x="62" y="279"/>
			<point x="46" y="267"/>
			<point x="46" y="243" type="curve" smooth="yes"/>
			<point x="46" y="220"/>
			<point x="62" y="206"/>
		</contour>
		<contour>
			<point x="108" y="316" type="curve" smooth="yes"/>
			<point x="130" y="316"/>
			<point x="144" y="330"/>
			<point x="144" y="354" type="curve" smooth="yes"/>
			<point x="144" y="378"/>
			<point x="129" y="390"/>
			<point x="108" y="390" type="curve" smooth="yes"/>
			<point x="90" y="390"/>
			<point x="74" y="378"/>
			<point x="74" y="354" type="curve" smooth="yes"/>
			<point x="74" y="330"/>
			<point x="90" y="316"/>
		</contour>
		<contour>
			<point x="186" y="15" type="curve" smooth="yes"/>
			<point x="207" y="15"/>
			<point x="222" y="28"/>
			<point x="222" y="53" type="curve" smooth="yes"/>
			<point x="222" y="76"/>
			<point x="206" y="88"/>
			<point x="186" y="88" type="curve" smooth="yes"/>
			<point x="167" y="88"/>
			<point x="152" y="76"/>
			<point x="152" y="53" type="curve" smooth="yes"/>
			<point x="152" y="28"/>
			<point x="167" y="15"/>
		</contour>
		<contour>
			<point x="186" y="398" type="curve" smooth="yes"/>
			<point x="207" y="398"/>
			<point x="222" y="412"/>
			<point x="222" y="434" type="curve" smooth="yes"/>
			<point x="222" y="459"/>
			<point x="206" y="471"/>
			<point x="186" y="471" type="curve" smooth="yes"/>
			<point x="167" y="471"/>
			<point x="152" y="459"/>
			<point x="152" y="434" type="curve" smooth="yes"/>
			<point x="152" y="412"/>
			<point x="167" y="398"/>
		</contour>
		<contour>
			<point x="292" y="-12" type="curve" smooth="yes"/>
			<point x="313" y="-12"/>
			<point x="328" y="1"/>
			<point x="328" y="25" type="curve" smooth="yes"/>
			<point x="328" y="48"/>
			<point x="313" y="61"/>
			<point x="292" y="61" type="curve" smooth="yes"/>
			<point x="273" y="61"/>
			<point x="258" y="48"/>
			<point x="258" y="25" type="curve" smooth="yes"/>
			<point x="258" y="1"/>
			<point x="273" y="-12"/>
		</contour>
		<contour>
			<point x="292" y="424" type="curve" smooth="yes"/>
			<point x="313" y="424"/>
			<point x="328" y="438"/>
			<point x="328" y="462" type="curve" smooth="yes"/>
			<point x="328" y="485"/>
			<point x="313" y="498"/>
			<point x="292" y="498" type="curve" smooth="yes"/>
			<point x="273" y="498"/>
			<point x="258" y="485"/>
			<point x="258" y="462" type="curve" smooth="yes"/>
			<point x="258" y="438"/>
			<point x="273" y="424"/>
		</contour>
		<contour>
			<point x="398" y="15" type="curve" smooth="yes"/>
			<point x="420" y="15"/>
			<point x="434" y="28"/>
			<point x="434" y="53" type="curve" smooth="yes"/>
			<point x="434" y="76"/>
			<point x="418" y="88"/>
			<point x="398" y="88" type="curve" smooth="yes"/>
			<point x="380" y="88"/>
			<point x="364" y="76"/>
			<point x="364" y="53" type="curve" smooth="yes"/>
			<point x="364" y="28"/>
			<point x="380" y="15"/>
		</contour>
		<contour>
			<point x="398" y="397" type="curve" smooth="yes"/>
			<point x="420" y="397"/>
			<point x="434" y="412"/>
			<point x="434" y="434" type="curve" smooth="yes"/>
			<point x="434" y="458"/>
			<point x="418" y="471"/>
			<point x="398" y="471" type="curve" smooth="yes"/>
			<point x="380" y="471"/>
			<point x="364" y="458"/>
			<point x="364" y="434" type="curve" smooth="yes"/>
			<point x="364" y="412"/>
			<point x="380" y="397"/>
		</contour>
		<contour>
			<point x="477" y="97" type="curve" smooth="yes"/>
			<point x="499" y="97"/>
			<point x="512" y="111"/>
			<point x="512" y="133" type="curve" smooth="yes"/>
			<point x="512" y="157"/>
			<point x="497" y="171"/>
			<point x="477" y="171" type="curve" smooth="yes"/>
			<point x="458" y="171"/>
			<point x="442" y="157"/>
			<point x="442" y="133" type="curve" smooth="yes"/>
			<point x="442" y="111"/>
			<point x="458" y="97"/>
		</contour>
		<contour>
			<point x="504" y="206" type="curve" smooth="yes"/>
			<point x="525" y="206"/>
			<point x="540" y="220"/>
			<point x="540" y="243" type="curve" smooth="yes"/>
			<point x="540" y="267"/>
			<point x="523" y="279"/>
			<point x="504" y="279" type="curve" smooth="yes"/>
			<point x="484" y="279"/>
			<point x="469" y="267"/>
			<point x="469" y="243" type="curve" smooth="yes"/>
			<point x="469" y="220"/>
			<point x="484" y="206"/>
		</contour>
		<contour>
			<point x="477" y="316" type="curve" smooth="yes"/>
			<point x="499" y="316"/>
			<point x="512" y="329"/>
			<point x="512" y="353" type="curve" smooth="yes"/>
			<point x="512" y="376"/>
			<point x="497" y="389"/>
			<point x="477" y="389" type="curve" smooth="yes"/>
			<point x="458" y="389"/>
			<point x="442" y="376"/>
			<point x="442" y="353" type="curve" smooth="yes"/>
			<point x="442" y="329"/>
			<point x="458" y="316"/>
		</contour>
	</outline>
	<anchor name="aboveLC" x="293" y="509"/>
	<anchor name="aboverightLC" x="473" y="509"/>
	<anchor name="baseLC" x="293" y="0"/>
	<anchor name="belowLC" x="293" y="-22"/>
	<anchor name="center" x="293" y="245"/>
	<anchor name="hornLC" x="409" y="489"/>
	<anchor name="ogonekLC" x="293" y="0"/>
</glyph>
<glyph name="checkheavy" format="2">
	<unicode hex="2714"/>
	<advance width="656"/>
	<outline>
		<contour>
			<point x="170" y="-20" type="curve"/>
			<point x="320" y="-2" type="line"/>
			<point x="401" y="292"/>
			<point x="527" y="483"/>
			<point x="656" y="602" type="curve"/>
			<point x="556" y="689" type="line"/>
			<point x="424" y="555"/>
			<point x="306" y="341"/>
			<point x="240" y="101" type="curve"/>
			<point x="236" y="101" type="line"/>
			<point x="204" y="182"/>
			<point x="164" y="266"/>
			<point x="112" y="347" type="curve"/>
			<point x="9" y="280" type="line"/>
			<point x="82" y="179"/>
			<point x="128" y="93"/>
		</contour>
	</outline>
</glyph>
<glyph name="xballot" format="2">
	<unicode hex="2717"/>
	<advance width="533"/>
	<outline>
		<contour>
			<point x="112" y="-25" type="line"/>
			<point x="196" y="227"/>
			<point x="353" y="480"/>
			<point x="532" y="636" type="curve"/>
			<point x="483" y="684" type="line"/>
			<point x="306" y="524"/>
			<point x="131" y="260"/>
			<point x="50" y="7" type="curve"/>
		</contour>
		<contour>
			<point x="403" y="-1" type="curve"/>
			<point x="472" y="22" type="line"/>
			<point x="416" y="274"/>
			<point x="309" y="503"/>
			<point x="190" y="676" type="curve"/>
			<point x="128" y="638" type="line"/>
			<point x="248" y="462"/>
			<point x="343" y="246"/>
		</contour>
	</outline>
</glyph>
<glyph name="xballotheavy" format="2">
	<unicode hex="2718"/>
	<advance width="570"/>
	<outline>
		<contour>
			<point x="160" y="-34" type="line"/>
			<point x="246" y="212"/>
			<point x="397" y="456"/>
			<point x="574" y="610" type="curve"/>
			<point x="490" y="684" type="line"/>
			<point x="312" y="523"/>
			<point x="133" y="267"/>
			<point x="49" y="15" type="curve"/>
		</contour>
		<contour>
			<point x="402" y="-13" type="curve"/>
			<point x="523" y="22" type="line"/>
			<point x="467" y="276"/>
			<point x="353" y="506"/>
			<point x="226" y="676" type="curve"/>
			<point x="117" y="620" type="line"/>
			<point x="246" y="444"/>
			<point x="342" y="236"/>
		</contour>
	</outline>
</glyph>
<glyph name="quoteleftheavy" format="2">
	<unicode hex="275B"/>
	<advance width="360"/>
	<outline>
		<contour>
			<point x="190" y="204" type="curve" smooth="yes"/>
			<point x="281" y="204"/>
			<point x="343" y="272"/>
			<point x="343" y="370" type="curve" smooth="yes"/>
			<point x="343" y="459"/>
			<point x="278" y="516"/>
			<point x="195" y="516" type="curve" smooth="yes"/>
			<point x="145" y="516"/>
			<point x="102" y="493"/>
			<point x="79" y="461" type="curve"/>
			<point x="114" y="370" type="line"/>
			<point x="100" y="466" type="line"/>
			<point x="100" y="560"/>
			<point x="157" y="625"/>
			<point x="253" y="664" type="curve"/>
			<point x="230" y="706" type="line"/>
			<point x="87" y="652"/>
			<point x="17" y="542"/>
			<point x="17" y="404" type="curve" smooth="yes"/>
			<point x="17" y="282"/>
			<point x="80" y="204"/>
		</contour>
	</outline>
</glyph>
<glyph name="Lmiddletilde" format="2">
	<unicode hex="2C62"/>
	<advance width="556"/>
	<outline>
		<contour>
			<point x="360" y="284" type="curve" smooth="yes"/>
			<point x="425" y="284"/>
			<point x="451" y="341"/>
			<point x="455" y="412" type="curve"/>
			<point x="400" y="421" type="line"/>
			<point x="397" y="377"/>
			<point x="383" y="344"/>
			<point x="354" y="344" type="curve" smooth="yes"/>
			<point x="273" y="344"/>
			<point x="215" y="428"/>
			<point x="109" y="428" type="curve" smooth="yes"/>
			<point x="43" y="428"/>
			<point x="17" y="372"/>
			<point x="13" y="300" type="curve"/>
			<point x="68" y="291" type="line"/>
			<point x="71" y="337"/>
			<point x="85" y="368"/>
			<point x="115" y="368" type="curve" smooth="yes"/>
			<point x="195" y="368"/>
			<point x="253" y="284"/>
		</contour>
		<component base="L" xOffset="70"/>
	</outline>
	<anchor name="aboveUC" x="205" y="672"/>
	<anchor name="belowLC" x="335" y="-22"/>
</glyph>
<glyph name="tstroke" format="2">
	<unicode hex="2C66"/>
	<advance width="338"/>
	<outline>
		<contour>
			<point x="55" y="-31" type="line"/>
			<point x="352" y="518" type="line"/>
			<point x="318" y="536" type="line"/>
			<point x="21" y="-12" type="line"/>
		</contour>
		<component base="t"/>
	</outline>
	<anchor name="aboveLC" x="148" y="643"/>
	<anchor name="belowLC" x="215" y="-22"/>
</glyph>
<glyph name="brackhalftopright" format="2">
	<unicode hex="2E23"/>
	<advance width="303"/>
	<outline>
		<contour>
			<point x="147" y="278" type="line"/>
			<point x="209" y="278" type="line"/>
			<point x="209" y="708" type="line"/>
			<point x="31" y="708" type="line"/>
			<point x="31" y="661" type="line"/>
			<point x="147" y="661" type="line"/>
		</contour>
	</outline>
</glyph>
<glyph name="twoemdash" format="2">
	<unicode hex="2E3A"/>
	<advance width="1500"/>
	<outline>
		<contour>
			<point x="41" y="223" type="line"/>
			<point x="1459" y="223" type="line"/>
			<point x="1459" y="280" type="line"/>
			<point x="41" y="280" type="line"/>
		</contour>
	</outline>
</glyph>
<glyph name="Ettironian" format="2">
	<unicode hex="2E52"/>
	<advance width="478"/>
	<outline>
		<contour>
			<point x="167" y="0" type="line"/>
			<point x="256" y="0" type="line"/>
			<point x="421" y="607" type="line"/>
			<point x="421" y="656" type="line"/>
			<point x="37" y="656" type="line"/>
			<point x="37" y="586" type="line"/>
			<point x="343" y="586" type="line"/>
		</contour>
	</outline>
</glyph>
<glyph name="arrowdownmod" format="2">
	<unicode hex="A71C"/>
	<advance width="249"/>
	<outline>
		<contour>
			<point x="119" y="439" type="line"/>
			<point x="130" y="439" type="line"/>
			<point x="209" y="582" type="line"/>
			<point x="153" y="582" type="line"/>
			<point x="160" y="712" type="line"/>
			<point x="89" y="712" type="line"/>
			<point x="96" y="582" type="line"/>
			<point x="40" y="582" type="line"/>
		</contour>
	</outline>
</glyph>
<glyph name="AinEgypt" format="2">
	<unicode hex="A724"/>
	<advance width="289"/>
	<outline>
		<contour>
			<point x="211" y="386" type="curve"/>
			<point x="222" y="434" type="line"/>
			<point x="158" y="443"/>
			<point x="116" y="479"/>
			<point x="116" y="530" type="curve" smooth="yes"/>
			<point x="116" y="555"/>
			<point x="128" y="571"/>
			<point x="143" y="575" type="curve"/>
			<point x="125" y="575" type="line"/>
			<point x="132" y="554"/>
			<point x="153" y="540"/>
			<point x="176" y="540" type="curve" smooth="yes"/>
			<point x="211" y="540"/>
			<point x="238" y="564"/>
			<point x="238" y="599" type="curve" smooth="yes"/>
			<point x="238" y="640"/>
			<point x="209" y="667"/>
			<point x="157" y="667" type="curve" smooth="yes"/>
			<point x="95" y="667"/>
			<point x="46" y="621"/>
			<point x="46" y="540" type="curve" smooth="yes"/>
			<point x="46" y="453"/>
			<point x="106" y="394"/>
		</contour>
	</outline>
</glyph>
<glyph name="OO" format="2">
	<unicode hex="A74E"/>
	<advance width="1059"/>
	<outline>
		<contour>
			<point x="307" y="-12" type="curve" smooth="yes"/>
			<point x="408" y="-12"/>
			<point x="499" y="47"/>
			<point x="541" y="199" type="curve"/>
			<point x="518" y="199" type="line"/>
			<point x="560" y="47"/>
			<point x="651" y="-12"/>
			<point x="751" y="-12" type="curve" smooth="yes"/>
			<point x="900" y="-12"/>
			<point x="1007" y="120"/>
			<point x="1007" y="331" type="curve" smooth="yes"/>
			<point x="1007" y="540"/>
			<point x="900" y="668"/>
			<point x="751" y="668" type="curve" smooth="yes"/>
			<point x="651" y="668"/>
			<point x="560" y="610"/>
			<point x="518" y="458" type="curve"/>
			<point x="541" y="458" type="line"/>
			<point x="499" y="610"/>
			<point x="408" y="668"/>
			<point x="307" y="668" type="curve" smooth="yes"/>
			<point x="158" y="668"/>
			<point x="52" y="541"/>
			<point x="52" y="331" type="curve" smooth="yes"/>
			<point x="52" y="120"/>
			<point x="158" y="-12"/>
		</contour>
		<contour>
			<point x="315" y="61" type="curve" smooth="yes"/>
			<point x="207" y="61"/>
			<point x="138" y="167"/>
			<point x="138" y="331" type="curve" smooth="yes"/>
			<point x="138" y="494"/>
			<point x="207" y="595"/>
			<point x="315" y="595" type="curve" smooth="yes"/>
			<point x="420" y="595"/>
			<point x="489" y="494"/>
			<point x="489" y="331" type="curve" smooth="yes"/>
			<point x="489" y="167"/>
			<point x="420" y="61"/>
		</contour>
		<contour>
			<point x="744" y="61" type="curve" smooth="yes"/>
			<point x="639" y="61"/>
			<point x="570" y="167"/>
			<point x="570" y="331" type="curve" smooth="yes"/>
			<point x="570" y="494"/>
			<point x="639" y="595"/>
			<point x="744" y="595" type="curve" smooth="yes"/>
			<point x="852" y="595"/>
			<point x="921" y="494"/>
			<point x="921" y="331" type="curve" smooth="yes"/>
			<point x="921" y="167"/>
			<point x="852" y="61"/>
		</contour>
	</outline>
	<anchor name="aboveUC" x="529" y="678"/>
	<anchor name="belowLC" x="529" y="-22"/>
</glyph>
<glyph name="Rrotunda" format="2">
	<unicode hex="A75A"/>
	<advance width="472"/>
	<outline>
		<contour>
			<point x="340" y="-12" type="curve" smooth="yes"/>
			<point x="385" y="-12"/>
			<point x="425" y="-4"/>
			<point x="447" y="6" type="curve"/>
			<point x="431" y="68" type="line"/>
			<point x="410" y="62"/>
			<point x="382" y="58"/>
			<point x="345" y="58" type="curve" smooth="yes"/>
			<point x="241" y="58"/>
			<point x="172" y="91"/>
			<point x="138" y="155" type="curve"/>
			<point x="333" y="266"/>
			<point x="416" y="375"/>
			<point x="416" y="503" type="curve" smooth="yes"/>
			<point x="416" y="610"/>
			<point x="345" y="668"/>
			<point x="240" y="668" type="curve" smooth="yes"/>
			<point x="159" y="668"/>
			<point x="99" y="635"/>
			<point x="43" y="576" type="curve"/>
			<point x="86" y="531" type="line"/>
			<point x="128" y="573"/>
			<point x="171" y="595"/>
			<point x="227" y="595" type="curve" smooth="yes"/>
			<point x="293" y="595"/>
			<point x="333" y="558"/>
			<point x="333" y="489" type="curve" smooth="yes"/>
			<point x="333" y="393"/>
			<point x="265" y="294"/>
			<point x="46" y="179" type="curve"/>
			<point x="85" y="48"/>
			<point x="187" y="-12"/>
		</contour>
	</outline>
	<anchor name="aboveUC" x="250" y="678"/>
	<anchor name="belowLC" x="252" y="-22"/>
</glyph>
<glyph name="rrotunda" format="2">
	<unicode hex="A75B"/>
	<advance width="382"/>
	<outline>
		<contour>
			<point x="268" y="-12" type="curve" smooth="yes"/>
			<point x="298" y="-12"/>
			<point x="320" y="-7"/>
			<point x="335" y="1" type="curve"/>
			<point x="321" y="64" type="line"/>
			<point x="309" y="60"/>
			<point x="293" y="56"/>
			<point x="273" y="56" type="curve" smooth="yes"/>
			<point x="218" y="56"/>
			<point x="157" y="75"/>
			<point x="136" y="121" type="curve"/>
			<point x="255" y="185"/>
			<point x="326" y="258"/>
			<point x="326" y="362" type="curve" smooth="yes"/>
			<point x="326" y="447"/>
			<point x="268" y="498"/>
			<point x="177" y="498" type="curve" smooth="yes"/>
			<point x="118" y="498"/>
			<point x="67" y="471"/>
			<point x="25" y="433" type="curve"/>
			<point x="61" y="386" type="line"/>
			<point x="88" y="411"/>
			<point x="122" y="430"/>
			<point x="162" y="430" type="curve" smooth="yes"/>
			<point x="211" y="430"/>
			<point x="241" y="399"/>
			<point x="241" y="348" type="curve" smooth="yes"/>
			<point x="241" y="271"/>
			<point x="185" y="203"/>
			<point x="54" y="137" type="curve"/>
			<point x="82" y="24"/>
			<point x="170" y="-12"/>
		</contour>
	</outline>
	<anchor name="aboveLC" x="192" y="509"/>
	<anchor name="belowLC" x="185" y="-22"/>
</glyph>
<glyph name="That" format="2">
	<unicode hex="A764"/>
	<advance width="608"/>
	<outline>
		<contour>
			<point x="110" y="0" type="line"/>
			<point x="193" y="0" type="line"/>
			<point x="193" y="146" type="line"/>
			<point x="311" y="146" type="line" smooth="yes"/>
			<point x="455" y="146"/>
			<point x="553" y="212"/>
			<point x="553" y="353" type="curve" smooth="yes"/>
			<point x="553" y="499"/>
			<point x="456" y="550"/>
			<point x="311" y="550" type="curve" smooth="yes"/>
			<point x="193" y="550" type="line"/>
			<point x="193" y="656" type="line"/>
			<point x="110" y="656" type="line"/>
		</contour>
		<contour>
			<point x="193" y="214" type="line"/>
			<point x="193" y="482" type="line"/>
			<point x="301" y="482" type="line" smooth="yes"/>
			<point x="414" y="482"/>
			<point x="470" y="450"/>
			<point x="470" y="353" type="curve" smooth="yes"/>
			<point x="470" y="257"/>
			<point x="415" y="214"/>
			<point x="301" y="214" type="curve" smooth="yes"/>
		</contour>
		<contour>
			<point x="22" y="316" type="line"/>
			<point x="342" y="316" type="line"/>
			<point x="342" y="375" type="line"/>
			<point x="112" y="375" type="line"/>
			<point x="22" y="370" type="line"/>
		</contour>
	</outline>
</glyph>
<glyph name="that" format="2">
	<unicode hex="A765"/>
	<advance width="566"/>
	<outline>
		<contour>
			<point x="95" y="-205" type="line"/>
			<point x="177" y="-205" type="line"/>
			<point x="177" y="-41" type="line"/>
			<point x="175" y="44" type="line"/>
			<point x="219" y="9"/>
			<point x="265" y="-12"/>
			<point x="309" y="-12" type="curve" smooth="yes"/>
			<point x="421" y="-12"/>
			<point x="520" y="79"/>
			<point x="520" y="232" type="curve" smooth="yes"/>
			<point x="520" y="369"/>
			<point x="452" y="459"/>
			<point x="327" y="459" type="curve" smooth="yes"/>
			<point x="273" y="459"/>
			<point x="219" y="430"/>
			<point x="174" y="392" type="curve"/>
			<point x="177" y="479" type="line"/>
			<point x="177" y="712" type="line"/>
			<point x="95" y="712" type="line"/>
		</contour>
		<contour>
			<point x="11" y="560" type="line"/>
			<point x="359" y="560" type="line"/>
			<point x="359" y="619" type="line"/>
			<point x="98" y="619" type="line"/>
			<point x="11" y="614" type="line"/>
		</contour>
		<contour>
			<point x="435" y="231" type="curve" smooth="yes"/>
			<point x="435" y="126"/>
			<point x="376" y="57"/>
			<point x="295" y="57" type="curve" smooth="yes"/>
			<point x="263" y="57"/>
			<point x="221" y="71"/>
			<point x="177" y="108" type="curve"/>
			<point x="177" y="324" type="line"/>
			<point x="223" y="368"/>
			<point x="266" y="390"/>
			<point x="307" y="390" type="curve" smooth="yes"/>
			<point x="398" y="390"/>
			<point x="435" y="324"/>
		</contour>
	</outline>
</glyph>
<glyph name="Dinsular" format="2">
	<unicode hex="A779"/>
	<advance width="664"/>
	<outline>
		<contour>
			<point x="334" y="-12" type="curve" smooth="yes"/>
			<point x="498" y="-12"/>
			<point x="613" y="118"/>
			<point x="613" y="324" type="curve" smooth="yes"/>
			<point x="613" y="544"/>
			<point x="493" y="656"/>
			<point x="287" y="656" type="curve" smooth="yes"/>
			<point x="28" y="656" type="line"/>
			<point x="28" y="588" type="line"/>
			<point x="197" y="588" type="line"/>
			<point x="197" y="584" type="line"/>
			<point x="120" y="540"/>
			<point x="57" y="439"/>
			<point x="57" y="302" type="curve" smooth="yes"/>
			<point x="57" y="109"/>
			<point x="172" y="-12"/>
		</contour>
		<contour>
			<point x="336" y="61" type="curve" smooth="yes"/>
			<point x="220" y="61"/>
			<point x="144" y="157"/>
			<point x="144" y="313" type="curve" smooth="yes"/>
			<point x="144" y="462"/>
			<point x="218" y="585"/>
			<point x="327" y="585" type="curve" smooth="yes"/>
			<point x="445" y="585"/>
			<point x="526" y="492"/>
			<point x="526" y="331" type="curve" smooth="yes"/>
			<point x="526" y="168"/>
			<point x="451" y="61"/>
		</contour>
	</outline>
	<anchor name="aboveUC" x="334" y="678"/>
	<anchor name="belowLC" x="325" y="-22"/>
</glyph>
<glyph name="dinsular" format="2">
	<unicode hex="A77A"/>
	<advance width="533"/>
	<outline>
		<contour>
			<point x="269" y="-12" type="curve" smooth="yes"/>
			<point x="407" y="-12"/>
			<point x="484" y="90"/>
			<point x="484" y="268" type="curve" smooth="yes"/>
			<point x="484" y="473"/>
			<point x="314" y="625"/>
			<point x="117" y="720" type="curve"/>
			<point x="73" y="662" type="line"/>
			<point x="259" y="574"/>
			<point x="406" y="429"/>
			<point x="406" y="258" type="curve" smooth="yes"/>
			<point x="406" y="126"/>
			<point x="353" y="56"/>
			<point x="269" y="56" type="curve" smooth="yes"/>
			<point x="193" y="56"/>
			<point x="131" y="122"/>
			<point x="131" y="231" type="curve" smooth="yes"/>
			<point x="131" y="336"/>
			<point x="199" y="424"/>
			<point x="358" y="431" type="curve"/>
			<point x="319" y="485" type="line"/>
			<point x="152" y="478"/>
			<point x="53" y="369"/>
			<point x="53" y="229" type="curve" smooth="yes"/>
			<point x="53" y="78"/>
			<point x="152" y="-12"/>
		</contour>
	</outline>
	<anchor name="aboveUC" x="287" y="728"/>
	<anchor name="belowLC" x="264" y="-22"/>
</glyph>
<glyph name="Ginsular" format="2">
	<unicode hex="A77D"/>
	<advance width="603"/>
	<outline>
		<contour>
			<point x="306" y="-165" type="curve" smooth="yes"/>
			<point x="483" y="-165"/>
			<point x="580" y="-80"/>
			<point x="580" y="31" type="curve" smooth="yes"/>
			<point x="580" y="138"/>
			<point x="517" y="172"/>
			<point x="371" y="225" type="curve" smooth="yes"/>
			<point x="230" y="277"/>
			<point x="170" y="330"/>
			<point x="170" y="421" type="curve" smooth="yes"/>
			<point x="170" y="507"/>
			<point x="241" y="586"/>
			<point x="391" y="586" type="curve" smooth="yes"/>
			<point x="561" y="586" type="line"/>
			<point x="561" y="656" type="line"/>
			<point x="31" y="656" type="line"/>
			<point x="31" y="588" type="line"/>
			<point x="209" y="588" type="line"/>
			<point x="209" y="584" type="line"/>
			<point x="138" y="555"/>
			<point x="86" y="493"/>
			<point x="86" y="408" type="curve" smooth="yes"/>
			<point x="86" y="306"/>
			<point x="144" y="249"/>
			<point x="216" y="207" type="curve"/>
			<point x="216" y="203" type="line"/>
			<point x="119" y="159"/>
			<point x="54" y="95"/>
			<point x="54" y="9" type="curve" smooth="yes"/>
			<point x="54" y="-113"/>
			<point x="161" y="-165"/>
		</contour>
		<contour>
			<point x="313" y="-96" type="curve" smooth="yes"/>
			<point x="203" y="-96"/>
			<point x="131" y="-57"/>
			<point x="131" y="19" type="curve" smooth="yes"/>
			<point x="131" y="83"/>
			<point x="176" y="132"/>
			<point x="268" y="177" type="curve"/>
			<point x="391" y="128"/>
			<point x="495" y="116"/>
			<point x="495" y="25" type="curve" smooth="yes"/>
			<point x="495" y="-40"/>
			<point x="435" y="-96"/>
		</contour>
	</outline>
	<anchor name="aboveUC" x="306" y="678"/>
	<anchor name="belowLC" x="304" y="-157"/>
</glyph>
<glyph name="ginsularturned" format="2">
	<unicode hex="A77F"/>
	<advance width="484"/>
	<outline>
		<contour>
			<point x="28" y="-205" type="line"/>
			<point x="455" y="-205" type="line"/>
			<point x="455" y="-138" type="line"/>
			<point x="323" y="-138" type="line"/>
			<point x="323" y="-134" type="line"/>
			<point x="379" y="-106"/>
			<point x="417" y="-55"/>
			<point x="417" y="12" type="curve" smooth="yes"/>
			<point x="417" y="97"/>
			<point x="372" y="143"/>
			<point x="314" y="183" type="curve"/>
			<point x="314" y="187" type="line"/>
			<point x="389" y="224"/>
			<point x="439" y="278"/>
			<point x="439" y="350" type="curve" smooth="yes"/>
			<point x="439" y="447"/>
			<point x="351" y="498"/>
			<point x="238" y="498" type="curve" smooth="yes"/>
			<point x="94" y="498"/>
			<point x="14" y="427"/>
			<point x="14" y="330" type="curve" smooth="yes"/>
			<point x="14" y="243"/>
			<point x="60" y="211"/>
			<point x="180" y="165" type="curve" smooth="yes"/>
			<point x="286" y="123"/>
			<point x="338" y="76"/>
			<point x="338" y="-1" type="curve" smooth="yes"/>
			<point x="338" y="-70"/>
			<point x="284" y="-137"/>
			<point x="164" y="-138" type="curve" smooth="yes"/>
			<point x="97" y="-138" type="line"/>
			<point x="28" y="-144" type="line"/>
		</contour>
		<contour>
			<point x="270" y="210" type="curve"/>
			<point x="176" y="253"/>
			<point x="93" y="261"/>
			<point x="93" y="339" type="curve" smooth="yes"/>
			<point x="93" y="392"/>
			<point x="137" y="438"/>
			<point x="231" y="438" type="curve" smooth="yes"/>
			<point x="311" y="438"/>
			<point x="367" y="402"/>
			<point x="367" y="339" type="curve" smooth="yes"/>
			<point x="367" y="284"/>
			<point x="335" y="247"/>
		</contour>
	</outline>
	<anchor name="aboveLC" x="238" y="509"/>
	<anchor name="belowLC" x="232" y="-207"/>
</glyph>
<glyph name="lturned" format="2">
	<unicode hex="A781"/>
	<advance width="255"/>
	<outline>
		<contour>
			<point x="90" y="-205" type="line"/>
			<point x="172" y="-205" type="line"/>
			<point x="172" y="386" type="line" smooth="yes"/>
			<point x="172" y="456"/>
			<point x="147" y="496"/>
			<point x="85" y="496" type="curve" smooth="yes"/>
			<point x="65" y="496"/>
			<point x="50" y="492"/>
			<point x="38" y="487" type="curve"/>
			<point x="49" y="425" type="line"/>
			<point x="57" y="427"/>
			<point x="61" y="427"/>
			<point x="66" y="427" type="curve" smooth="yes"/>
			<point x="79" y="427"/>
			<point x="90" y="418"/>
			<point x="90" y="392" type="curve" smooth="yes"/>
		</contour>
	</outline>
	<anchor name="aboveLC" x="111" y="509"/>
	<anchor name="belowLC" x="131" y="-207"/>
</glyph>
<glyph name="rinsular" format="2">
	<unicode hex="A783"/>
	<advance width="507"/>
	<outline>
		<contour>
			<point x="82" y="-205" type="line"/>
			<point x="164" y="-205" type="line"/>
			<point x="164" y="334" type="line"/>
			<point x="215" y="403"/>
			<point x="255" y="430"/>
			<point x="304" y="430" type="curve" smooth="yes"/>
			<point x="355" y="430"/>
			<point x="388" y="397"/>
			<point x="388" y="339" type="curve" smooth="yes"/>
			<point x="388" y="254"/>
			<point x="350" y="179"/>
			<point x="236" y="106" type="curve"/>
			<point x="263" y="15"/>
			<point x="339" y="-12"/>
			<point x="419" y="-12" type="curve" smooth="yes"/>
			<point x="447" y="-12"/>
			<point x="468" y="-6"/>
			<point x="482" y="1" type="curve"/>
			<point x="467" y="64" type="line"/>
			<point x="456" y="60"/>
			<point x="444" y="56"/>
			<point x="427" y="56" type="curve" smooth="yes"/>
			<point x="383" y="56"/>
			<point x="334" y="73"/>
			<point x="320" y="106" type="curve"/>
			<point x="424" y="175"/>
			<point x="473" y="254"/>
			<point x="473" y="354" type="curve" smooth="yes"/>
			<point x="473" y="448"/>
			<point x="412" y="498"/>
			<point x="321" y="498" type="curve" smooth="yes"/>
			<point x="256" y="498"/>
			<point x="205" y="463"/>
			<point x="160" y="408" type="curve"/>
			<point x="157" y="408" type="line"/>
			<point x="150" y="486" type="line"/>
			<point x="82" y="486" type="line"/>
		</contour>
	</outline>
	<anchor name="aboveLC" x="292" y="509"/>
	<anchor name="belowLC" x="125" y="-207"/>
</glyph>
<glyph name="Sinsular" format="2">
	<unicode hex="A784"/>
	<advance width="566"/>
	<outline>
		<contour>
			<point x="90" y="-153" type="line"/>
			<point x="173" y="-153" type="line"/>
			<point x="173" y="499" type="line"/>
			<point x="212" y="553"/>
			<point x="275" y="595"/>
			<point x="325" y="595" type="curve" smooth="yes"/>
			<point x="399" y="595"/>
			<point x="442" y="554"/>
			<point x="442" y="427" type="curve" smooth="yes"/>
			<point x="442" y="367" type="line"/>
			<point x="526" y="377" type="line"/>
			<point x="526" y="437" type="line" smooth="yes"/>
			<point x="526" y="604"/>
			<point x="458" y="668"/>
			<point x="347" y="668" type="curve" smooth="yes"/>
			<point x="279" y="668"/>
			<point x="216" y="628"/>
			<point x="171" y="576" type="curve"/>
			<point x="171" y="656" type="line"/>
			<point x="90" y="656" type="line"/>
		</contour>
	</outline>
	<anchor name="aboveUC" x="326" y="678"/>
	<anchor name="belowLC" x="135" y="-157"/>
</glyph>
<glyph name="sinsular" format="2">
	<unicode hex="A785"/>
	<advance width="367"/>
	<outline>
		<contour>
			<point x="82" y="-205" type="line"/>
			<point x="164" y="-205" type="line"/>
			<point x="164" y="312" type="line"/>
			<point x="197" y="394"/>
			<point x="252" y="424"/>
			<point x="297" y="424" type="curve" smooth="yes"/>
			<point x="320" y="424"/>
			<point x="334" y="420"/>
			<point x="350" y="413" type="curve"/>
			<point x="370" y="484" type="line"/>
			<point x="351" y="493"/>
			<point x="332" y="498"/>
			<point x="308" y="498" type="curve" smooth="yes"/>
			<point x="248" y="498"/>
			<point x="193" y="459"/>
			<point x="160" y="398" type="curve"/>
			<point x="157" y="398" type="line"/>
			<point x="150" y="486" type="line"/>
			<point x="82" y="486" type="line"/>
		</contour>
	</outline>
	<anchor name="aboveLC" x="232" y="509"/>
	<anchor name="belowLC" x="125" y="-207"/>
</glyph>
<glyph name="Tinsular" format="2">
	<unicode hex="A786"/>
	<advance width="536"/>
	<outline>
		<contour>
			<point x="306" y="-12" type="curve" smooth="yes"/>
			<point x="388" y="-12"/>
			<point x="449" y="17"/>
			<point x="500" y="76" type="curve"/>
			<point x="456" y="124" type="line"/>
			<point x="417" y="82"/>
			<point x="371" y="61"/>
			<point x="313" y="61" type="curve" smooth="yes"/>
			<point x="206" y="61"/>
			<point x="138" y="139"/>
			<point x="138" y="270" type="curve" smooth="yes"/>
			<point x="138" y="410"/>
			<point x="242" y="586"/>
			<point x="408" y="586" type="curve" smooth="yes"/>
			<point x="508" y="586" type="line"/>
			<point x="508" y="656" type="line"/>
			<point x="28" y="656" type="line"/>
			<point x="28" y="588" type="line"/>
			<point x="242" y="588" type="line"/>
			<point x="242" y="584" type="line"/>
			<point x="155" y="541"/>
			<point x="52" y="419"/>
			<point x="52" y="261" type="curve" smooth="yes"/>
			<point x="52" y="90"/>
			<point x="157" y="-12"/>
		</contour>
	</outline>
	<anchor name="aboveUC" x="287" y="678"/>
	<anchor name="belowLC" x="295" y="-22"/>
</glyph>
<glyph name="tinsular" format="2">
	<unicode hex="A787"/>
	<advance width="431"/>
	<outline>
		<contour>
			<point x="261" y="-12" type="curve" smooth="yes"/>
			<point x="322" y="-12"/>
			<point x="371" y="16"/>
			<point x="406" y="49" type="curve"/>
			<point x="371" y="99" type="line"/>
			<point x="343" y="75"/>
			<point x="314" y="56"/>
			<point x="270" y="56" type="curve" smooth="yes"/>
			<point x="199" y="56"/>
			<point x="145" y="113"/>
			<point x="145" y="197" type="curve" smooth="yes"/>
			<point x="145" y="305"/>
			<point x="215" y="419"/>
			<point x="347" y="419" type="curve" smooth="yes"/>
			<point x="403" y="419" type="line"/>
			<point x="403" y="486" type="line"/>
			<point x="94" y="486" type="line"/>
			<point x="24" y="480" type="line"/>
			<point x="24" y="419" type="line"/>
			<point x="188" y="419" type="line"/>
			<point x="188" y="415" type="line"/>
			<point x="123" y="378"/>
			<point x="60" y="295"/>
			<point x="60" y="185" type="curve" smooth="yes"/>
			<point x="60" y="61"/>
			<point x="149" y="-12"/>
		</contour>
	</outline>
	<anchor name="aboveLC" x="237" y="509"/>
	<anchor name="belowLC" x="245" y="-22"/>
</glyph>
<glyph name="Q.sups" format="2">
	<unicode hex="A7F4"/>
	<advance width="443"/>
	<outline>
		<contour>
			<point x="220" y="387" type="curve" smooth="yes"/>
			<point x="332" y="387"/>
			<point x="410" y="474"/>
			<point x="410" y="613" type="curve" smooth="yes"/>
			<point x="410" y="750"/>
			<point x="332" y="835"/>
			<point x="220" y="835" type="curve" smooth="yes"/>
			<point x="109" y="835"/>
			<point x="31" y="751"/>
			<point x="31" y="613" type="curve" smooth="yes"/>
			<point x="31" y="474"/>
			<point x="109" y="387"/>
		</contour>
		<contour>
			<point x="220" y="439" type="curve" smooth="yes"/>
			<point x="145" y="439"/>
			<point x="96" y="507"/>
			<point x="96" y="613" type="curve" smooth="yes"/>
			<point x="96" y="716"/>
			<point x="145" y="781"/>
			<point x="220" y="781" type="curve" smooth="yes"/>
			<point x="296" y="781"/>
			<point x="345" y="716"/>
			<point x="345" y="613" type="curve" smooth="yes"/>
			<point x="345" y="507"/>
			<point x="296" y="439"/>
		</contour>
		<contour>
			<point x="356" y="286" type="curve" smooth="yes"/>
			<point x="384" y="286"/>
			<point x="408" y="291"/>
			<point x="421" y="296" type="curve"/>
			<point x="409" y="344" type="line"/>
			<point x="397" y="340"/>
			<point x="383" y="337"/>
			<point x="363" y="337" type="curve" smooth="yes"/>
			<point x="312" y="337"/>
			<point x="270" y="356"/>
			<point x="252" y="401" type="curve"/>
			<point x="188" y="396" type="line"/>
			<point x="212" y="332"/>
			<point x="270" y="286"/>
		</contour>
	</outline>
</glyph>
<glyph name="norights" format="2">
	<unicode hex="1F10D"/>
	<advance width="744"/>
	<outline>
		<contour>
			<point x="372" y="-11" type="curve" smooth="yes"/>
			<point x="546" y="-11"/>
			<point x="695" y="119"/>
			<point x="695" y="323" type="curve" smooth="yes"/>
			<point x="695" y="526"/>
			<point x="546" y="653"/>
			<point x="372" y="653" type="curve" smooth="yes"/>
			<point x="198" y="653"/>
			<point x="49" y="526"/>
			<point x="49" y="323" type="curve" smooth="yes"/>
			<point x="49" y="119"/>
			<point x="198" y="-11"/>
		</contour>
		<contour>
			<point x="372" y="31" type="curve" smooth="yes"/>
			<point x="221" y="31"/>
			<point x="96" y="148"/>
			<point x="96" y="323" type="curve" smooth="yes"/>
			<point x="96" y="497"/>
			<point x="221" y="612"/>
			<point x="372" y="612" type="curve" smooth="yes"/>
			<point x="523" y="612"/>
			<point x="648" y="497"/>
			<point x="648" y="323" type="curve" smooth="yes"/>
			<point x="648" y="148"/>
			<point x="523" y="31"/>
		</contour>
		<contour>
			<point x="372" y="128" type="curve" smooth="yes"/>
			<point x="481" y="128"/>
			<point x="547" y="219"/>
			<point x="547" y="323" type="curve" smooth="yes"/>
			<point x="547" y="426"/>
			<point x="481" y="514"/>
			<point x="372" y="514" type="curve" smooth="yes"/>
			<point x="264" y="514"/>
			<point x="197" y="426"/>
			<point x="197" y="323" type="curve" smooth="yes"/>
			<point x="197" y="219"/>
			<point x="264" y="128"/>
		</contour>
		<contour>
			<point x="372" y="182" type="curve" smooth="yes"/>
			<point x="308" y="182"/>
			<point x="262" y="246"/>
			<point x="262" y="323" type="curve" smooth="yes"/>
			<point x="262" y="400"/>
			<point x="308" y="460"/>
			<point x="372" y="460" type="curve" smooth="yes"/>
			<point x="436" y="460"/>
			<point x="482" y="400"/>
			<point x="482" y="323" type="curve" smooth="yes"/>
			<point x="482" y="246"/>
			<point x="436" y="182"/>
		</contour>
		<contour>
			<point x="449" y="180" type="line"/>
			<point x="494" y="191" type="line"/>
			<point x="296" y="466" type="line"/>
			<point x="251" y="455" type="line"/>
		</contour>
	</outline>
</glyph>
<glyph name="noncommercial" format="2">
	<unicode hex="1F10F"/>
	<advance width="740"/>
	<outline>
		<contour>
			<point x="372" y="-11" type="curve" smooth="yes"/>
			<point x="546" y="-11"/>
			<point x="695" y="119"/>
			<point x="695" y="323" type="curve" smooth="yes"/>
			<point x="695" y="526"/>
			<point x="546" y="653"/>
			<point x="372" y="653" type="curve" smooth="yes"/>
			<point x="198" y="653"/>
			<point x="49" y="526"/>
			<point x="49" y="323" type="curve" smooth="yes"/>
			<point x="49" y="119"/>
			<point x="198" y="-11"/>
		</contour>
		<contour>
			<point x="372" y="31" type="curve" smooth="yes"/>
			<point x="221" y="31"/>
			<point x="96" y="148"/>
			<point x="96" y="323" type="curve" smooth="yes"/>
			<point x="96" y="497"/>
			<point x="221" y="612"/>
			<point x="372" y="612" type="curve" smooth="yes"/>
			<point x="523" y="612"/>
			<point x="648" y="497"/>
			<point x="648" y="323" type="curve" smooth="yes"/>
			<point x="648" y="148"/>
			<point x="523" y="31"/>
		</contour>
		<contour>
			<point x="372" y="129" type="curve" smooth="yes"/>
			<point x="446" y="129"/>
			<point x="494" y="169"/>
			<point x="494" y="226" type="curve" smooth="yes"/>
			<point x="494" y="235"/>
			<point x="491" y="241"/>
			<point x="481" y="268" type="curve"/>
			<point x="462" y="244" type="line"/>
			<point x="628" y="148" type="line"/>
			<point x="654" y="188" type="line"/>
			<point x="352" y="365" type="line" smooth="yes"/>
			<point x="332" y="376"/>
			<point x="325" y="391"/>
			<point x="325" y="413" type="curve" smooth="yes"/>
			<point x="325" y="443"/>
			<point x="348" y="460"/>
			<point x="383" y="460" type="curve" smooth="yes"/>
			<point x="420" y="460"/>
			<point x="445" y="444"/>
			<point x="469" y="420" type="curve"/>
			<point x="506" y="457" type="line"/>
			<point x="475" y="488"/>
			<point x="435" y="515"/>
			<point x="381" y="515" type="curve" smooth="yes"/>
			<point x="312" y="515"/>
			<point x="269" y="477"/>
			<point x="269" y="427" type="curve" smooth="yes"/>
			<point x="269" y="407"/>
			<point x="276" y="389"/>
			<point x="296" y="367" type="curve"/>
			<point x="304" y="391" type="line"/>
			<point x="116" y="499" type="line"/>
			<point x="90" y="459" type="line"/>
			<point x="406" y="274" type="line" smooth="yes"/>
			<point x="424" y="264"/>
			<point x="436" y="249"/>
			<point x="436" y="231" type="curve" smooth="yes"/>
			<point x="436" y="202"/>
			<point x="410" y="185"/>
			<point x="368" y="185" type="curve" smooth="yes"/>
			<point x="328" y="185"/>
			<point x="296" y="205"/>
			<point x="268" y="234" type="curve"/>
			<point x="231" y="198" type="line"/>
			<point x="266" y="157"/>
			<point x="313" y="129"/>
		</contour>
		<contour>
			<point x="341" y="61" type="line"/>
			<point x="397" y="61" type="line"/>
			<point x="397" y="137" type="line"/>
			<point x="341" y="137" type="line"/>
		</contour>
		<contour>
			<point x="352" y="497" type="line"/>
			<point x="408" y="497" type="line"/>
			<point x="408" y="583" type="line"/>
			<point x="352" y="583" type="line"/>
		</contour>
	</outline>
</glyph>
<glyph name="deposeemark" format="2">
	<unicode hex="1F16B"/>
	<advance width="653"/>
	<outline>
		<contour>
			<point x="28" y="366" type="line"/>
			<point x="84" y="366" type="line"/>
			<point x="84" y="503" type="line"/>
			<point x="77" y="608" type="line"/>
			<point x="81" y="608" type="line"/>
			<point x="154" y="414" type="line"/>
			<point x="201" y="414" type="line"/>
			<point x="274" y="608" type="line"/>
			<point x="278" y="608" type="line"/>
			<point x="271" y="503" type="line"/>
			<point x="271" y="366" type="line"/>
			<point x="326" y="366" type="line"/>
			<point x="326" y="676" type="line"/>
			<point x="254" y="676" type="line"/>
			<point x="208" y="560" type="line"/>
			<point x="180" y="482" type="line"/>
			<point x="176" y="482" type="line"/>
			<point x="148" y="560" type="line"/>
			<point x="101" y="676" type="line"/>
			<point x="28" y="676" type="line"/>
		</contour>
		<contour>
			<point x="402" y="366" type="line"/>
			<point x="496" y="366" type="line" smooth="yes"/>
			<point x="592" y="366"/>
			<point x="646" y="425"/>
			<point x="646" y="524" type="curve" smooth="yes"/>
			<point x="646" y="621"/>
			<point x="592" y="676"/>
			<point x="494" y="676" type="curve" smooth="yes"/>
			<point x="402" y="676" type="line"/>
		</contour>
		<contour>
			<point x="462" y="413" type="line"/>
			<point x="462" y="629" type="line"/>
			<point x="492" y="629" type="line" smooth="yes"/>
			<point x="554" y="629"/>
			<point x="585" y="592"/>
			<point x="585" y="524" type="curve" smooth="yes"/>
			<point x="585" y="454"/>
			<point x="554" y="413"/>
			<point x="493" y="413" type="curve" smooth="yes"/>
		</contour>
	</outline>
</glyph>
<glyph name="tincture" format="2">
	<unicode hex="1F748"/>
	<advance width="637"/>
	<outline>
		<contour>
			<point x="226" y="0" type="line"/>
			<point x="310" y="0" type="line"/>
			<point x="310" y="176" type="line"/>
			<point x="411" y="176" type="line" smooth="yes"/>
			<point x="493" y="176"/>
			<point x="584" y="218"/>
			<point x="584" y="326" type="curve" smooth="yes"/>
			<point x="584" y="430"/>
			<point x="505" y="466"/>
			<point x="400" y="466" type="curve" smooth="yes"/>
			<point x="310" y="466" type="line"/>
			<point x="310" y="586" type="line"/>
			<point x="508" y="586" type="line"/>
			<point x="508" y="656" type="line"/>
			<point x="28" y="656" type="line"/>
			<point x="28" y="586" type="line"/>
			<point x="226" y="586" type="line"/>
		</contour>
		<contour>
			<point x="310" y="235" type="line"/>
			<point x="310" y="406" type="line"/>
			<point x="386" y="406" type="line" smooth="yes"/>
			<point x="459" y="406"/>
			<point x="502" y="381"/>
			<point x="502" y="324" type="curve" smooth="yes"/>
			<point x="502" y="267"/>
			<point x="459" y="235"/>
			<point x="386" y="235" type="curve" smooth="yes"/>
		</contour>
		<contour>
			<point x="520" y="0" type="line"/>
			<point x="605" y="0" type="line"/>
			<point x="458" y="215" type="line"/>
			<point x="392" y="194" type="line"/>
		</contour>
	</outline>
</glyph>
<glyph name="A.sc" format="2">
	<advance width="470"/>
	<outline>
		<contour>
			<point x="3" y="0" type="line"/>
			<point x="87" y="0" type="line"/>
			<point x="181" y="282" type="line" smooth="yes"/>
			<point x="199" y="339"/>
			<point x="214" y="393"/>
			<point x="232" y="450" type="curve"/>
			<point x="236" y="450" type="line"/>
			<point x="254" y="394"/>
			<point x="269" y="339"/>
			<point x="288" y="282" type="curve" smooth="yes"/>
			<point x="380" y="0" type="line"/>
			<point x="468" y="0" type="line"/>
			<point x="282" y="518" type="line"/>
			<point x="188" y="518" type="line"/>
		</contour>
		<contour>
			<point x="105" y="144" type="line"/>
			<point x="364" y="144" type="line"/>
			<point x="364" y="210" type="line"/>
			<point x="105" y="210" type="line"/>
		</contour>
	</outline>
	<anchor name="aboveUC" x="235" y="562"/>
	<anchor name="belowLC" x="235" y="-22"/>
	<anchor name="ogonekUC" x="409" y="0"/>
</glyph>
